<svg xmlns="http://www.w3.org/2000/svg" viewBox="0 0 489.055 489.055" style="enable-background:new 0 0 489.055 489.055" xml:space="preserve"><path d="M90.987 386.269c-9.182-20.44-9.182-20.44-17.355-42.405-6.868-21.835-10.097-33.573-12.685-51.917-13.022-63.525 21.493-142.57 21.493-142.57s-40.504 61.382-33.758 143.82c2.548 21.43 3.531 32.227 8.733 55.229 6.728 24.271 8.034 25.795 15.025 47.257 5.3 13.476 15.926 34.386 20.178 41.919-5.049-2.825-10.13-3.669-13.637-1.152-5.583 3.862-14.205 22.435-5.91 32.063 8.305 9.659 28.184 4.14 32.834-.827 4.74-4.872 2.232-15.034-4.765-23.217 3.043.683 6.349.244 9.204-1.525 5.797-3.588 7.591-11.186 4.004-16.981-26.112-42.195-16.965-26.61-23.361-39.694zm19.896-252.932c5.146-7.809 18.613-30.587 14.327-35.44-4.936-5.228-28.191 11.836-34.166 20.829-6.38 8.621-6.152 18.799-.358 22.338 5.821 3.556 14.522-.048 20.197-7.727z"/><path d="M92.643 190.888c6.608-4.465 23.346-18.931 22.484-26.3-.909-7.89-21.031-6.559-28.531-2.403-7.476 3.783-12.232 14.254-10.162 22.291 2.061 8.066 9.497 10.455 16.209 6.412zm30.309 213.156c-5.527 3.946-5.479 13.458.894 20.847 6.348 7.385 15.933 9.058 20.675 4.171 4.675-4.968 12.435-22.321 7.363-28.266-5.107-5.908-23.322-.63-28.932 3.248zM64.98 250.939c4.245 6.98 12.054 7.191 17.355 1.64 4.838-6.364 23.954-31.056 21.437-37.241-2.963-7.402-29.563 5.91-35.415 12.191-6.046 5.471-7.622 16.476-3.377 23.41zm26.965 65.456c3.142-8.685 16.616-40.927 11.98-46.608-5.592-7.144-31.203 15.1-35.667 23.994-4.992 7.906-3.125 20.554 3.928 26.706 7.055 6.184 15.758 3.686 19.759-4.092zm7.833 74.303c10.024 4.287 18.435-1.703 19.862-11.639-.073-10.764 3.695-49.969-2.987-54.385-8.451-5.959-29.23 26.512-30.852 37.989-2.695 10.406 3.977 23.799 13.977 28.035zM63.487 179.345c7.045-4.886 11.64-14.968 10.747-23.571-1.227-8.347-8.143-28.899-16.244-24.662-8.735 4.499-12.963 33.136-10.714 41.821 1.738 8.896 9.189 11.265 16.211 6.412zm-21.04 69.467c5.397-6.689 6.988-17.662 3.691-25.649-3.919-7.308-18.067-37.876-24.65-31.999-7.906 6.77-1.479 48.559 3.604 56.009 4.147 8.084 11.965 8.295 17.355 1.639zm.893 77.649c3.678-9.368 1.802-22.192-4.417-30.066-6.792-6.85-32.004-37.03-37.525-28.345-6.94 10.211 13.783 55.879 22.185 62.518 7.386 7.744 16.088 5.244 19.757-4.107zm30.017 79.728c.374-11.705-6.308-25.133-15.828-31.74-9.886-5.08-47.493-30.454-50.609-19.009-4.44 13.832 34.603 58.086 46.575 62.372 11.062 6.023 19.473.031 19.862-11.623zm336.717 30.26c-3.506-2.517-8.588-1.673-13.638 1.152 4.254-7.533 14.879-28.443 20.181-41.919 6.988-21.462 8.295-22.986 15.024-47.257 5.203-23.003 6.185-33.8 8.734-55.229 6.744-82.438-33.76-143.82-33.76-143.82s34.515 79.045 21.495 142.57c-2.59 18.344-5.82 30.082-12.688 51.917-8.174 21.965-8.174 21.965-17.355 42.405-6.395 13.084 2.753-2.501-23.361 39.692-3.587 5.796-1.793 13.394 4.002 16.981 2.858 1.77 6.161 2.208 9.205 1.525-6.997 8.183-9.506 18.345-4.765 23.217 4.652 4.967 24.531 10.486 32.834.827 8.297-9.626-.323-28.198-5.908-32.061zM363.848 97.897c-4.288 4.854 9.18 27.632 14.326 35.44 5.674 7.679 14.374 11.283 20.195 7.727 5.795-3.539 6.022-13.717-.358-22.338-5.972-8.993-29.23-26.057-34.163-20.829z"/><path d="M402.46 162.185c-7.501-4.155-27.623-5.486-28.532 2.403-.861 7.369 15.878 21.835 22.483 26.3 6.713 4.043 14.15 1.654 16.211-6.412 2.069-8.037-2.686-18.508-10.162-22.291zm-65.286 238.611c-5.074 5.944 2.687 23.298 7.362 28.266 4.739 4.887 14.326 3.214 20.675-4.171 6.371-7.389 6.419-16.9.892-20.847-5.609-3.878-23.824-9.156-28.929-3.248zM420.7 227.528c-5.854-6.281-32.454-19.594-35.416-12.191-2.518 6.186 16.599 30.877 21.437 37.241 5.301 5.552 13.108 5.341 17.355-1.64 4.246-6.933 2.67-17.938-3.376-23.41zm-3.832 92.958c7.054-6.152 8.921-18.8 3.928-26.706-4.463-8.895-30.073-31.138-35.667-23.994-4.634 5.682 8.841 37.924 11.981 46.608 4.004 7.779 12.704 10.277 19.758 4.092zm-44.466 4.189c-6.682 4.416-2.915 43.621-2.987 54.385 1.429 9.936 9.838 15.926 19.862 11.639 10.001-4.236 16.674-17.629 13.979-28.034-1.624-11.478-22.404-43.949-30.854-37.99zm53.168-145.33c7.021 4.854 14.473 2.484 16.209-6.412 2.25-8.686-1.979-37.322-10.713-41.821-8.102-4.237-15.017 16.315-16.242 24.662-.895 8.603 3.7 18.685 10.746 23.571zm21.041 69.467c5.389 6.656 13.206 6.445 17.354-1.64 5.082-7.45 11.51-49.239 3.604-56.009-6.583-5.877-20.732 24.691-24.653 31.999-3.294 7.988-1.704 18.96 3.695 25.65zm3.522 47.583c-6.217 7.874-8.093 20.698-4.415 30.066 3.669 9.351 12.369 11.851 19.756 4.106 8.401-6.639 29.124-52.307 22.184-62.518-5.519-8.685-30.731 21.496-37.525 28.346zm-18.606 78.053c-9.52 6.607-16.201 20.035-15.827 31.74.39 11.654 8.799 17.647 19.862 11.623 11.973-4.286 51.018-48.54 46.577-62.372-3.117-11.445-40.724 13.929-50.612 19.009zM314.534 181.489l54.174-142.637-19.423-7.371-52.957 139.453c6.388 3.02 12.484 6.528 18.206 10.555zm11.438-158.871-19.425-7.37-54.815 144.322c7.208.438 14.238 1.462 21.064 3.086l53.176-140.038zm-88.64 136.952L182.509 15.232l-19.424 7.37 53.183 140.055a121.81 121.81 0 0 1 21.064-3.087zm-44.595 11.365L139.771 31.466l-19.423 7.371 54.174 142.652c5.722-4.044 11.826-7.55 18.215-10.554zm51.788 4.903c-58.136 0-105.256 47.129-105.256 105.248 0 58.134 47.12 105.263 105.256 105.263 58.127 0 105.255-47.129 105.255-105.263 0-58.119-47.128-105.248-105.255-105.248zm0 186.956c-45.05 0-81.7-36.658-81.7-81.708 0-45.052 36.65-81.692 81.7-81.692s81.7 36.641 81.7 81.692c0 45.05-36.651 81.708-81.7 81.708z"/><path d="M244.525 216.019c-35.888 0-65.075 29.188-65.075 65.067 0 35.895 29.187 65.083 65.075 65.083 35.885 0 65.075-29.188 65.075-65.083 0-35.879-29.19-65.067-65.075-65.067z"/></svg>