<svg viewBox="0 0 512.002 512.002" xmlns="http://www.w3.org/2000/svg"><circle cx="256.001" cy="256" fill="#366796" r="256"/><path d="M511.999 256c0-6.404-.243-12.75-.705-19.035L393.165 118.836l-274.33 274.33 118.131 118.131c6.285.462 12.631.705 19.034.705C397.385 512 511.999 397.384 511.999 256z" fill="#273b7a"/><path d="M393.165 118.834c-75.812-28.582-164.662-12.366-225.68 48.652s-77.233 149.866-48.652 225.68c75.812 28.582 164.662 12.366 225.68-48.652s77.234-149.866 48.652-225.68z" fill="#d48b07"/><path d="M393.165 118.834c-.352-.133-.707-.247-1.058-.378l-273.65 273.652c.131.352.245.707.378 1.058 75.812 28.582 164.662 12.366 225.68-48.652 61.016-61.016 77.232-149.866 48.65-225.68z" fill="#af6e08"/><path d="m231.346 123.525 157.131 157.131c8.775-19.709 14.377-40.482 16.862-61.554l-112.44-112.439c-21.071 2.484-41.842 8.087-61.553 16.862z" fill="#ffedb5"/><path d="M405.338 219.102 348.4 162.164l-39.207 39.207 79.282 79.282c8.776-19.709 14.378-40.48 16.863-61.551z" fill="#fee187"/><path d="m280.656 388.475-157.13-157.13c-8.775 19.709-14.377 40.482-16.862 61.554l112.438 112.438c21.072-2.484 41.843-8.087 61.554-16.862z" fill="#ffedb5"/><path d="m162.165 348.4 56.937 56.937c21.071-2.484 41.843-8.087 61.554-16.862l-79.282-79.282z" fill="#fee187"/><path d="m290.231 237.615 12.9-12.9c4.377-4.375 4.377-11.469 0-15.844-4.374-4.377-11.471-4.377-15.844 0l-12.9 12.9-11.681-11.681c-3.699-3.703-9.707-3.703-13.407 0-3.703 3.701-3.703 9.706 0 13.407l11.681 11.681-6.196 6.196-11.681-11.681c-3.699-3.703-9.707-3.703-13.407 0-3.703 3.701-3.703 9.706 0 13.407l11.681 11.681-6.196 6.196-11.681-11.683c-3.699-3.703-9.707-3.703-13.407 0-3.703 3.701-3.703 9.706 0 13.407l11.681 11.681-12.9 12.9c-4.377 4.375-4.377 11.469 0 15.844 2.188 2.189 5.056 3.282 7.923 3.282s5.735-1.095 7.923-3.282l12.9-12.9 11.681 11.681c1.85 1.851 4.277 2.777 6.704 2.777s4.853-.926 6.704-2.777c3.703-3.701 3.703-9.706 0-13.407l-11.681-11.681 6.196-6.196 11.681 11.681c1.85 1.851 4.277 2.777 6.704 2.777s4.853-.926 6.704-2.777c3.703-3.701 3.703-9.706 0-13.407l-11.681-11.681 6.196-6.196 11.681 11.681c1.85 1.851 4.277 2.777 6.704 2.777s4.853-.926 6.704-2.777c3.703-3.701 3.703-9.706 0-13.407z" fill="#fbecb7"/><path d="M303.131 208.87a11.721 11.721 0 0 0-.753-.683l-94.187 94.187a11.166 11.166 0 0 0 8.606 4.035c2.867 0 5.735-1.095 7.923-3.282l12.9-12.9 11.681 11.681c1.85 1.851 4.277 2.777 6.704 2.777s4.853-.926 6.704-2.777c3.703-3.701 3.703-9.706 0-13.407l-11.681-11.681 6.196-6.196 11.681 11.681c1.85 1.851 4.277 2.777 6.704 2.777s4.853-.926 6.704-2.777c3.703-3.701 3.703-9.706 0-13.407l-11.681-11.681 6.196-6.196 11.681 11.681c1.85 1.851 4.277 2.777 6.704 2.777s4.853-.926 6.704-2.777c3.703-3.701 3.703-9.706 0-13.407l-11.681-11.681 12.9-12.9c4.372-4.375 4.372-11.469-.005-15.844z" fill="#fee187"/></svg>