<?xml version="1.0" encoding="iso-8859-1"?>
<!-- Generator: Adobe Illustrator 19.0.0, SVG Export Plug-In . SVG Version: 6.00 Build 0)  -->
<svg version="1.1" id="Layer_1" xmlns="http://www.w3.org/2000/svg" xmlns:xlink="http://www.w3.org/1999/xlink" x="0px" y="0px"
	 viewBox="0 0 512.002 512.002" style="enable-background:new 0 0 512.002 512.002;" xml:space="preserve">
<circle style="fill:#366796;" cx="256.001" cy="256" r="256"/>
<path style="fill:#273B7A;" d="M511.999,256c0-6.404-0.243-12.75-0.705-19.035L393.165,118.836l-274.33,274.33l118.131,118.131
	c6.285,0.462,12.631,0.705,19.034,0.705C397.385,512,511.999,397.384,511.999,256z"/>
<path style="fill:#D48B07;" d="M393.165,118.834c-75.812-28.582-164.662-12.366-225.68,48.652s-77.233,149.866-48.652,225.68
	c75.812,28.582,164.662,12.366,225.68-48.652S421.747,194.648,393.165,118.834z"/>
<path style="fill:#AF6E08;" d="M393.165,118.834c-0.352-0.133-0.707-0.247-1.058-0.378L118.457,392.108
	c0.131,0.352,0.245,0.707,0.378,1.058c75.812,28.582,164.662,12.366,225.68-48.652C405.531,283.498,421.747,194.648,393.165,118.834
	z"/>
<path style="fill:#FFEDB5;" d="M231.346,123.525l157.131,157.131c8.775-19.709,14.377-40.482,16.862-61.554L292.899,106.663
	C271.828,109.147,251.057,114.75,231.346,123.525z"/>
<path style="fill:#FEE187;" d="M405.338,219.102L348.4,162.164l-39.207,39.207l79.282,79.282
	C397.251,260.944,402.853,240.173,405.338,219.102z"/>
<path style="fill:#FFEDB5;" d="M280.656,388.475L123.526,231.345c-8.775,19.709-14.377,40.482-16.862,61.554l112.438,112.438
	C240.174,402.853,260.945,397.25,280.656,388.475z"/>
<path style="fill:#FEE187;" d="M162.165,348.4l56.937,56.937c21.071-2.484,41.843-8.087,61.554-16.862l-79.282-79.282L162.165,348.4
	z"/>
<path style="fill:#FBECB7;" d="M290.231,237.615l12.9-12.9c4.377-4.375,4.377-11.469,0-15.844c-4.374-4.377-11.471-4.377-15.844,0
	l-12.9,12.9l-11.681-11.681c-3.699-3.703-9.707-3.703-13.407,0c-3.703,3.701-3.703,9.706,0,13.407l11.681,11.681l-6.196,6.196
	l-11.681-11.681c-3.699-3.703-9.707-3.703-13.407,0c-3.703,3.701-3.703,9.706,0,13.407l11.681,11.681l-6.196,6.196L223.5,249.294
	c-3.699-3.703-9.707-3.703-13.407,0c-3.703,3.701-3.703,9.706,0,13.407l11.681,11.681l-12.9,12.9
	c-4.377,4.375-4.377,11.469,0,15.844c2.188,2.189,5.056,3.282,7.923,3.282c2.867,0,5.735-1.095,7.923-3.282l12.9-12.9l11.681,11.681
	c1.85,1.851,4.277,2.777,6.704,2.777s4.853-0.926,6.704-2.777c3.703-3.701,3.703-9.706,0-13.407l-11.681-11.681l6.196-6.196
	l11.681,11.681c1.85,1.851,4.277,2.777,6.704,2.777c2.427,0,4.853-0.926,6.704-2.777c3.703-3.701,3.703-9.706,0-13.407
	l-11.681-11.681l6.196-6.196l11.681,11.681c1.85,1.851,4.277,2.777,6.704,2.777c2.427,0,4.853-0.926,6.704-2.777
	c3.703-3.701,3.703-9.706,0-13.407L290.231,237.615z"/>
<path style="fill:#FEE187;" d="M303.131,208.87c-0.243-0.243-0.496-0.467-0.753-0.683l-94.187,94.187
	c0.215,0.259,0.44,0.512,0.683,0.753c2.188,2.189,5.056,3.282,7.923,3.282c2.867,0,5.735-1.095,7.923-3.282l12.9-12.9l11.681,11.681
	c1.85,1.851,4.277,2.777,6.704,2.777c2.427,0,4.853-0.926,6.704-2.777c3.703-3.701,3.703-9.706,0-13.407l-11.681-11.681l6.196-6.196
	l11.681,11.681c1.85,1.851,4.277,2.777,6.704,2.777c2.427,0,4.853-0.926,6.704-2.777c3.703-3.701,3.703-9.706,0-13.407
	l-11.681-11.681l6.196-6.196l11.681,11.681c1.85,1.851,4.277,2.777,6.704,2.777c2.427,0,4.853-0.926,6.704-2.777
	c3.703-3.701,3.703-9.706,0-13.407l-11.681-11.681l12.9-12.9C307.508,220.339,307.508,213.245,303.131,208.87z"/>
<g>
</g>
<g>
</g>
<g>
</g>
<g>
</g>
<g>
</g>
<g>
</g>
<g>
</g>
<g>
</g>
<g>
</g>
<g>
</g>
<g>
</g>
<g>
</g>
<g>
</g>
<g>
</g>
<g>
</g>
</svg>
