<svg viewBox="270 45 300 300" xmlns="http://www.w3.org/2000/svg"><path d="m421.898438 314.234375c-1.710938.023438-3.238282.011719-5.082032.042969l-.09375-.019531c-56.078125 0-103.285156-34.789063-117.785156-81.386719 13.273438 55.714844 66.988281 96.460937 124.105469 96.460937 70.015625 0 128.183594-57.835937 128.761719-127.851562.617187-73.738281-59.070313-131.214844-129.066407-129.988281-32.058593.566406-61.917968 12.65625-84.425781 33.066406l.320313-.03125c20.101562-16.929688 47.1875-26.394531 77.390625-26.394531 70.015625 0 125.042968 54.769531 125.042968 120.335937 0 14.585938-2.8125 28.554688-7.957031 41.472656h-.027344c2.332032-48.925781-31.800781-95.519531-82.742187-105.867187-6.5-1.324219-12.902344-2.253906-19.292969-2.371094h-2.382812c-51.617188 0-91.460938 37.316406-91.460938 84.300781 0 10.914063 3.410156 22.761719 7.214844 31.363282 0 0 .25.210937.105469.625-.132813.414062-.394532.199218-.394532.199218-10.308593-16.796875-14.15625-38.550781-10.3125-57.847656 1.171875-5.898437 2.921875-11.59375 5.328125-17.101562 24.496094-56.199219 99.304688-72.628907 149.195313-42.289063 12.875 7.832031 25.34375 20.488281 32.609375 33.804688-11.09375-44.296875-56.964844-75.378907-102.101563-75.378907-49.480468 0-92.457031 34.878907-100.675781 78.953125h.113281c13.480469-36.519531 50.257813-71.917968 100.574219-68.957031 0 0 .410156-.050781.585938.503906.121093.382813-.597657.558594-.597657.558594-55.355468 0-101.664062 49.957031-101.664062 105.304688l-.035156 1.460937c1.414062 46.941406 38.515625 85.40625 85.824218 85.40625 44.96875 0 78.644532-32.96875 79.40625-75.925781-4.082031 32.738281-26.792968 57.929687-62.992187 57.929687-38.980469 0-68.5-29.007812-68.5-65.359375 0-36.355468 31.421875-63.519531 70.398437-63.519531l1.230469.042969c47.796875 0 86.546875 37.710937 86.546875 84.230469 0 46.515625-38.75 84.226562-86.546875 84.226562zm0 0" fill="#615f59"/><path d="m343.996094 247.019531c-4.355469-8.515625-7.445313-21.703125-7.445313-32.898437 0-34.882813 26.359375-66.742188 56.640625-75.832031-25.398437 9.085937-50.671875 38.988281-50.671875 70.644531 0 39.457031 31.777344 71.421875 70.976563 71.421875 33.84375 0 61.230469-24.09375 68.324219-56l.269531-1.472656c-3.660156 39.242187-36.714844 71.589843-80.835938 69.945312-10.230468-.382812-20.769531-1.863281-30.234375-5.730469-38.65625-15.804687-60.46875-53.9375-57.257812-95.097656 1.199219-15.464844 4.207031-30.777344 12.648437-43.882812 12.832032-19.90625 28.964844-34.285157 50.480469-42.734375 73.453125-28.84375 134 22.269531 144.140625 58.652343l-.144531-.402343c-7.527344-13.800782-18.375-28.828125-31.574219-37.246094-51.011719-32.542969-127.789062-21.828125-155.003906 38.933594-2.539063 5.679687-4.296875 11.609375-5.519531 17.71875-3.988282 20.003906.195312 46.40625 14.71875 64.402343 0 0 .179687.21875.394531.09375.210937-.125.09375-.515625.09375-.515625" fill="#aec90b"/></svg>