<svg viewBox="270 45 300 300" xmlns="http://www.w3.org/2000/svg"><path d="M421.898 314.234c-1.71.024-3.238.012-5.082.043l-.093-.02c-56.078 0-103.286-34.788-117.786-81.386 13.274 55.715 66.989 96.461 124.106 96.461 70.016 0 128.184-57.836 128.762-127.852.617-73.738-59.07-131.214-129.067-129.988-32.058.567-61.918 12.656-84.426 33.067l.32-.032c20.102-16.93 47.188-26.394 77.391-26.394 70.016 0 125.043 54.77 125.043 120.336 0 14.586-2.812 28.554-7.957 41.472h-.027c2.332-48.925-31.8-95.52-82.742-105.867-6.5-1.324-12.903-2.254-19.293-2.37h-2.383c-51.617 0-91.46 37.316-91.46 84.3 0 10.914 3.41 22.762 7.214 31.363 0 0 .25.211.105.625-.132.414-.394.2-.394.2-10.309-16.797-14.156-38.551-10.313-57.848 1.172-5.899 2.922-11.594 5.329-17.102 24.496-56.199 99.304-72.629 149.195-42.289 12.875 7.832 25.344 20.488 32.61 33.805-11.095-44.297-56.966-75.38-102.102-75.38-49.48 0-92.457 34.88-100.676 78.954h.113c13.48-36.52 50.258-71.918 100.574-68.957 0 0 .41-.05.586.504.121.383-.597.559-.597.559-55.356 0-101.664 49.957-101.664 105.304l-.036 1.461c1.414 46.942 38.516 85.406 85.825 85.406 44.968 0 78.644-32.968 79.406-75.925-4.082 32.738-26.793 57.93-62.992 57.93-38.98 0-68.5-29.009-68.5-65.36 0-36.356 31.422-63.52 70.398-63.52l1.23.043c47.797 0 86.547 37.711 86.547 84.23 0 46.516-38.75 84.227-86.546 84.227zm0 0" fill="#615f59"/><path d="M343.996 247.02c-4.355-8.516-7.445-21.704-7.445-32.899 0-34.883 26.36-66.742 56.64-75.832-25.398 9.086-50.671 38.988-50.671 70.645 0 39.457 31.777 71.421 70.976 71.421 33.844 0 61.23-24.093 68.324-56l.27-1.472c-3.66 39.242-36.715 71.59-80.836 69.945-10.23-.383-20.77-1.863-30.234-5.73-38.657-15.805-60.47-53.938-57.258-95.098 1.199-15.465 4.207-30.777 12.648-43.883 12.832-19.906 28.965-34.285 50.48-42.734 73.454-28.844 134 22.27 144.141 58.652l-.144-.402c-7.528-13.801-18.375-28.828-31.574-37.246-51.012-32.543-127.79-21.828-155.004 38.933-2.54 5.68-4.297 11.61-5.52 17.72-3.988 20.003.195 46.405 14.719 64.401 0 0 .18.22.394.094.211-.125.094-.515.094-.515" fill="#aec90b"/></svg>