<?xml version="1.0" encoding="UTF-8"?>
<svg xmlns="http://www.w3.org/2000/svg" xmlns:xlink="http://www.w3.org/1999/xlink" viewBox="270 45 300 300"
  version="1.1">
  <g id="surface1">
    <path style=" stroke:none;fill-rule:nonzero;fill:rgb(37.998962%,37.298584%,34.899902%);fill-opacity:1;"
      d="M 421.898438 314.234375 C 420.1875 314.257813 418.660156 314.246094 416.816406 314.277344 L 416.722656 314.257813 C 360.644531 314.257813 313.4375 279.46875 298.9375 232.871094 C 312.210938 288.585938 365.925781 329.332031 423.042969 329.332031 C 493.058594 329.332031 551.226563 271.496094 551.804688 201.480469 C 552.421875 127.742188 492.734375 70.265625 422.738281 71.492188 C 390.679688 72.058594 360.820313 84.148438 338.3125 104.558594 L 338.632813 104.527344 C 358.734375 87.597656 385.820313 78.132813 416.023438 78.132813 C 486.039063 78.132813 541.066406 132.902344 541.066406 198.46875 C 541.066406 213.054688 538.253906 227.023438 533.109375 239.941406 L 533.082031 239.941406 C 535.414063 191.015625 501.28125 144.421875 450.339844 134.074219 C 443.839844 132.75 437.4375 131.820313 431.046875 131.703125 L 428.664063 131.703125 C 377.046875 131.703125 337.203125 169.019531 337.203125 216.003906 C 337.203125 226.917969 340.613281 238.765625 344.417969 247.367188 C 344.417969 247.367188 344.667969 247.578125 344.523438 247.992188 C 344.390625 248.40625 344.128906 248.191406 344.128906 248.191406 C 333.820313 231.394531 329.972656 209.640625 333.816406 190.34375 C 334.988281 184.445313 336.738281 178.75 339.144531 173.242188 C 363.640625 117.042969 438.449219 100.613281 488.339844 130.953125 C 501.214844 138.785156 513.683594 151.441406 520.949219 164.757813 C 509.855469 120.460938 463.984375 89.378906 418.847656 89.378906 C 369.367188 89.378906 326.390625 124.257813 318.171875 168.332031 L 318.285156 168.332031 C 331.765625 131.8125 368.542969 96.414063 418.859375 99.375 C 418.859375 99.375 419.269531 99.324219 419.445313 99.878906 C 419.566406 100.261719 418.847656 100.4375 418.847656 100.4375 C 363.492188 100.4375 317.183594 150.394531 317.183594 205.742188 L 317.148438 207.203125 C 318.5625 254.144531 355.664063 292.609375 402.972656 292.609375 C 447.941406 292.609375 481.617188 259.640625 482.378906 216.683594 C 478.296875 249.421875 455.585938 274.613281 419.386719 274.613281 C 380.40625 274.613281 350.886719 245.605469 350.886719 209.253906 C 350.886719 172.898438 382.308594 145.734375 421.285156 145.734375 L 422.515625 145.777344 C 470.3125 145.777344 509.0625 183.488281 509.0625 230.007813 C 509.0625 276.523438 470.3125 314.234375 422.515625 314.234375 Z M 421.898438 314.234375 " />
    <path style=" stroke:none;fill-rule:nonzero;fill:rgb(68.199158%,78.799438%,4.299927%);fill-opacity:1;"
      d="M 343.996094 247.019531 C 339.640625 238.503906 336.550781 225.316406 336.550781 214.121094 C 336.550781 179.238281 362.910156 147.378906 393.191406 138.289063 C 367.792969 147.375 342.519531 177.277344 342.519531 208.933594 C 342.519531 248.390625 374.296875 280.355469 413.496094 280.355469 C 447.339844 280.355469 474.726563 256.261719 481.820313 224.355469 L 482.089844 222.882813 C 478.429688 262.125 445.375 294.472656 401.253906 292.828125 C 391.023438 292.445313 380.484375 290.964844 371.019531 287.097656 C 332.363281 271.292969 310.550781 233.160156 313.761719 192 C 314.960938 176.535156 317.96875 161.222656 326.410156 148.117188 C 339.242188 128.210938 355.375 113.832031 376.890625 105.382813 C 450.34375 76.539063 510.890625 127.652344 521.03125 164.035156 L 520.886719 163.632813 C 513.359375 149.832031 502.511719 134.804688 489.3125 126.386719 C 438.300781 93.84375 361.523438 104.558594 334.308594 165.320313 C 331.769531 171 330.011719 176.929688 328.789063 183.039063 C 324.800781 203.042969 328.984375 229.445313 343.507813 247.441406 C 343.507813 247.441406 343.6875 247.660156 343.902344 247.535156 C 344.113281 247.410156 343.996094 247.019531 343.996094 247.019531 " />
  </g>
</svg>
