<svg viewBox="0 0 512 512" xmlns="http://www.w3.org/2000/svg"><path d="M504.141 256c0 68.195-27.51 129.966-72.038 174.819-44.955 45.283-107.255 73.322-176.103 73.322C118.955 504.141 7.859 393.044 7.859 256S118.955 7.859 256 7.859 504.141 118.955 504.141 256z" fill="#f2f2f2"/><path d="M135.932 256c0-114.896 78.105-211.513 184.104-239.755A248.419 248.419 0 0 0 256 7.859C118.955 7.859 7.859 118.955 7.859 256c0 137.044 111.096 248.141 248.141 248.141 22.15 0 43.609-2.938 64.045-8.384C214.04 467.518 135.932 370.899 135.932 256z" fill="#e6e6e6"/><path d="M52.776 330.663a223.32 223.32 0 0 1-7.197-24.894l15.329-3.478a207.312 207.312 0 0 0 6.689 23.134zm-10.308-41.49a225.586 225.586 0 0 1-1.074-8.296A227.432 227.432 0 0 1 40.028 256c0-29.32 5.581-57.832 16.589-84.745l14.549 5.951c-10.232 25.015-15.42 51.525-15.42 78.794 0 7.731.428 15.52 1.271 23.15.285 2.576.62 5.171.999 7.715z" fill="#fff"/><path d="M437.019 74.981C388.667 26.629 324.38 0 256 0S123.332 26.629 74.981 74.981 0 187.619 0 256s26.629 132.668 74.981 181.019C123.333 485.371 187.62 512 256 512c68.732 0 133.254-26.864 181.681-75.644C485.606 388.081 512 324.029 512 256c0-68.381-26.629-132.668-74.981-181.019zM256 15.718c59.668 0 116.007 21.613 160.103 61.117-34.947 56.53-96.717 91.262-163.594 91.262-33.569 0-66.609-8.777-95.547-25.384-26.34-15.116-48.877-36.409-65.491-61.813C136.19 38.816 194.317 15.718 256 15.718zM91.471 431.101c16.614-25.404 39.15-46.697 65.49-61.812 28.938-16.607 61.977-25.385 95.547-25.385 66.876 0 128.645 34.73 163.593 91.259-44.092 39.509-100.4 61.118-160.102 61.118-61.682.001-119.808-23.097-164.528-65.18zm336.243-7.045c-38.096-59.476-103.984-95.87-175.206-95.87-36.31 0-72.055 9.499-103.371 27.47-27.524 15.795-51.187 37.841-68.963 64.094C38.553 375.135 15.718 317.327 15.718 256S38.553 136.865 80.175 92.25c17.775 26.254 41.439 48.299 68.963 64.095 31.315 17.97 67.061 27.469 103.371 27.469 71.222 0 137.109-36.392 175.204-95.867 44.229 45.167 68.569 104.735 68.569 168.052 0 63.282-24.346 122.889-68.568 168.057z"/><path d="M246.568 151.21h15.718v49.251h-15.718zm-25.23 46.718-15.48-2.729 8.338-47.297 15.48 2.729zm-38.103-8.79-14.77-5.376 16.425-45.13 14.77 5.375zm-35.976-15.268-13.612-7.859 24.013-41.59 13.612 7.859zm-32.804-21.287-12.04-10.104 30.872-36.788 12.04 10.103zm-28.58-26.654-10.103-12.04 36.788-30.871 10.103 12.04zm333.259.007-36.788-30.871 10.103-12.04 36.788 30.871zm-28.565 26.644-30.872-36.79 12.04-10.103 30.872 36.789zm-32.795 21.294-24.013-41.59 13.612-7.86 24.013 41.591zm-36.009 15.264-16.426-45.13 14.77-5.376 16.426 45.13zm-38.061 8.79-8.343-47.298 15.48-2.73 8.342 47.298zm-37.136 113.609h15.718v48.203h-15.718zm-32.369 52.576-8.343-47.298 15.48-2.73 8.342 47.298zm-29.304 9.245-16.425-45.13 14.77-5.376 16.425 45.13zm-27.239 14.221-24.013-41.59 13.612-7.86 24.013 41.59zm-24.348 18.741-30.872-36.788 12.04-10.104 30.872 36.789zm-20.771 22.653L75.75 398.102l10.104-12.04 36.788 30.87zm279.943.009-10.102-12.039 36.788-30.871 10.103 12.04zm-20.776-22.676-12.04-10.104 30.872-36.788 12.04 10.103zm-24.353-18.729-13.612-7.86 24.013-41.59 13.612 7.86zm-27.235-14.214-14.77-5.376 16.425-45.13 14.77 5.375zm-29.275-9.274-15.479-2.729 8.338-47.297 15.479 2.729z" fill="#ff1d25"/></svg>