<svg enable-background="new 0 0 512 512" viewBox="0 0 512 512" xmlns="http://www.w3.org/2000/svg"><path d="m504.141 256c0 68.195-27.51 129.966-72.038 174.819-44.955 45.283-107.255 73.322-176.103 73.322-137.045 0-248.141-111.097-248.141-248.141s111.096-248.141 248.141-248.141 248.141 111.096 248.141 248.141z" fill="#f2f2f2"/><path d="m135.932 256c0-114.896 78.105-211.513 184.104-239.755-20.433-5.443-41.887-8.386-64.036-8.386-137.045 0-248.141 111.096-248.141 248.141 0 137.044 111.096 248.141 248.141 248.141 22.15 0 43.609-2.938 64.045-8.384-106.005-28.239-184.113-124.858-184.113-239.757z" fill="#e6e6e6"/><path d="m52.776 330.663c-2.869-8.119-5.291-16.494-7.197-24.894l15.329-3.478c1.771 7.806 4.022 15.589 6.689 23.134z" fill="#fff"/><path d="m42.468 289.173c-.407-2.736-.767-5.527-1.074-8.296-.906-8.201-1.366-16.57-1.366-24.877 0-29.32 5.581-57.832 16.589-84.745l14.549 5.951c-10.232 25.015-15.42 51.525-15.42 78.794 0 7.731.428 15.52 1.271 23.15.285 2.576.62 5.171.999 7.715z" fill="#fff"/><path d="m437.019 74.981c-48.352-48.352-112.639-74.981-181.019-74.981s-132.668 26.629-181.019 74.981-74.981 112.638-74.981 181.019 26.629 132.668 74.981 181.019c48.352 48.352 112.639 74.981 181.019 74.981 68.732 0 133.254-26.864 181.681-75.644 47.925-48.275 74.319-112.327 74.319-180.356 0-68.381-26.629-132.668-74.981-181.019zm-181.019-59.263c59.668 0 116.007 21.613 160.103 61.117-34.947 56.53-96.717 91.262-163.594 91.262-33.569 0-66.609-8.777-95.547-25.384-26.34-15.116-48.877-36.409-65.491-61.813 44.719-42.084 102.846-65.182 164.529-65.182zm-164.529 415.383c16.614-25.404 39.15-46.697 65.49-61.812 28.938-16.607 61.977-25.385 95.547-25.385 66.876 0 128.645 34.73 163.593 91.259-44.092 39.509-100.4 61.118-160.102 61.118-61.682.001-119.808-23.097-164.528-65.18zm336.243-7.045c-38.096-59.476-103.984-95.87-175.206-95.87-36.31 0-72.055 9.499-103.371 27.47-27.524 15.795-51.187 37.841-68.963 64.094-41.621-44.615-64.456-102.423-64.456-163.75s22.835-119.135 64.457-163.75c17.775 26.254 41.439 48.299 68.963 64.095 31.315 17.97 67.061 27.469 103.371 27.469 71.222 0 137.109-36.392 175.204-95.867 44.229 45.167 68.569 104.735 68.569 168.052 0 63.282-24.346 122.889-68.568 168.057z"/><g fill="#ff1d25"><path d="m246.568 151.21h15.718v49.251h-15.718z"/><path d="m209.905 148.897h15.718v48.027h-15.718z" transform="matrix(-.9848 -.1736 .1736 -.9848 402.2037 381.0009)"/><path d="m176.203 139.872h15.718v48.027h-15.718z" transform="matrix(-.9397 -.342 .342 -.9397 300.9771 380.8372)"/><path d="m144.6 125.128h15.718v48.026h-15.718z" transform="matrix(-.866 -.5 .5 -.866 209.9185 354.5309)"/><path d="m116.012 105.119h15.718v48.027h-15.718z" transform="matrix(-.766 -.6428 .6428 -.766 135.7501 307.6764)"/><path d="m91.358 80.457h15.718v48.026h-15.718z" transform="matrix(-.6428 -.766 .766 -.6428 82.97 247.627)"/><path d="m381.773 96.614h48.026v15.717h-48.026z" transform="matrix(-.766 -.6428 .6428 -.766 649.4685 445.3457)"/><path d="m357.137 121.265h48.027v15.718h-48.027z" transform="matrix(-.6428 -.766 .766 -.6428 527.2477 504.0955)"/><path d="m328.56 141.283h48.026v15.718h-48.026z" transform="matrix(-.5 -.866 .866 -.5 399.7032 529.0485)"/><path d="m296.924 156.026h48.027v15.718h-48.027z" transform="matrix(-.342 -.9397 .9397 -.342 276.695 521.5187)"/><path d="m263.258 165.055h48.028v15.718h-48.028z" transform="matrix(-.1737 -.9848 .9848 -.1737 166.8856 485.8543)"/><path d="m246.568 311.537h15.718v48.203h-15.718z"/><path d="m193.752 331.24h48.028v15.718h-48.028z" transform="matrix(-.1737 -.9848 .9848 -.1737 -78.3519 612.4564)"/><path d="m160.054 340.245h48.027v15.718h-48.027z" transform="matrix(-.342 -.9397 .9397 -.342 -80.0948 640.1247)"/><path d="m128.448 354.989h48.026v15.718h-48.026z" transform="matrix(-.5 -.866 .866 -.5 -85.5406 676.3093)"/><path d="m99.885 375.006h48.027v15.718h-48.027z" transform="matrix(-.6428 -.766 .766 -.6428 -89.7404 723.8861)"/><path d="m75.188 399.649h48.026v15.718h-48.026z" transform="matrix(-.766 -.6428 .6428 -.766 -86.7632 783.4348)"/><path d="m397.966 383.5h15.717v48.026h-15.717z" transform="matrix(-.6428 -.766 .766 -.6428 354.5322 980.338)"/><path d="m373.26 358.832h15.718v48.027h-15.718z" transform="matrix(-.766 -.6428 .6428 -.766 426.9637 921.1027)"/><path d="m344.69 338.829h15.718v48.026h-15.718z" transform="matrix(-.866 -.5 .5 -.866 476.4383 853.3477)"/><path d="m313.085 324.097h15.718v48.027h-15.718z" transform="matrix(-.9397 -.342 .342 -.9397 503.4809 784.992)"/><path d="m279.407 315.057h15.718v48.027h-15.718z" transform="matrix(-.9848 -.1736 .1736 -.9848 511.3075 722.8622)"/></g></svg>