<?xml version="1.0" encoding="iso-8859-1"?>
<!-- Generator: Adobe Illustrator 19.0.0, SVG Export Plug-In . SVG Version: 6.00 Build 0)  -->
<svg version="1.1" id="Layer_1" xmlns="http://www.w3.org/2000/svg" xmlns:xlink="http://www.w3.org/1999/xlink" x="0px"
  y="0px" viewBox="0 0 448.032 448.032" style="enable-background:new 0 0 448.032 448.032;" xml:space="preserve">
  <g transform="translate(0 -1020.36)">
    <path style="fill:#EE746C;" d="M436.008,1244.232c0,117.166-94.916,212.148-212,212.148s-212-94.982-212-212.148
		c0-117.166,94.916-212.148,212-212.148S436.008,1127.066,436.008,1244.232z" />
    <path style="fill:#FB9761;"
      d="M426.108,1239.283c-0.001,108.568-87.951,196.58-196.444,196.58s-196.443-88.012-196.444-196.58
		c0-108.568,87.95-196.582,196.443-196.582c0,0,0,0,0.001,0C338.157,1042.701,426.108,1130.712,426.108,1239.283L426.108,1239.283z" />
    <g shape-rendering="auto" image-rendering="auto" color-rendering="auto" color-interpolation="sRGB">
      <g>
        <g>
          <path style="fill:#5A3392;" d="M336.099,1052.212c-1.809-0.02-3.572,0.574-5,1.686c0,0-32.205,24.234-69.438,57.063
					s-79.517,73.914-100.563,109.846c-18.687,31.9-32.472,82.928-42.125,126.531c-9.653,43.602-14.844,79.623-14.844,79.623
					c-0.861,4.334,1.954,8.545,6.289,9.406c4.334,0.861,8.545-1.955,9.406-6.289c0.053-0.266,0.092-0.533,0.118-0.803
					c0,0,5.142-35.496,14.656-78.469c9.514-42.975,23.728-93.596,40.313-121.906c18.943-32.34,60.613-73.553,97.344-105.938
					s68.469-56.279,68.469-56.279c3.572-2.602,4.36-7.605,1.76-11.178c-1.488-2.045-3.856-3.264-6.385-3.291V1052.212z" />
          <path style="fill:#5A3392;" d="M39.599,1132.244c-4.413,0.232-7.801,4-7.568,8.412c0.099,1.873,0.853,3.652,2.13,5.025
					c0,0,71.542,79.242,120.719,112.125c38.569,25.791,115.018,50.727,168.719,65.438c52.397,14.359,80.094,31.719,80.094,31.719
					c3.754,2.338,8.693,1.191,11.031-2.563s1.191-8.693-2.563-11.031c0,0-30.099-18.707-84.313-33.563
					c-52.909-14.494-129.882-40.402-164.094-63.281c-45.132-30.18-117.75-109.594-117.75-109.594
					C44.391,1133.107,42.033,1132.117,39.599,1132.244z" />
        </g>
        <path style="fill:#5A3392;" d="M115.537,1052.244c-4.415,0.182-7.846,3.91-7.664,8.324c0.044,1.068,0.302,2.115,0.757,3.082
				c23.678,52.027,26.918,112.656,1.938,157.313c-9.094,16.258-21.15,29.088-34.875,37.75c-13.725,8.66-29.145,13.342-60.625,17.563
				c-4.387,0.564-7.485,4.578-6.92,8.965c0.565,4.387,4.579,7.486,8.966,6.92c0.026-0.002,0.053-0.006,0.079-0.01
				c32.37-4.34,50.852-9.697,67.031-19.906c16.179-10.211,30.028-25.084,40.313-43.469c28.233-50.471,24.031-115.992-1.344-171.75
				C121.87,1054.005,118.83,1052.109,115.537,1052.244z" />
        <path style="fill:#5A3392;"
          d="M431.693,1180.244c-0.187-0.006-0.375-0.006-0.563,0c-30.753,2.912-70.896,14.557-107.844,31.969
				s-70.698,40.289-87.5,68c-16.966,27.98-12.555,59.395-1.813,89.219c10.742,29.826,27.798,59.268,38.625,85.781
				c1.534,4.145,6.137,6.26,10.281,4.727c4.144-1.535,6.26-6.137,4.726-10.281c-0.06-0.16-0.124-0.32-0.194-0.477
				c-11.461-28.066-28.345-57.34-38.375-85.189c-10.03-27.846-13.2-53.059,0.406-75.5c13.77-22.713,45.296-45.148,80.656-61.813
				s74.559-27.848,102.563-30.5c4.404-0.359,7.683-4.221,7.323-8.625c-0.349-4.275-4.007-7.514-8.292-7.344L431.693,1180.244z" />
        <path style="fill:#5A3392;" d="M235.068,1020.525c-4.419,0.04-7.968,3.654-7.928,8.072c0.039,4.35,3.547,7.871,7.896,7.928
				c107.906,5.717,193.349,92.906,196.875,200.906c3.526,108-76.072,200.602-183.375,213.344s-206.353-58.646-228.219-164.469
				c-21.865-105.82,40.778-210.607,144.344-241.437c4.244-1.236,6.682-5.68,5.445-9.924c-1.237-4.244-5.68-6.682-9.924-5.445
				c-0.028,0.009-0.056,0.017-0.084,0.025c-111.389,33.157-178.954,146.216-155.438,260.03
				c23.517,113.816,130.373,190.799,245.781,177.094c115.409-13.703,201.261-113.563,197.469-229.719
				c-3.792-116.158-95.975-210.228-212.031-216.376c-0.271-0.014-0.542-0.014-0.812,0L235.068,1020.525z" />
        <path style="fill:#5A3392;"
          d="M209.443,1020.712c-0.177-0.006-0.354-0.006-0.531,0c-7.166,0.48-14.32,1.296-21.406,2.469
				c-4.366,0.725-7.318,4.852-6.593,9.218c0.725,4.367,4.852,7.318,9.218,6.594c6.58-1.088,13.19-1.862,19.844-2.312
				c4.418-0.144,7.884-3.842,7.74-8.261c-0.144-4.418-3.842-7.883-8.26-7.739c-0.004,0-0.007,0-0.011,0L209.443,1020.712z" />
      </g>
      <g>
        <path style="fill:#FFFFFF;" d="M339.662,1093.15c-4.419,0.029-7.977,3.635-7.948,8.053c0.016,2.43,1.135,4.721,3.042,6.227
				c14.759,11.949,27.484,26.205,37.688,42.219c2.373,3.729,7.319,4.826,11.047,2.453s4.826-7.318,2.453-11.047
				c-11.132-17.471-25.024-33.029-41.125-46.063c-1.448-1.201-3.274-1.855-5.156-1.844V1093.15z" />
        <path style="fill:#FFFFFF;" d="M406.099,1212.369c-4.414,0.195-7.835,3.932-7.64,8.346c0.012,0.271,0.038,0.543,0.077,0.811
				c1.383,10.631,1.789,21.357,1.219,32.063c-0.234,4.418,3.158,8.189,7.576,8.424s8.19-3.158,8.424-7.576
				c0.622-11.678,0.165-23.371-1.344-34.969c-0.473-4.184-4.107-7.285-8.313-7.094L406.099,1212.369z" />
      </g>
    </g>
  </g>
</svg>