<svg viewBox="0 0 448.032 448.032" xmlns="http://www.w3.org/2000/svg"><path d="M436.008 223.872c0 117.166-94.916 212.148-212 212.148s-212-94.982-212-212.148 94.916-212.148 212-212.148 212 94.982 212 212.148z" fill="#ee746c"/><path d="M426.108 218.923c-.001 108.568-87.951 196.58-196.444 196.58S33.221 327.491 33.22 218.923c0-108.568 87.95-196.582 196.443-196.582h.001c108.493 0 196.444 88.011 196.444 196.582z" fill="#fb9761"/><g fill="#5a3392"><path d="M336.099 31.852a7.994 7.994 0 0 0-5 1.686s-32.205 24.234-69.438 57.063-79.517 73.914-100.563 109.846c-18.687 31.9-32.472 82.928-42.125 126.531-9.653 43.602-14.844 79.623-14.844 79.623a8 8 0 1 0 15.813 2.314s5.142-35.496 14.656-78.469c9.514-42.975 23.728-93.596 40.313-121.906 18.943-32.34 60.613-73.553 97.344-105.938s68.469-56.279 68.469-56.279a8 8 0 0 0-4.625-14.469z"/><path d="M39.599 111.884a8 8 0 0 0-5.438 13.437s71.542 79.242 120.719 112.125c38.569 25.791 115.018 50.727 168.719 65.438 52.397 14.359 80.094 31.719 80.094 31.719a8.008 8.008 0 0 0 8.468-13.594s-30.099-18.707-84.313-33.563c-52.909-14.494-129.882-40.402-164.094-63.281-45.132-30.18-117.75-109.594-117.75-109.594a7.994 7.994 0 0 0-6.405-2.687z"/><path d="M115.537 31.884a8.001 8.001 0 0 0-6.907 11.406c23.678 52.027 26.918 112.656 1.938 157.313-9.094 16.258-21.15 29.088-34.875 37.75-13.725 8.66-29.145 13.342-60.625 17.563a8.007 8.007 0 0 0-6.92 8.965 8.008 8.008 0 0 0 9.045 6.91c32.37-4.34 50.852-9.697 67.031-19.906 16.179-10.211 30.028-25.084 40.313-43.469 28.233-50.471 24.031-115.992-1.344-171.75a7.998 7.998 0 0 0-7.656-4.782zm316.156 128a8.807 8.807 0 0 0-.563 0c-30.753 2.912-70.896 14.557-107.844 31.969s-70.698 40.289-87.5 68c-16.966 27.98-12.555 59.395-1.813 89.219 10.742 29.826 27.798 59.268 38.625 85.781a8.002 8.002 0 1 0 14.813-6.031c-11.461-28.066-28.345-57.34-38.375-85.189-10.03-27.846-13.2-53.059.406-75.5 13.77-22.713 45.296-45.148 80.656-61.813s74.559-27.848 102.563-30.5a8.002 8.002 0 0 0-.969-15.969z"/><path d="M235.068.165a8 8 0 0 0-.032 16c107.906 5.717 193.349 92.906 196.875 200.906s-76.072 200.602-183.375 213.344S42.183 371.769 20.317 265.946C-1.548 160.126 61.095 55.339 164.661 24.509a8.004 8.004 0 1 0-4.563-15.344C48.709 42.322-18.856 155.381 4.66 269.195c23.517 113.816 130.373 190.799 245.781 177.094C365.85 432.586 451.702 332.726 447.91 216.57 444.118 100.412 351.935 6.342 235.879.194a7.855 7.855 0 0 0-.812 0z"/><path d="M209.443.352a7.835 7.835 0 0 0-.531 0c-7.166.48-14.32 1.296-21.406 2.469a8.014 8.014 0 0 0 2.625 15.812 207.263 207.263 0 0 1 19.844-2.312 8.005 8.005 0 0 0-.52-16h-.011z"/></g><path d="M339.662 72.79a8 8 0 0 0-4.906 14.28 176.016 176.016 0 0 1 37.688 42.219 8 8 0 0 0 11.047 2.453 8.002 8.002 0 0 0 2.453-11.047 192.045 192.045 0 0 0-41.125-46.063 8.005 8.005 0 0 0-5.156-1.844v.002zm66.437 119.219a8.001 8.001 0 0 0-7.563 9.157 175.953 175.953 0 0 1 1.219 32.063 8.012 8.012 0 0 0 16 .848 191.824 191.824 0 0 0-1.344-34.969 8 8 0 0 0-8.313-7.094z" fill="#fff"/></svg>