<svg enable-background="new 0 0 448.032 448.032" viewBox="0 0 448.032 448.032" xmlns="http://www.w3.org/2000/svg"><g transform="translate(0 -1020.36)"><path d="m436.008 1244.232c0 117.166-94.916 212.148-212 212.148s-212-94.982-212-212.148 94.916-212.148 212-212.148 212 94.982 212 212.148z" fill="#ee746c"/><path d="m426.108 1239.283c-.001 108.568-87.951 196.58-196.444 196.58s-196.443-88.012-196.444-196.58c0-108.568 87.95-196.582 196.443-196.582h.001c108.493 0 196.444 88.011 196.444 196.582z" fill="#fb9761"/><g fill="#5a3392"><path d="m336.099 1052.212c-1.809-.02-3.572.574-5 1.686 0 0-32.205 24.234-69.438 57.063s-79.517 73.914-100.563 109.846c-18.687 31.9-32.472 82.928-42.125 126.531-9.653 43.602-14.844 79.623-14.844 79.623-.861 4.334 1.954 8.545 6.289 9.406 4.334.861 8.545-1.955 9.406-6.289.053-.266.092-.533.118-.803 0 0 5.142-35.496 14.656-78.469 9.514-42.975 23.728-93.596 40.313-121.906 18.943-32.34 60.613-73.553 97.344-105.938s68.469-56.279 68.469-56.279c3.572-2.602 4.36-7.605 1.76-11.178-1.488-2.045-3.856-3.264-6.385-3.291z"/><path d="m39.599 1132.244c-4.413.232-7.801 4-7.568 8.412.099 1.873.853 3.652 2.13 5.025 0 0 71.542 79.242 120.719 112.125 38.569 25.791 115.018 50.727 168.719 65.438 52.397 14.359 80.094 31.719 80.094 31.719 3.754 2.338 8.693 1.191 11.031-2.563s1.191-8.693-2.563-11.031c0 0-30.099-18.707-84.313-33.563-52.909-14.494-129.882-40.402-164.094-63.281-45.132-30.18-117.75-109.594-117.75-109.594-1.613-1.824-3.971-2.814-6.405-2.687z"/><path d="m115.537 1052.244c-4.415.182-7.846 3.91-7.664 8.324.044 1.068.302 2.115.757 3.082 23.678 52.027 26.918 112.656 1.938 157.313-9.094 16.258-21.15 29.088-34.875 37.75-13.725 8.66-29.145 13.342-60.625 17.563-4.387.564-7.485 4.578-6.92 8.965s4.579 7.486 8.966 6.92c.026-.002.053-.006.079-.01 32.37-4.34 50.852-9.697 67.031-19.906 16.179-10.211 30.028-25.084 40.313-43.469 28.233-50.471 24.031-115.992-1.344-171.75-1.323-3.021-4.363-4.917-7.656-4.782z"/><path d="m431.693 1180.244c-.187-.006-.375-.006-.563 0-30.753 2.912-70.896 14.557-107.844 31.969s-70.698 40.289-87.5 68c-16.966 27.98-12.555 59.395-1.813 89.219 10.742 29.826 27.798 59.268 38.625 85.781 1.534 4.145 6.137 6.26 10.281 4.727 4.144-1.535 6.26-6.137 4.726-10.281-.06-.16-.124-.32-.194-.477-11.461-28.066-28.345-57.34-38.375-85.189-10.03-27.846-13.2-53.059.406-75.5 13.77-22.713 45.296-45.148 80.656-61.813s74.559-27.848 102.563-30.5c4.404-.359 7.683-4.221 7.323-8.625-.349-4.275-4.007-7.514-8.292-7.344z"/><path d="m235.068 1020.525c-4.419.04-7.968 3.654-7.928 8.072.039 4.35 3.547 7.871 7.896 7.928 107.906 5.717 193.349 92.906 196.875 200.906s-76.072 200.602-183.375 213.344-206.353-58.646-228.219-164.469c-21.865-105.82 40.778-210.607 144.344-241.437 4.244-1.236 6.682-5.68 5.445-9.924s-5.68-6.682-9.924-5.445c-.028.009-.056.017-.084.025-111.389 33.157-178.954 146.216-155.438 260.03 23.517 113.816 130.373 190.799 245.781 177.094 115.409-13.703 201.261-113.563 197.469-229.719-3.792-116.158-95.975-210.228-212.031-216.376-.271-.014-.542-.014-.812 0z"/><path d="m209.443 1020.712c-.177-.006-.354-.006-.531 0-7.166.48-14.32 1.296-21.406 2.469-4.366.725-7.318 4.852-6.593 9.218.725 4.367 4.852 7.318 9.218 6.594 6.58-1.088 13.19-1.862 19.844-2.312 4.418-.144 7.884-3.842 7.74-8.261-.144-4.418-3.842-7.883-8.26-7.739-.004 0-.007 0-.011 0z"/></g><g fill="#fff"><path d="m339.662 1093.15c-4.419.029-7.977 3.635-7.948 8.053.016 2.43 1.135 4.721 3.042 6.227 14.759 11.949 27.484 26.205 37.688 42.219 2.373 3.729 7.319 4.826 11.047 2.453s4.826-7.318 2.453-11.047c-11.132-17.471-25.024-33.029-41.125-46.063-1.448-1.201-3.274-1.855-5.156-1.844v.002z"/><path d="m406.099 1212.369c-4.414.195-7.835 3.932-7.64 8.346.012.271.038.543.077.811 1.383 10.631 1.789 21.357 1.219 32.063-.234 4.418 3.158 8.189 7.576 8.424s8.19-3.158 8.424-7.576c.622-11.678.165-23.371-1.344-34.969-.473-4.184-4.107-7.285-8.313-7.094z"/></g></g></svg>