<svg enable-background="new 0 0 512 512" viewBox="0 0 512 512" xmlns="http://www.w3.org/2000/svg"><circle cx="256" cy="256" fill="#9ae3c3" r="256"/><path d="m337.956 308.966h-163.912c-8.714 0-16.125-6.358-17.45-14.97l-17.362-112.847c-8.226-53.474 33.146-101.699 87.25-101.699h59.037c54.103 0 95.476 48.225 87.25 101.699l-17.362 112.847c-1.326 8.611-8.737 14.97-17.451 14.97z" fill="#ff5050"/><path d="m176.552 308.966h158.897v79.448h-158.897z" fill="#dc3c3c"/><path d="m176.552 308.966h52.966v79.448h-52.966z" fill="#c33232"/><path d="m203.034 308.966h-33.544c-6.52 0-12.51-3.594-15.578-9.347l-47.782-89.591c-9.646-18.087-1.916-40.558 16.815-48.884l4.881-2.169c20.537-9.128 44.264 3 48.894 24.993z" fill="#dc3c3c"/><path d="m164.953 209.069-4.733-47.97c-9.431-5.641-21.33-7.042-32.395-2.125l-4.881 2.169c-2.035.904-3.879 2.044-5.645 3.258l18.726 51.266c6.03 16.508 30.654 10.891 28.928-6.598z" fill="#c33232"/><path d="m335.448 370.759h-158.896v-44.138h158.897c4.875 0 8.828 3.953 8.828 8.828v26.483c-.001 4.874-3.954 8.827-8.829 8.827z" fill="#fff"/><path d="m335.448 406.069h-158.896c-4.875 0-8.828-3.953-8.828-8.828 0-4.875 3.953-8.828 8.828-8.828h158.897c4.875 0 8.828 3.953 8.828 8.828-.001 4.875-3.954 8.828-8.829 8.828z" fill="#fff"/><path d="m176.552 326.621h52.966v44.138h-52.966z" fill="#ffebdc"/><path d="m220.69 397.241c0-4.875 3.951-8.828 8.828-8.828h-52.966c-4.876 0-8.828 3.953-8.828 8.828s3.951 8.828 8.828 8.828h52.966c-4.877 0-8.828-3.953-8.828-8.828z" fill="#ffebdc"/><path d="m221.441 293.995-17.362-112.847c-8.076-52.502 31.692-99.83 84.344-101.538-.975-.032-1.921-.161-2.905-.161h-59.037c-54.103 0-95.476 48.225-87.25 101.699l17.361 112.847c1.325 8.613 8.736 14.97 17.45 14.97h64.849c-8.714.001-16.125-6.358-17.45-14.97z" fill="#dc3c3c"/><path d="m341.259 220.694c-.448 0-.9-.034-1.357-.104-4.819-.742-8.12-5.25-7.38-10.069l5.35-34.745c1.617-10.535.061-21.181-4.509-30.784-2.094-4.401-.224-9.668 4.177-11.763 4.392-2.087 9.668-.224 11.763 4.177 6.094 12.81 8.177 27.009 6.017 41.056l-5.349 34.75c-.673 4.362-4.432 7.482-8.712 7.482z" fill="#ff7c7c"/><path d="m317.775 123.844c-1.574 0-3.164-.418-4.604-1.302-4.69-2.874-9.775-4.988-15.116-6.284-4.742-1.146-7.651-5.918-6.5-10.655 1.155-4.742 5.935-7.663 10.655-6.5 7.134 1.728 13.927 4.552 20.185 8.388 4.16 2.548 5.461 7.982 2.914 12.138-1.662 2.72-4.563 4.215-7.534 4.215z" fill="#ff9696"/><path d="m335.448 450.207h-158.896c-4.875 0-8.828-3.953-8.828-8.828 0-4.875 3.953-8.828 8.828-8.828h158.897c4.875 0 8.828 3.953 8.828 8.828-.001 4.875-3.954 8.828-8.829 8.828z" fill="#7dc8af"/></svg>