<?xml version="1.0" encoding="iso-8859-1"?>
<!-- Generator: Adobe Illustrator 19.0.0, SVG Export Plug-In . SVG Version: 6.00 Build 0)  -->
<svg version="1.1" id="Layer_1" xmlns="http://www.w3.org/2000/svg" xmlns:xlink="http://www.w3.org/1999/xlink" x="0px" y="0px"
	 viewBox="0 0 512 512" style="enable-background:new 0 0 512 512;" xml:space="preserve">
<circle style="fill:#9AE3C3;" cx="256" cy="256" r="256"/>
<path style="fill:#FF5050;" d="M337.956,308.966H174.044c-8.714,0-16.125-6.358-17.45-14.97l-17.362-112.847
	c-8.226-53.474,33.146-101.699,87.25-101.699h59.037c54.103,0,95.476,48.225,87.25,101.699l-17.362,112.847
	C354.081,302.607,346.67,308.966,337.956,308.966z"/>
<rect x="176.552" y="308.966" style="fill:#DC3C3C;" width="158.897" height="79.448"/>
<rect x="176.552" y="308.966" style="fill:#C33232;" width="52.966" height="79.448"/>
<path style="fill:#DC3C3C;" d="M203.034,308.966H169.49c-6.52,0-12.51-3.594-15.578-9.347l-47.782-89.591
	c-9.646-18.087-1.916-40.558,16.815-48.884l4.881-2.169c20.537-9.128,44.264,3,48.894,24.993L203.034,308.966z"/>
<path style="fill:#C33232;" d="M164.953,209.069l-4.733-47.97c-9.431-5.641-21.33-7.042-32.395-2.125l-4.881,2.169
	c-2.035,0.904-3.879,2.044-5.645,3.258l18.726,51.266C142.055,232.175,166.679,226.558,164.953,209.069z"/>
<g>
	<path style="fill:#FFFFFF;" d="M335.448,370.759H176.552v-44.138h158.897c4.875,0,8.828,3.953,8.828,8.828v26.483
		C344.276,366.806,340.323,370.759,335.448,370.759z"/>
	<path style="fill:#FFFFFF;" d="M335.448,406.069H176.552c-4.875,0-8.828-3.953-8.828-8.828l0,0c0-4.875,3.953-8.828,8.828-8.828
		h158.897c4.875,0,8.828,3.953,8.828,8.828l0,0C344.276,402.116,340.323,406.069,335.448,406.069z"/>
</g>
<g>
	<rect x="176.552" y="326.621" style="fill:#FFEBDC;" width="52.966" height="44.138"/>
	<path style="fill:#FFEBDC;" d="M220.69,397.241c0-4.875,3.951-8.828,8.828-8.828h-52.966c-4.876,0-8.828,3.953-8.828,8.828
		c0,4.875,3.951,8.828,8.828,8.828h52.966C224.641,406.069,220.69,402.116,220.69,397.241z"/>
</g>
<path style="fill:#DC3C3C;" d="M221.441,293.995l-17.362-112.847c-8.076-52.502,31.692-99.83,84.344-101.538
	c-0.975-0.032-1.921-0.161-2.905-0.161h-59.037c-54.103,0-95.476,48.225-87.25,101.699l17.361,112.847
	c1.325,8.613,8.736,14.97,17.45,14.97h64.849C230.177,308.966,222.766,302.607,221.441,293.995z"/>
<path style="fill:#FF7C7C;" d="M341.259,220.694c-0.448,0-0.9-0.034-1.357-0.104c-4.819-0.742-8.12-5.25-7.38-10.069l5.35-34.745
	c1.617-10.535,0.061-21.181-4.509-30.784c-2.094-4.401-0.224-9.668,4.177-11.763c4.392-2.087,9.668-0.224,11.763,4.177
	c6.094,12.81,8.177,27.009,6.017,41.056l-5.349,34.75C349.298,217.574,345.539,220.694,341.259,220.694z"/>
<path style="fill:#FF9696;" d="M317.775,123.844c-1.574,0-3.164-0.418-4.604-1.302c-4.69-2.874-9.775-4.988-15.116-6.284
	c-4.742-1.146-7.651-5.918-6.5-10.655c1.155-4.742,5.935-7.663,10.655-6.5c7.134,1.728,13.927,4.552,20.185,8.388
	c4.16,2.548,5.461,7.982,2.914,12.138C323.647,122.349,320.746,123.844,317.775,123.844z"/>
<path style="fill:#7DC8AF;" d="M335.448,450.207H176.552c-4.875,0-8.828-3.953-8.828-8.828l0,0c0-4.875,3.953-8.828,8.828-8.828
	h158.897c4.875,0,8.828,3.953,8.828,8.828l0,0C344.276,446.254,340.323,450.207,335.448,450.207z"/>
<g>
</g>
<g>
</g>
<g>
</g>
<g>
</g>
<g>
</g>
<g>
</g>
<g>
</g>
<g>
</g>
<g>
</g>
<g>
</g>
<g>
</g>
<g>
</g>
<g>
</g>
<g>
</g>
<g>
</g>
</svg>
