<svg enable-background="new 0 0 512.002 512.002" viewBox="0 0 512.002 512.002" xmlns="http://www.w3.org/2000/svg"><path d="m404.453 259.581h-85.331-85.334-85.331-53.334v186.595c0 30.336 24.818 55.156 55.154 55.156h231.023c30.333 0 55.154-24.821 55.154-55.156v-186.595z" fill="#fcd051"/><path d="m63.12 195.576h405.331v64.003h-405.331z" fill="#d12d4e"/><path d="m43.609 71.132h405.345v63.999h-405.345z" fill="#d12d4e" transform="matrix(.9521 -.3059 .3059 .9521 -19.7418 80.2782)"/><g fill="#000003"><path d="m247.757 312.916h.256c5.891 0 10.667-4.778 10.667-10.667 0-5.892-4.777-10.667-10.667-10.667h-.256c-5.891 0-10.667 4.776-10.667 10.667-.001 5.89 4.776 10.667 10.667 10.667z"/><path d="m137.789 312.911h79.322c5.892 0 10.667-4.777 10.667-10.667 0-5.892-4.776-10.667-10.667-10.667h-79.322c-5.892 0-10.667 4.776-10.667 10.667s4.776 10.667 10.667 10.667z"/><path d="m356.925 355.581h.253c5.892 0 10.667-4.777 10.667-10.667 0-5.892-4.776-10.667-10.667-10.667h-.253c-5.891 0-10.667 4.776-10.667 10.667 0 5.89 4.777 10.667 10.667 10.667z"/><path d="m137.789 355.577h188.491c5.892 0 10.667-4.777 10.667-10.667 0-5.892-4.776-10.667-10.667-10.667h-188.491c-5.892 0-10.667 4.776-10.667 10.667 0 5.89 4.776 10.667 10.667 10.667z"/><path d="m393.789 376.906h-256c-5.892 0-10.667 4.776-10.667 10.667 0 5.889 4.776 10.667 10.667 10.667h117.333v60.424c0 5.889 4.776 10.667 10.667 10.667 5.892 0 10.667-4.778 10.667-10.667v-60.424h117.33c5.891 0 10.667-4.778 10.667-10.667.003-5.892-4.774-10.667-10.664-10.667z"/><path d="m479.067 194.526c-.016-.16-.046-.319-.068-.477-.027-.186-.048-.371-.085-.555-.035-.181-.084-.356-.129-.533-.041-.16-.075-.321-.123-.479-.053-.175-.118-.341-.179-.512-.058-.158-.11-.317-.174-.473-.066-.158-.143-.313-.217-.467-.076-.16-.147-.323-.23-.479-.08-.148-.171-.289-.256-.433-.093-.155-.18-.313-.282-.463-.107-.159-.224-.308-.337-.461-.095-.125-.182-.254-.284-.378-.221-.271-.456-.529-.702-.778 0 0-.003-.004-.004-.006-.006-.004-.013-.011-.019-.015-.244-.244-.498-.473-.764-.691-.119-.098-.246-.183-.371-.277-.156-.116-.307-.236-.467-.343-.147-.098-.299-.183-.449-.273-.149-.09-.294-.183-.449-.265-.15-.081-.304-.148-.459-.221-.162-.077-.322-.158-.489-.227-.147-.061-.296-.109-.445-.162-.179-.065-.357-.133-.542-.19-.145-.044-.291-.075-.438-.112-.191-.05-.379-.102-.574-.14-.163-.033-.33-.052-.495-.077-.178-.025-.355-.059-.537-.077-.284-.027-.569-.037-.852-.042-.065-.002-.129-.011-.195-.011h-337.249l321.086-103.154c.269-.085.526-.19.783-.295.061-.025.124-.044.186-.068.403-.175.787-.375 1.16-.592.091-.052.176-.112.266-.166.291-.183.572-.377.842-.586.094-.073.188-.142.279-.217.334-.275.654-.564.95-.875.037-.039.07-.083.108-.125.265-.288.51-.59.74-.902.073-.1.145-.201.214-.302.253-.371.492-.75.696-1.146 0 0 .002-.004.002-.006.006-.011.011-.022.017-.035.154-.3.292-.608.417-.923.061-.153.106-.306.158-.459.061-.177.126-.35.177-.531.05-.175.086-.352.127-.529.037-.162.08-.323.11-.488.031-.175.05-.35.073-.527.023-.169.05-.339.064-.511.014-.166.015-.332.02-.496.006-.183.018-.367.015-.553-.003-.158-.019-.317-.028-.477-.012-.188-.019-.375-.041-.564-.021-.175-.055-.348-.083-.523-.029-.169-.05-.337-.086-.507-.066-.304-.148-.604-.241-.902-.012-.037-.018-.075-.029-.112l-19.575-60.933c-.867-2.694-2.766-4.934-5.283-6.226-2.515-1.294-5.444-1.534-8.137-.669l-60.887 19.562c-.03.011-.06.019-.09.029l-81.18 26.081c-.015.004-.029.009-.044.013l-81.111 26.061c-.07.02-.141.044-.211.067l-81.096 26.054c-.028.011-.058.019-.085.027l-81.182 26.083c-.339.109-.673.234-1.001.375-.037.017-.071.035-.109.052-.282.125-.558.26-.827.409-.046.027-.089.057-.134.083-.256.148-.51.3-.753.468-.031.021-.06.046-.09.068-.254.179-.502.365-.739.566-.017.015-.031.029-.047.044-.246.21-.485.431-.714.667-.017.019-.032.037-.049.057-.222.231-.435.47-.638.725-.046.059-.084.121-.129.179-.165.219-.332.437-.481.671-.193.295-.371.604-.534.921-.162.319-.308.644-.438.973-.093.238-.167.477-.243.717-.029.094-.066.183-.092.275-.084.295-.15.594-.207.892-.007.039-.02.081-.028.121-.054.306-.092.612-.119.916-.003.039-.012.079-.015.116-.023.289-.029.579-.028.867 0 .061-.006.121-.005.179.005.267.027.531.051.796.009.083.009.166.018.247.029.254.076.507.124.756.018.092.026.183.047.275.073.339.162.677.27 1.008l19.062 59.331v62.338c0 .262.021.518.038.776.006.085.005.171.014.254.023.254.067.502.109.75.016.094.023.188.043.282.048.244.111.479.175.717.027.098.047.198.076.295.067.225.15.446.233.665.039.107.075.214.117.321.085.208.185.409.283.608.055.114.105.229.164.341.106.198.224.387.341.577.065.107.124.217.194.321.148.221.309.431.473.642.051.067.096.135.148.201.452.553.958 1.058 1.511 1.51.079.065.163.118.244.181.196.15.389.3.596.437.121.081.246.15.371.225.173.107.343.214.523.31.134.07.273.131.41.196.178.085.353.175.537.25.135.057.275.1.413.153.19.068.378.14.57.198.143.044.287.073.429.111.193.05.384.102.58.142.171.033.343.054.516.079.171.025.339.057.512.073.336.033.675.05 1.012.052.013 0 .023.002.036.002h21.333v175.927c0 36.294 29.527 65.824 65.821 65.824h231.023c36.294 0 65.821-29.53 65.821-65.824v-175.927h21.331c5.891 0 10.667-4.778 10.667-10.667v-64.003c0-.352-.019-.702-.053-1.052zm-134.193 54.387 42.665-42.668h55.159l-42.665 42.668zm-85.333 0 42.667-42.668h55.16l-42.665 42.668zm-85.332 0 42.666-42.668h55.16l-42.667 42.668zm-79.086 0h-6.245l42.666-42.668h55.159l-42.666 42.668zm28.726-128.862 53.669 27.571-52.513 16.869-53.672-27.569zm81.246-26.101 53.669 27.571-52.52 16.874-53.67-27.571zm81.236-26.098 53.672 27.569-52.516 16.872-53.669-27.571zm81.246-26.104 53.67 27.573-52.515 16.869-53.673-27.569zm-271.3 131.975-26.259 8.436-8.436-26.256zm-22.487 32.523h27.581l-27.581 27.58zm357.205-155.903-34.693-17.822 26.256-8.436zm-5.208 395.833c0 24.531-19.957 44.489-44.486 44.489h-231.024c-24.53 0-44.486-19.958-44.486-44.489v-175.928h319.997zm10.667-197.263h-6.248l27.58-27.581v27.581z"/></g></svg>