<svg viewBox="0 0 423.703 423.703" xmlns="http://www.w3.org/2000/svg"><circle cx="211.852" cy="208.497" fill="#afebff" r="208.496"/><path d="M252.384 48.436c.721-6.43 4.885-16.804 4.332-20.491-1.652-11.01-11.083-11.435-12.891-10.547-4.348 1.631-12.852 3.386-17.627 4.304a19.231 19.231 0 0 0-8.367 2.467c-10.369 5.887-13.321 20.266-6.592 32.117s20.589 16.685 30.958 10.797c5.936-3.37 9.427-9.527 10.077-16.396.005.015.011.029.015.044-.005-.086.002-.188-.001-.277a24.5 24.5 0 0 0 .096-2.018zM237.28 58.855c-6.321 3.44-14.675.47-18.75-6.708-4.116-7.249-2.31-16.044 4.032-19.646 6.343-3.601 14.821-.644 18.936 6.604 4.116 7.249 2.31 16.044-4.032 19.646a5.781 5.781 0 0 1-.186.104" fill="#3d3c3c"/><path d="M420.347 208.497C420.347 93.347 327.002 0 211.853 0c-1.743 0-3.482.023-5.215.067-17.706 50.268-34.633 99.939-34.633 99.939l18.735 60.696-47.294 103.595 2.054 60.97-20.171 72.974c26.358 12.039 55.656 18.753 86.524 18.753 115.149 0 208.494-93.348 208.494-208.497z" fill="#9ba2a8"/><path d="m385.498 148.653 19.253-10.589-156.938-95.378-75.668 56.909-.141.412 18.735 60.696-.31.56 129.603-28.442zM247.531 261.306l-103.989 3.069 1.956 60.892-1.058 3.833 82.099-23.85 155.841 23.226a213.74 213.74 0 0 0 1.698-2.449z" fill="#505b66"/><path d="M255.453 194.056c6.641-18.805 45.52-60.251 79.564-5.781 39.607 54.067-97.418 56.342-79.564 5.781z" fill="#29546c"/><path d="M335.017 188.275c-3.017-4.118-6.049-7.568-9.074-10.44a88.67 88.67 0 0 1 3.484 4.451c36.755 50.173-61.508 63.091-74.949 10.226a45.44 45.44 0 0 0-1.159 1.544c10.147 52.766 121.305 48.286 81.698-5.781z" fill="#00b5ae" opacity=".25"/><g fill="#f4b7a9"><path d="M280.373 245.414c2.574 7.631-1.526 15.903-9.157 18.476-7.631 2.573-15.903-1.525-18.476-9.156l-8.624-25.57c-2.574-7.632 1.525-15.904 9.155-18.476 7.631-2.573 15.903 1.525 18.478 9.156z"/><path d="M280.373 245.414c2.574 7.631-1.526 15.903-9.157 18.476-7.631 2.573-15.903-1.525-18.476-9.156l-8.624-25.57c-2.574-7.632 1.525-15.904 9.155-18.476 7.631-2.573 15.903 1.525 18.478 9.156z" opacity=".41"/><path d="M344.684 247.768c0-.846-.042-1.682-.105-2.513.062-.481.105-.967.105-1.465v-47.063c0-6.26-5.074-11.335-11.335-11.335s-11.335 5.075-11.335 11.335v19.209c-.186-.061-1.439.057-1.627 0v-19.209c0-6.26-4.007-11.335-10.267-11.335s-11.335 5.075-11.335 11.335v19.209h-1.627v-19.209c0-6.26-4.007-11.335-10.267-11.335s-11.335 5.075-11.335 11.335v19.209c-.203.061-1.471-.066-1.673 0v-19.209c0-6.26-4.007-11.335-10.267-11.335s-11.335 5.075-11.335 11.335v47.063c0 .498.043.984.105 1.465a33.183 33.183 0 0 0-.105 2.513c0 13.047 7.607 24.317 18.628 29.618v131.109a207.502 207.502 0 0 0 55.145-25.551V277.387c11.023-5.302 18.63-16.572 18.63-29.619z"/></g><path d="M344.684 196.727c0-6.26-5.074-11.335-11.335-11.335a11.29 11.29 0 0 0-7.906 3.222 11.332 11.332 0 0 1 1.826-.161c6.26 0 11.335 5.075 11.335 11.335v51.041c0 13.047-7.607 24.317-18.628 29.618v105.558a207.814 207.814 0 0 1-17.637 10.359 207.953 207.953 0 0 0 23.718-13.421V277.387c11.021-5.301 18.628-16.572 18.628-29.618l-.001-51.042z" fill="#c9978c" opacity=".39"/><path d="M332.264 315.066c0 9.994-8.1 18.094-18.093 18.094h-31.995c-9.993 0-18.093-8.1-18.093-18.094v-18.063c0-9.994 8.1-18.093 18.093-18.093h31.995c9.993 0 18.093 8.1 18.093 18.093z" fill="#f9d363"/><path d="M324.909 282.464a17.99 17.99 0 0 1 3.553 10.737v18.063c0 9.994-8.1 18.094-18.093 18.094h-31.995a17.993 17.993 0 0 1-10.738-3.554c3.296 4.455 8.572 7.357 14.54 7.357h31.995c9.993 0 18.093-8.1 18.093-18.094v-18.063c0-5.968-2.901-11.245-7.355-14.54z" fill="#f9d363" opacity=".26"/><path d="M220.324 54.485c2.68-1.92 6.719-2.012 9.911-1.007 8.416 2.65 12.195 14.463 8.441 26.385s-13.619 19.439-22.035 16.789-15.729-22.707-2.909-36.988z" style="fill:none;stroke:#fff;stroke-width:6.6095;stroke-linecap:round;stroke-linejoin:round;stroke-miterlimit:10"/><path d="M256.716 27.945c-1.652-11.01-11.083-11.435-12.891-10.547-4.348 1.631-12.852 3.386-17.627 4.304a19.231 19.231 0 0 0-8.367 2.467c-10.369 5.887-13.321 20.266-6.592 32.117 5.639 9.932 16.124 14.992 25.528 12.886-.091-.291.155-4.816-2.983-9.147-5.712 1.194-11.838-1.861-15.254-7.878-4.116-7.249-2.31-16.044 4.032-19.646 6.343-3.601 14.821-.644 18.936 6.604 3.619 6.374 2.937 13.82-1.66 18.003.35.293 3.027 6.54 3.314 9.346 5.579-3.435 8.494-9.128 9.122-15.766.005.015.011.029.015.044-.005-.086.002-.188-.001-.277a25.04 25.04 0 0 0 .096-2.02c.722-6.428 4.886-16.803 4.332-20.49z" fill="#3d3c3c"/><circle cx="246.553" cy="26.196" fill="#1b1919" r="3.683"/><path d="M218.495 89.18c-3.761-.472-7.28 1.942-8.139 5.634l-66.558 286.073-7.851 33.75a7.364 7.364 0 0 0 5.503 8.84l.145.034a7.363 7.363 0 0 0 8.839-5.503l7.517-32.313L226.2 92.358a1.904 1.904 0 0 0-1.553-2.314 210.667 210.667 0 0 0-6.152-.864z" fill="#ea7053"/><path d="M224.607 90.039a1.909 1.909 0 0 0-2.145 1.454l-67.365 289.54-8.748 37.607c-.125.538-.771 1.074-1.509 1.431-.92.445-2.012.347-2.873-.205l-3.134-2.012a1.928 1.928 0 0 0-2.314 1.44s1.001 2.352 4.069 3.982c5.32 1.488 9.03-1.759 10.08-6.276l7.282-31.306 68.248-293.335a1.905 1.905 0 0 0-1.591-2.32z" fill="#f2aa99" opacity=".48"/></svg>