<svg viewBox="0 0 496 496" xmlns="http://www.w3.org/2000/svg"><path d="M0 248.085C0 111.064 111.07.003 248.076.003c137.012 0 248.082 111.061 248.082 248.082 0 137.002-111.07 248.07-248.082 248.07C111.07 496.155 0 385.087 0 248.085z" fill="#25b7d3"/><g fill="#fff"><path d="M182.195 138.792c0-12.797 10.386-23.182 23.183-23.182h152.021c12.797 0 23.183 10.385 23.183 23.182v152.313a23.182 23.182 0 0 1-23.183 23.182H205.377a23.182 23.182 0 0 1-23.182-23.182zm23.183-3.312a3.312 3.312 0 0 0-3.312 3.312v152.313a3.304 3.304 0 0 0 3.311 3.312H357.4a3.312 3.312 0 0 0 3.312-3.312V138.792a3.312 3.312 0 0 0-3.312-3.312z" fill-rule="evenodd"/><path d="M115.576 231.507a23.182 23.182 0 0 1 23.183-23.195h19.936a9.935 9.935 0 1 1 0 19.87H138.76a3.312 3.312 0 0 0-3.312 3.312l.066 125.872a3.304 3.304 0 0 0 3.312 3.312H264.67a3.312 3.312 0 0 0 3.312-3.312v-20.003a9.935 9.935 0 1 1 19.87 0v20.003a23.182 23.182 0 0 1-23.182 23.182H138.825a23.182 23.182 0 0 1-23.182-23.182z"/></g></svg>