<svg viewBox="0 0 496 496" xmlns="http://www.w3.org/2000/svg"><path d="m0 248.085c0-137.021 111.07-248.082 248.076-248.082 137.012 0 248.082 111.061 248.082 248.082 0 137.002-111.07 248.07-248.082 248.07-137.006 0-248.076-111.068-248.076-248.07z" fill="#25b7d3"/><g fill="#fff"><path d="m182.19536 138.79176c0-12.79654 10.3856-23.18214 23.18214-23.18214h152.02188c12.79654 0 23.18214 10.3856 23.18214 23.18214v152.31331a23.18214 23.18214 0 0 1 -23.18214 23.18214h-152.02188a23.18214 23.18214 0 0 1 -23.18214-23.18214zm23.18214-3.31173a3.31173 3.31173 0 0 0 -3.31173 3.31173v152.31331c0 1.84132 1.48366 3.31173 3.31173 3.31173h152.02188a3.31173 3.31173 0 0 0 3.31173-3.31173v-152.31331a3.31173 3.31173 0 0 0 -3.31173-3.31173z" fill-rule="evenodd"/><path d="m115.5765 231.50709a23.18214 23.18214 0 0 1 23.18214-23.19539h19.93664a9.9352 9.9352 0 1 1 0 19.87041h-19.93664a3.31173 3.31173 0 0 0 -3.31173 3.31173l.06623 125.87242c0 1.82808 1.47041 3.31173 3.31173 3.31173h125.84593a3.31173 3.31173 0 0 0 3.31173-3.31173v-20.00288a9.9352 9.9352 0 1 1 19.87041 0v20.00288a23.18214 23.18214 0 0 1 -23.18214 23.18214h-125.84593a23.18214 23.18214 0 0 1 -23.18214-23.18214z"/></g></svg>