<svg viewBox="0 0 496 496" xmlns="http://www.w3.org/2000/svg" xml:space="preserve" version="1.1">

  <g>
    <path id="svg_1" fill="#25B7D3"
      d="m0,248.085c0,-137.021 111.07,-248.082 248.076,-248.082c137.012,0 248.082,111.061 248.082,248.082c0,137.002 -111.07,248.07 -248.082,248.07c-137.006,0 -248.076,-111.068 -248.076,-248.07z" />
    <g id="svg_2">
      <path fill="#ffffff" id="svg_3"
        d="m182.19536,138.79176c0,-12.79654 10.3856,-23.18214 23.18214,-23.18214l152.02188,0c12.79654,0 23.18214,10.3856 23.18214,23.18214l0,152.31331a23.18214,23.18214 0 0 1 -23.18214,23.18214l-152.02188,0a23.18214,23.18214 0 0 1 -23.18214,-23.18214l0,-152.31331zm23.18214,-3.31173a3.31173,3.31173 0 0 0 -3.31173,3.31173l0,152.31331c0,1.84132 1.48366,3.31173 3.31173,3.31173l152.02188,0a3.31173,3.31173 0 0 0 3.31173,-3.31173l0,-152.31331a3.31173,3.31173 0 0 0 -3.31173,-3.31173l-152.02188,0z"
        fill-rule="evenodd" />
      <path fill="#ffffff" id="svg_4"
        d="m115.5765,231.50709a23.18214,23.18214 0 0 1 23.18214,-23.19539l19.93664,0a9.9352,9.9352 0 1 1 0,19.87041l-19.93664,0a3.31173,3.31173 0 0 0 -3.31173,3.31173l0.06623,125.87242c0,1.82808 1.47041,3.31173 3.31173,3.31173l125.84593,0a3.31173,3.31173 0 0 0 3.31173,-3.31173l0,-20.00288a9.9352,9.9352 0 1 1 19.87041,0l0,20.00288a23.18214,23.18214 0 0 1 -23.18214,23.18214l-125.84593,0a23.18214,23.18214 0 0 1 -23.18214,-23.18214l-0.06623,-125.85917z" />
    </g>
  </g>
</svg>
