<svg viewBox="0 0 72 72" xmlns="http://www.w3.org/2000/svg"><path d="m33.4616 49.3909 17.8607-17.9007c.8893-.8893 1.2242-2.3232 1.0304-3.5849l-9.9481 2.2024s-.5705.2321-.7619.0407l-29.2482 29.2482 2.1947 2.1664c1.7008 1.7007 4.3214 1.9873 5.9547.7405z" fill="#6a462f"/><path d="m62.6198 12.061c-.1089-.4229-.337-.8348-.6804-1.1782l-.6997-.6997-19.767 19.767c.0045.0045.2926.2923.2974.2964.1987.1716.6346.0314.6346.0314l9.9481-2.2024c-.1191-.775-.4376-1.5492-.9498-2.2354l-.017-.0194c-.1276-.173-.1882-.376-.1826-.5701.0028-.097.0222-.1919.0581-.2797s.0883-.1685.157-.2373l10.7336-10.7335c.0999-.0999.1857-.2092.2578-.3257.2161-.3498.3077-.7653.2789-1.189-.0097-.1413-.0328-.2835-.069-.4244z" fill="#d22f27"/><path d="m41.756 30.2335c-.1913-.1913.5227-.6485.5227-.6485l2.2024-9.9481c-.3729.0298-.1789.0721.0137.1269-.1926-.0547-.3865-.0971-.5806-.1269-1.2617-.1938-2.5255.1411-3.4148 1.0304l-30.4984 30.4983c-1.5975 1.5975-1.4061 4.4031.4255 6.2347l2.0813 2.0813z" fill="#a57939"/><path d="m41.7117 29.585s-.147.4572.0443.6485l19.7671-19.767-.4163-.4163c-.4579-.4579-1.0375-.7108-1.6025-.7493-.2825-.0193-.5614.015-.8195.1041-.2582.0891-.4956.2328-.6953.4325l-10.7302 10.7301-.0141.0138c-.0688.0688-.1499.1196-.2382.1531-.1766.0671-.3821.0651-.5764-.0004-.0972-.0327-.1915-.0814-.278-.1451-.3434-.2568-.709-.465-1.0858-.6239-.1884-.0795-.3795-.1465-.5721-.2013-.1926-.0547-.3866-.0971-.5806-.1269z" fill="#ea5a47"/><circle cx="27.4" cy="56.025" fill="#d0cfce" r="5"/><path d="m30.0906 51.8151c.4978.7773.7901 1.699.7901 2.6905 0 2.7614-2.2386 5-5 5-.9916 0-1.9132-.2923-2.6905-.7902.8886 1.3874 2.44 2.3094 4.2099 2.3094 2.7614 0 5-2.2386 5-5-.0001-1.7697-.9221-3.3211-2.3095-4.2097z" fill="#9b9b9a"/><g style="fill:none;stroke:#000;stroke-linecap:round;stroke-linejoin:round;stroke-miterlimit:10;stroke-width:2"><path d="m20.1808 61.2592-.0381.0381c-1.5975 1.5975-4.2117 1.5975-5.8092 0l-1.8154-1.8154-1.8154-1.8154c-1.5975-1.5975-1.5975-4.2117 0-5.8092l30.4983-30.4983c.8894-.8894 2.0938-1.2836 3.2625-1.1827.719.062 1.4244.3115 2.0346.7483.3076.2168.748.1983 1.0232-.0769l.0141-.0138 10.7301-10.7301c.7988-.7988 2.1059-.7987 2.9046 0l.3631.3631.3631.3631c.7988.7988.7988 2.1058 0 2.9046l-10.7335 10.7333c-.2752.2752-.3167.712-.0999 1.0196l.0146.0171c.4356.6096.6843 1.314.7463 2.0319.1008 1.1687-.2934 2.3731-1.1828 3.2624l-17.8945 17.8946"/><circle cx="27.5081" cy="56.0011" r="5"/></g></svg>