<svg viewBox="0 0 512 512" xmlns="http://www.w3.org/2000/svg"><circle cx="256" cy="256" fill="#fff59b" r="256"/><path d="M3.87 300.138C24.796 420.477 129.676 512 256 512s231.204-91.523 252.13-211.862z" fill="#ffd782"/><path d="M220.69 344.276H79.448a8.829 8.829 0 0 1 0-17.656H220.69a8.829 8.829 0 0 1 0 17.656zm211.862 0H291.31a8.829 8.829 0 0 1 0-17.656h141.241a8.829 8.829 0 0 1 .001 17.656z" fill="#ffb469"/><path d="M480.103 379.586a255.557 255.557 0 0 0 8.894-17.655H23.004a255.1 255.1 0 0 0 8.893 17.655z" fill="#6ec8e6"/><path d="M70.761 432.552c5.888 6.181 12.06 12.087 18.535 17.655h333.407c6.476-5.568 12.647-11.474 18.535-17.655z" fill="#ff5550"/><path d="M349.432 494.345c12.628-4.958 24.792-10.84 36.349-17.655H126.219c11.556 6.815 23.721 12.697 36.349 17.655zm70.362-201.552-49.035-32.69v-65.897a8.828 8.828 0 0 0-17.656 0v65.897l-49.035 32.69a8.828 8.828 0 0 0-2.449 12.242 8.817 8.817 0 0 0 7.353 3.933 8.79 8.79 0 0 0 4.888-1.484l48.069-32.046 48.07 32.046a8.781 8.781 0 0 0 4.888 1.484 8.813 8.813 0 0 0 7.353-3.933 8.826 8.826 0 0 0-2.446-12.242z" fill="#46415f"/><path d="M150.069 344.276c-43.808 0-79.448-35.64-79.448-79.448s35.64-79.448 79.448-79.448 79.448 35.64 79.448 79.448-35.64 79.448-79.448 79.448zm0-141.242c-34.073 0-61.793 27.721-61.793 61.793s27.72 61.793 61.793 61.793 61.793-27.721 61.793-61.793-27.72-61.793-61.793-61.793z" fill="#413241"/><circle cx="150.069" cy="264.828" fill="#46415f" r="61.793"/><path d="M361.931 344.276c-43.808 0-79.448-35.64-79.448-79.448s35.64-79.448 79.448-79.448 79.448 35.64 79.448 79.448-35.64 79.448-79.448 79.448zm0-141.242c-34.073 0-61.793 27.721-61.793 61.793s27.72 61.793 61.793 61.793 61.793-27.721 61.793-61.793-27.72-61.793-61.793-61.793z" fill="#413241"/><path d="M361.931 176.552a8.829 8.829 0 0 1 0-17.656c2.435 0 4.414-1.978 4.414-4.414s-1.978-4.414-4.414-4.414h-17.655v17.655a8.829 8.829 0 0 1-17.656 0V141.24a8.829 8.829 0 0 1 8.828-8.828h26.483c12.168 0 22.069 9.901 22.069 22.069s-9.901 22.071-22.069 22.071z" fill="#46415f"/><path d="m370.447 262.505-26.483-97.103c-.01-.035-.026-.066-.038-.102a8.754 8.754 0 0 0-1.116-2.429c-.038-.057-.074-.115-.113-.171a8.71 8.71 0 0 0-.789-.981c-.053-.056-.109-.109-.163-.164-.119-.121-.233-.246-.36-.362-.158-.143-.324-.273-.49-.403-.044-.035-.085-.073-.13-.107a8.817 8.817 0 0 0-1.064-.685l-.194-.103a8.92 8.92 0 0 0-1.185-.518c-.017-.006-.033-.009-.05-.014a8.858 8.858 0 0 0-1.244-.316c-.06-.011-.118-.025-.178-.034a8.777 8.777 0 0 0-1.283-.107c-.042-.001-.081-.01-.121-.01H196.808l-12.591-22.035a8.826 8.826 0 0 0-12.044-3.285 8.828 8.828 0 0 0-3.286 12.044l25.752 45.067-51.631 68.843a8.827 8.827 0 0 0 7.062 14.123h97.105a8.826 8.826 0 0 0 6.531-2.89l77.459-85.204 22.252 81.589a8.83 8.83 0 0 0 8.511 6.507 8.87 8.87 0 0 0 2.327-.313c4.702-1.28 7.476-6.133 6.192-10.837zM229.517 256h-61.793l36.458-48.611 28.017 49.028a8.833 8.833 0 0 0-2.682-.417zm19.293-6.098-41.913-73.351h108.596z" fill="#6ec8e6"/><path d="M119.474 255.996a8.831 8.831 0 0 1-7.629-13.255 44.375 44.375 0 0 1 16.151-16.142c4.22-2.453 9.625-.995 12.061 3.224 2.44 4.22.995 9.621-3.224 12.061a26.684 26.684 0 0 0-9.711 9.711 8.83 8.83 0 0 1-7.648 4.401z" fill="#567795"/><path d="M150.069 308.966c-15.699 0-30.34-8.448-38.216-22.047a8.824 8.824 0 0 1 3.215-12.061 8.82 8.82 0 0 1 12.061 3.215c4.728 8.163 13.517 13.237 22.94 13.237 4.655 0 9.233-1.224 13.237-3.539 4.207-2.44 9.617-1 12.061 3.224 2.44 4.22 1 9.617-3.224 12.061a44.13 44.13 0 0 1-22.074 5.91z" fill="#4e5c7a"/><path d="M203.034 150.069h-31.656a17.535 17.535 0 0 1-12.483-5.173l-6.241-6.241c-3.448-3.448-3.448-9.035 0-12.483s9.035-3.448 12.483 0l6.241 6.241h31.656a8.829 8.829 0 0 1 0 17.656z" fill="#46415f"/><path d="M273.655 291.31h-10.763l-1.103-4.414c7.145-4.748 11.866-12.866 11.866-22.069 0-14.603-11.881-26.483-26.483-26.483s-26.483 11.88-26.483 26.483c0 13.757 10.545 25.092 23.974 26.36l1.1 4.403a17.63 17.63 0 0 0 17.128 13.375h10.764a8.829 8.829 0 0 0 0-17.655zm-35.31-26.482c0-4.867 3.96-8.828 8.828-8.828 4.867 0 8.828 3.96 8.828 8.828s-3.96 8.828-8.828 8.828c-4.868-.001-8.828-3.961-8.828-8.828z" fill="#413241"/><path d="M397.241 414.897H326.62a8.829 8.829 0 0 1 0-17.656h70.621a8.829 8.829 0 0 1 0 17.656z" fill="#fff59b"/><path d="M211.862 414.897h-61.793a8.829 8.829 0 0 1 0-17.656h61.793a8.829 8.829 0 0 1 0 17.656zm-97.103 0h-8.828a8.829 8.829 0 0 1 0-17.656h8.828a8.829 8.829 0 0 1 0 17.656z" fill="#ffc373"/><path d="M291.31 414.897h-8.828a8.829 8.829 0 0 1 0-17.656h8.828a8.829 8.829 0 0 1 0 17.656z" fill="#fff59b"/></svg>