<svg viewBox="-65 -65 650 650" xmlns="http://www.w3.org/2000/svg"><path d="m400.021 503.931 24.003-200.03-24.003 8.001-24.003-8.001-24.003 8.001-24.003-8.001-24.003 8.001-24.003-8.001-24.003 8.001L232 303.901l-24.003 8.001-24.003-8.001-24.003 8.001-24.003-8.001-24.003 8.001-24.003-8.001 23.999 200.03c-.004 0 287.039-1 288.04 0z" fill="#ed1e79"/><circle cx="255.997" cy="71.868" fill="#c1272d" r="24.003"/><path d="M111.977 479.93h288.04v24.003h-288.04z" fill="#93278f"/><path d="M111.977 479.93h40.004v24.003h-40.004z" fill="#6e1d6b"/><path d="M364.224 479.93h40.004v24.003h-40.004z" fill="#be7dbc"/><path d="M255.999 47.863c-4.394 0-8.458 1.267-12.002 3.329 7.145 4.159 12.002 11.813 12.002 20.674s-4.857 16.516-12.002 20.674c3.543 2.061 7.607 3.329 12.002 3.329 13.257 0 24.003-10.746 24.003-24.003s-10.746-24.003-24.003-24.003z" fill="#ff1d25"/><path d="M312.007 175.881H199.991c-13.257 0-24.003-10.747-24.003-24.003 0-13.257 10.747-24.003 24.003-24.003h112.017c13.257 0 24.003 10.747 24.003 24.003 0 13.257-10.747 24.003-24.004 24.003z" fill="#ff7bac"/><path d="M312.007 127.57H264c13.257 0 24.003 11.359 24.003 24.616S277.257 176.802 264 176.802h48.008c13.257 0 24.003-11.359 24.003-24.616s-10.747-24.616-24.004-24.616z" fill="#ff95bd"/><path d="M296.005 127.875h-80.012c-8.838 0-16.003-7.165-16.003-16.003 0-8.838 7.165-16.003 16.003-16.003h80.012c8.838 0 16.003 7.165 16.003 16.003-.001 8.838-7.166 16.003-16.003 16.003z" fill="#ff7bac"/><path d="M296.005 113.237c0 8-6.485 14.333-14.486 14.333h16.003c8.001 0 14.421-6.181 14.421-14.181v-3.034c0-8-6.42-14.21-14.421-14.21h-16.003c8.001 0 14.486 6.271 14.486 14.272" fill="#ff95bd"/><path d="M103.976 311.929c0-55.517 34.218-112.082 84.059-135.127h135.939c49.835 23.045 84.047 79.609 84.047 135.127z" fill="#93278f"/><path d="M323.975 176.802h-48.008c49.833 23.045 84.047 79.609 84.047 135.127h48.008c0-55.517-34.213-112.082-84.047-135.127z" fill="#a952a5"/><path d="M183.988 176.802h48.008c-49.833 23.045-84.047 79.609-84.047 135.127H99.941c0-55.517 34.214-112.082 84.047-135.127z" fill="#6e1d6b"/><path d="m111.977 312.226 24.003 168.349h-24.003L87.974 304.387zm56.009-1.194h16.003v24.003h-16.003zm120.022 0h16.003v24.003h-16.003zm112.013 1.194-24.005 168.349h24.005l24.003-176.188z" fill="#d4145a"/><path d="m205.564 229.446-11.112-11.109 16-16.004 11.112 11.108z" fill="#ff1d25"/><path d="m301.576 285.453-11.112-11.108 16-16.005 11.112 11.109z" fill="#fff"/><path d="m277.58 229.442-11.112-11.108 16-16.005 11.111 11.109z" fill="#fbb03b"/><path d="m250.453 261.44-16.002-16.002 11.11-11.11 16.002 16.003z" fill="#29abe2"/><path d="m202.433 285.453-16.003-16.002 11.11-11.11 16.003 16.002zm168.043 7.999-16.003-16.002 11.11-11.11 16.003 16.003z" fill="#fbb03b"/><path d="m346.472 253.44-16.002-16.002 11.11-11.11 16.002 16.002z" fill="#29abe2"/><path d="m330.445 213.437-16.002-16.002 11.11-11.11 16.002 16.002z" fill="#ff1d25"/><path d="m157.521 269.446-11.108-11.111 16.004-16 11.109 11.111z" fill="#fff"/><path d="M415.308 298.617c-2.112-25.599-10.279-50.137-23.977-71.863a160.455 160.455 0 0 0-55.718-53.503c5.126-5.656 8.254-13.157 8.254-21.373 0-15.451-11.058-28.364-25.675-31.252a23.726 23.726 0 0 0 1.671-8.754c0-13.155-10.703-23.858-23.858-23.858h-12.558a31.653 31.653 0 0 0 4.412-16.148c0-14.857-10.224-27.369-24.003-30.877V27.86c0-6.699 5.449-12.148 12.148-12.148 6.698 0 12.147 5.449 12.147 12.148v4h15.712v-4C303.861 12.499 291.363 0 276.002 0s-27.86 12.499-27.86 27.86v13.128c-13.78 3.508-24.003 16.02-24.003 30.877a31.653 31.653 0 0 0 4.412 16.148h-12.558c-13.155 0-23.858 10.703-23.858 23.858 0 3.09.597 6.042 1.671 8.754-14.617 2.888-25.674 15.801-25.674 31.252 0 8.218 3.129 15.719 8.256 21.375a160.42 160.42 0 0 0-55.716 53.493c-13.699 21.723-21.866 46.263-23.98 71.858l-17.988-5.915L105.007 512h301.984l26.306-219.34zM255.999 55.718c8.904 0 16.147 7.243 16.147 16.147s-7.243 16.148-16.147 16.148-16.147-7.244-16.147-16.148 7.243-16.147 16.147-16.147zm-40.007 48.008h80.013c4.492 0 8.145 3.654 8.145 8.145 0 4.492-3.654 8.146-8.145 8.146h-80.013c-4.492 0-8.145-3.655-8.145-8.146s3.653-8.145 8.145-8.145zm-16.001 32.005h112.017c8.904 0 16.147 7.243 16.147 16.147s-7.243 16.147-16.147 16.147H199.991c-8.904 0-16.147-7.243-16.147-16.147-.001-8.904 7.243-16.147 16.147-16.147zm-66.03 99.398c13.913-22.063 34.794-40.606 58.014-52.438a31.689 31.689 0 0 0 8.016 1.046h112.017c2.76 0 5.43-.375 7.986-1.039 23.219 11.831 44.136 30.373 58.048 52.435 12.999 20.618 20.474 44.182 21.866 68.501l-23.885-7.988-24.006 7.989-24.004-8.009-23.777 7.922h-.455l-23.778-7.926L256 303.623l-24.003-8.002-24.003 8.001-24.004-8.002-24.003 8.002-24.003-8.002-23.888 7.963c1.397-24.3 8.871-47.849 21.865-68.454zm261.853 238.114h-52.447v15.712h50.562l-.88 7.332H118.948l-.88-7.332h210.634v-15.712H116.184L97.243 315.326l14.751 4.852 17.38-5.794 14.814 118.511 15.592-1.949-14.456-115.651 14.662 4.888 14.736-4.912v19.703h15.712V314.33l17.559 5.852 24.003-8.001 16.05 5.35v114.858h15.712V317.598l16.245-5.414 15.18 5.061v17.729h15.712V317.89l17.113-5.7 24.002 8.007 14.662-4.879-14.453 115.629 15.592 1.949 14.808-118.476 17.389 5.816 14.742-4.881z"/><path d="m253.553 197.44-11.11-11.11 16.003-16.002 11.11 11.11z" fill="#fff"/><path d="m170.433 213.439-16.002-16.002 11.11-11.11 16.002 16.002z" fill="#fbb03b"/><path d="m117.556 293.458-11.112-11.109 16-16.004 11.112 11.108z" fill="#29abe2"/></svg>