<svg height="768" viewBox="-1.56754602 -1.56754602 55.38662604 59.13519104" width="719" xmlns="http://www.w3.org/2000/svg"><path d="m16.0856 18.4939c-7.45788-2.5152-16.0856-2.2932-16.0856-2.2932v.5918c7.53098.4438 13.1609 3.7728 13.1609 3.7728 1.5355-1.1836 2.9247-2.0714 2.9247-2.0714z" fill="#fcaf17"/><path d="m42.4077 14.4994c2.1204-.222 4.1676-.222 6.6536.5918 0 0-1.6086-1.9234-4.3139-2.4413-1.4623-.2959-2.8515-.2219-3.4365-.2219-.0731 0 .6581 1.2576 1.0968 2.0714z" fill="#00bbe7"/><path d="m49.2072 16.6446c-2.1935-.8137-5.1912-.3699-5.8493-.2219l1.4624 3.033s2.559-.148 3.9482.5178c1.3892.5918 2.4129 4.2167-1.2429 7.1757l.1462.5918s4.1676-1.7014 4.5332-5.992c.2925-2.3673-.8043-4.3646-2.9978-5.1044z" fill="#0099d8"/><path d="m32.8294 31.0701c-2.1935-2.3673-5.045-5.2524-5.045-5.2524s-2.1935 1.4056-4.2407 3.181c0 0 6.7267 7.0278 11.2599 18.642h.4387c-.8043-6.8797-2.4129-16.5706-2.4129-16.5706z" fill="#fcaf17"/><path d="m21.4964.66578c-3.5096-.96168-2.9247 3.40291-2.9247 3.25496l.3656.22193c.2193-.66579.658-1.92339 2.3397-1.10965 1.3892.66579 4.3139 3.47689 6.8729 9.02508 4.2408 8.9511 6.1418 15.3871 9.2127 43.1282 0 0 1.6817-.074 3.4365-.5179 1.901-.4438 3.2171-1.1096 3.2171-1.1096-2.3397-18.1242-6.7998-34.251-13.0878-43.72-2.9247-4.43854-6.6536-8.43325-9.432-9.17302z" fill="#f15a22"/><path d="m51.4739 49.2682c-3.0709-18.4941-7.3848-31.218-15.062-41.35274-2.9978-3.92074-6.8729-6.65786-9.5051-7.4716-1.5355-.44386-3.144-.44386-3.144-.44386 2.9977.88771 6.3611 3.84676 10.1631 9.469 4.387 6.6578 10.2363 19.2338 13.5997 42.4623 0 0 1.3161-.7398 2.1935-1.3316.8774-.6657 1.7548-1.3315 1.7548-1.3315z" fill="#f15a22"/><path d="m9.1396 32.4015c5.1181-9.173 13.5265-13.1678 19.5952-15.1651-.2925-.8138-.7312-1.7754-1.0237-2.5152-4.6063 1.4055-12.9415 4.3646-19.15643 12.0581-6.36112 7.9155-5.77619 16.3488-5.26438 19.5297.4387 2.5892 2.04726 4.6605 2.04726 4.6605-.0731-3.033-1.02363-9.9867 3.80205-18.568z" fill="#00bbe7"/><path d="m22.7391 32.2537c-1.0237 8.0634-4.9719 15.0911-11.3331 17.6063 1.1699-6.8798 4.6064-20.5654 19.1565-27.2232-.2925-1.0357-.8043-2.4412-1.0236-3.181-15.3544 5.2523-21.27686 17.7543-21.93491 33.7332l2.92461 2.8111c10.1632-3.9948 14.2577-11.0965 12.7223-24.1163z" fill="#0099d8"/></svg>