<svg height="768" viewBox="-1.568 -1.568 55.387 59.135" width="719" xmlns="http://www.w3.org/2000/svg"><path d="M16.086 18.494C8.628 15.979 0 16.2 0 16.2v.592c7.531.443 13.16 3.772 13.16 3.772a45.648 45.648 0 0 1 2.926-2.071z" fill="#fcaf17"/><path d="M42.408 14.5c2.12-.223 4.167-.223 6.653.591 0 0-1.608-1.923-4.314-2.441-1.462-.296-2.851-.222-3.436-.222-.073 0 .658 1.258 1.097 2.071z" fill="#00bbe7"/><path d="M49.207 16.645c-2.193-.814-5.191-.37-5.85-.222l1.463 3.033s2.56-.148 3.949.518c1.389.591 2.412 4.216-1.243 7.175l.146.592s4.167-1.701 4.533-5.992c.293-2.367-.804-4.365-2.998-5.104z" fill="#0099d8"/><path d="M32.83 31.07a271.51 271.51 0 0 0-5.046-5.252s-2.193 1.405-4.24 3.18c0 0 6.726 7.029 11.26 18.643h.438c-.804-6.88-2.413-16.57-2.413-16.57z" fill="#fcaf17"/><path d="M21.496.666c-3.51-.962-2.924 3.403-2.924 3.255l.365.222c.22-.666.658-1.924 2.34-1.11 1.39.666 4.314 3.477 6.873 9.025 4.24 8.951 6.142 15.387 9.213 43.128 0 0 1.681-.074 3.436-.518 1.901-.443 3.217-1.11 3.217-1.11-2.34-18.123-6.8-34.25-13.088-43.72C28.004 5.4 24.275 1.407 21.496.667z" fill="#f15a22"/><path d="M51.474 49.268C48.403 30.774 44.089 18.05 36.412 7.915c-2.998-3.92-6.873-6.657-9.505-7.471C25.37 0 23.763 0 23.763 0c2.998.888 6.36 3.847 10.163 9.469 4.387 6.658 10.236 19.234 13.6 42.462 0 0 1.316-.74 2.193-1.331l1.755-1.332z" fill="#f15a22"/><path d="M9.14 32.401c5.118-9.173 13.526-13.167 19.595-15.165-.293-.813-.731-1.775-1.024-2.515-4.606 1.406-12.941 4.365-19.156 12.058-6.361 7.916-5.777 16.35-5.265 19.53.439 2.59 2.048 4.66 2.048 4.66-.074-3.033-1.024-9.986 3.802-18.568z" fill="#00bbe7"/><path d="M22.74 32.254c-1.025 8.063-4.973 15.09-11.334 17.606 1.17-6.88 4.606-20.565 19.157-27.223-.293-1.036-.805-2.441-1.024-3.181C14.184 24.708 8.262 37.21 7.604 53.189L10.529 56c10.163-3.995 14.257-11.096 12.722-24.116z" fill="#0099d8"/></svg>