<svg enable-background="new 0 0 512 512" viewBox="0 0 512 512" xmlns="http://www.w3.org/2000/svg"><path d="m388.867 336.704-32.235-60.51h-199.915l-32.568 61.138-41.839 78.537-47.163 88.533h443.055l-47.03-88.285z" fill="#ff5023"/><path d="m431.172 416.117-42.305-79.413-32.235-60.51h-50.633l12.341 23.167 42.305 79.414 47.03 88.284h-352.634l-19.894 37.343h443.055z" fill="#ab2300" opacity=".4"/><path d="m420.794 185.622v-117.66h28.366v273.858c0 9.099 4.895 17.495 12.813 21.977l22.982 13.009v13.284h-99.958v-13.284l22.982-13.009c7.918-4.482 12.813-12.878 12.813-21.977v-96.088z" fill="#ffcd00"/><path d="m91.082 124.577c90.204 90.204 239.528 90.204 329.732 0v-31.39c-90.204 90.204-239.528 90.204-329.732 0 0-.001 0 31.39 0 31.39z" fill="#ab2300"/><path d="m62.839 142.709v-75.279h28.366v274.39c0 9.099 4.895 17.495 12.813 21.977l22.982 13.008v13.284h-99.956v-13.283l22.982-13.009c7.918-4.482 12.813-12.878 12.813-21.977v-136.611z" fill="#ffcd00"/><path d="m62.839 79.811c4.284 2.088 9.096 3.262 14.183 3.262s9.899-1.174 14.183-3.263v-12.38h-28.366z" fill="#cca400"/><path d="m420.794 79.811c4.284 2.088 9.096 3.262 14.183 3.262s9.899-1.174 14.183-3.263v-12.38h-28.366z" fill="#cca400"/><path d="m434.977 7.598c17.904 0 32.419 14.514 32.419 32.419s-14.514 32.419-32.419 32.419-32.419-14.514-32.419-32.419c0-6.029 1.646-11.674 4.513-16.509.001 0 9.465-15.91 27.906-15.91z" fill="#ffcd00"/><path d="m77.022 7.598c17.904 0 32.419 14.514 32.419 32.419s-14.515 32.418-32.419 32.418-32.419-14.514-32.419-32.418c0-4.389.872-8.574 2.453-12.391 0 0 6.152-20.028 29.966-20.028z" fill="#ffcd00"/><path d="m77.022 80.033c-22.065 0-40.017-17.952-40.017-40.017 0-5.294 1.019-10.441 3.029-15.297 1.604-3.878 6.049-5.72 9.926-4.115s5.72 6.049 4.115 9.926c-1.244 3.005-1.874 6.196-1.874 9.485 0 13.686 11.134 24.82 24.82 24.82s24.82-11.135 24.82-24.82-11.134-24.82-24.82-24.82c-4.197 0-7.598-3.402-7.598-7.598s3.402-7.597 7.599-7.597c22.065 0 40.017 17.952 40.017 40.017s-17.951 40.016-40.017 40.016z"/><path d="m127 397.686h-99.957c-4.197 0-7.598-3.402-7.598-7.598v-13.283c0-2.737 1.473-5.264 3.856-6.612l22.983-13.009c5.525-3.127 8.959-9.015 8.959-15.365v-136.61c0-4.196 3.401-7.598 7.598-7.598s7.598 3.402 7.598 7.598v136.611c0 11.815-6.387 22.77-16.669 28.589l-19.127 10.827v1.254h84.761v-1.255l-19.126-10.827c-10.282-5.82-16.669-16.775-16.669-28.589v-271.526c0-4.196 3.401-7.598 7.598-7.598s7.598 3.402 7.598 7.598v271.527c0 6.35 3.433 12.237 8.959 15.365l22.982 13.009c2.383 1.348 3.856 3.875 3.856 6.612v13.282c-.004 4.196-3.404 7.598-7.602 7.598z"/><path d="m62.839 150.307c-4.197 0-7.598-3.402-7.598-7.598v-72.416c0-4.196 3.401-7.598 7.598-7.598s7.598 3.402 7.598 7.598v72.416c0 4.196-3.401 7.598-7.598 7.598z"/><path d="m434.977 80.033c-22.065 0-40.017-17.952-40.017-40.017 0-7.183 1.927-14.232 5.574-20.384 2.14-3.61 6.801-4.801 10.41-2.661s4.801 6.801 2.662 10.41c-2.258 3.808-3.451 8.178-3.451 12.635 0 13.686 11.134 24.82 24.82 24.82s24.82-11.135 24.82-24.82-11.134-24.82-24.82-24.82c-4.197 0-7.598-3.402-7.598-7.598s3.403-7.598 7.6-7.598c22.065 0 40.017 17.952 40.017 40.017s-17.951 40.016-40.017 40.016z"/><path d="m484.955 397.686h-99.958c-4.197 0-7.598-3.402-7.598-7.598v-13.283c0-2.737 1.473-5.264 3.856-6.612l22.983-13.009c5.525-3.127 8.959-9.015 8.959-15.365v-96.088c0-4.196 3.401-7.598 7.598-7.598s7.598 3.402 7.598 7.598v96.088c0 11.815-6.387 22.77-16.669 28.589l-19.127 10.827v1.254h84.761v-1.255l-19.126-10.827c-10.282-5.82-16.669-16.775-16.669-28.589v-271.525c0-4.196 3.401-7.598 7.598-7.598s7.598 3.402 7.598 7.598v271.527c0 6.35 3.433 12.237 8.959 15.365l22.982 13.009c2.383 1.348 3.856 3.875 3.856 6.612v13.282c-.003 4.196-3.404 7.598-7.601 7.598z"/><path d="m420.794 193.22c-4.197 0-7.598-3.402-7.598-7.598v-115.329c0-4.196 3.401-7.598 7.598-7.598s7.598 3.402 7.598 7.598v115.329c0 4.196-3.401 7.598-7.598 7.598z"/><path d="m478.201 512h-443.054c-2.668 0-5.14-1.399-6.515-3.688-1.373-2.288-1.446-5.128-.19-7.484l47.163-88.533c1.972-3.702 6.574-5.108 10.279-3.133 3.703 1.972 5.106 6.575 3.133 10.279l-41.212 77.362h417.741l-41.079-77.114c-1.972-3.704-.57-8.305 3.133-10.279 3.704-1.973 8.306-.57 10.279 3.133l47.03 88.285c1.254 2.355 1.182 5.195-.19 7.484-1.377 2.288-3.849 3.688-6.518 3.688z"/><path d="m124.141 344.932c-1.205 0-2.427-.288-3.566-.894-3.703-1.972-5.106-6.575-3.133-10.279l32.569-61.137c1.32-2.478 3.898-4.026 6.706-4.026h199.913c2.807 0 5.386 1.548 6.706 4.026l32.234 60.509c1.972 3.704.57 8.305-3.133 10.279-3.702 1.974-8.305.57-10.279-3.133l-30.09-56.483h-190.79l-30.424 57.112c-1.367 2.564-3.994 4.026-6.713 4.026z"/><path d="m256.698 199.827c-63.727 0-123.639-24.816-168.701-69.878-1.424-1.424-2.225-3.357-2.225-5.372v-31.39c0-3.074 1.851-5.843 4.691-7.02s6.106-.527 8.281 1.647c87.098 87.098 228.813 87.098 315.911 0 2.174-2.173 5.44-2.823 8.281-1.647 2.84 1.176 4.691 3.947 4.691 7.02v31.389c0 2.015-.8 3.948-2.225 5.372-45.065 45.063-104.977 69.879-168.704 69.879zm-155.731-78.428c86.523 84.167 224.937 84.167 311.461 0v-10.777c-43.287 37.409-97.94 57.816-155.731 57.816s-112.444-20.408-155.731-57.816v10.777z"/></svg>