<svg viewBox="0 0 512 512" xmlns="http://www.w3.org/2000/svg"><path d="m388.867 336.704-32.235-60.51H156.717l-32.568 61.138-41.839 78.537-47.163 88.533h443.055l-47.03-88.285z" fill="#ff5023"/><path d="m431.172 416.117-42.305-79.413-32.235-60.51h-50.633l12.341 23.167 42.305 79.414 47.03 88.284H55.041l-19.894 37.343h443.055z" fill="#ab2300" opacity=".4"/><path d="M420.794 185.622V67.962h28.366V341.82a25.254 25.254 0 0 0 12.813 21.977l22.982 13.009v13.284h-99.958v-13.284l22.982-13.009a25.254 25.254 0 0 0 12.813-21.977v-96.088z" fill="#ffcd00"/><path d="M91.082 124.577c90.204 90.204 239.528 90.204 329.732 0v-31.39c-90.204 90.204-239.528 90.204-329.732 0v31.39z" fill="#ab2300"/><path d="M62.839 142.709V67.43h28.366v274.39a25.254 25.254 0 0 0 12.813 21.977L127 376.805v13.284H27.044v-13.283l22.982-13.009a25.254 25.254 0 0 0 12.813-21.977V205.209z" fill="#ffcd00"/><path d="M62.839 79.811c4.284 2.088 9.096 3.262 14.183 3.262s9.899-1.174 14.183-3.263V67.43H62.839zm357.955 0c4.284 2.088 9.096 3.262 14.183 3.262s9.899-1.174 14.183-3.263V67.43h-28.366z" fill="#cca400"/><path d="M434.977 7.598c17.904 0 32.419 14.514 32.419 32.419s-14.514 32.419-32.419 32.419-32.419-14.514-32.419-32.419a32.265 32.265 0 0 1 4.513-16.509c.001 0 9.465-15.91 27.906-15.91zm-357.955 0c17.904 0 32.419 14.514 32.419 32.419S94.926 72.435 77.022 72.435 44.603 57.921 44.603 40.017c0-4.389.872-8.574 2.453-12.391 0 0 6.152-20.028 29.966-20.028z" fill="#ffcd00"/><path d="M77.022 80.033c-22.065 0-40.017-17.952-40.017-40.017a39.795 39.795 0 0 1 3.029-15.297 7.598 7.598 0 0 1 14.041 5.811 24.669 24.669 0 0 0-1.874 9.485c0 13.686 11.134 24.82 24.82 24.82s24.82-11.135 24.82-24.82-11.134-24.82-24.82-24.82A7.598 7.598 0 1 1 77.022 0c22.065 0 40.017 17.952 40.017 40.017S99.088 80.033 77.022 80.033z"/><path d="M127 397.686H27.043a7.598 7.598 0 0 1-7.598-7.598v-13.283a7.597 7.597 0 0 1 3.856-6.612l22.983-13.009a17.685 17.685 0 0 0 8.959-15.365v-136.61a7.598 7.598 0 1 1 15.196 0V341.82a32.903 32.903 0 0 1-16.669 28.589l-19.127 10.827v1.254h84.761v-1.255l-19.126-10.827a32.905 32.905 0 0 1-16.669-28.589V70.293a7.598 7.598 0 1 1 15.196 0V341.82c0 6.35 3.433 12.237 8.959 15.365l22.982 13.009a7.597 7.597 0 0 1 3.856 6.612v13.282a7.603 7.603 0 0 1-7.602 7.598z"/><path d="M62.839 150.307a7.598 7.598 0 0 1-7.598-7.598V70.293a7.598 7.598 0 1 1 15.196 0v72.416a7.598 7.598 0 0 1-7.598 7.598zm372.138-70.274c-22.065 0-40.017-17.952-40.017-40.017a39.99 39.99 0 0 1 5.574-20.384 7.6 7.6 0 0 1 13.072 7.749 24.782 24.782 0 0 0-3.451 12.635c0 13.686 11.134 24.82 24.82 24.82s24.82-11.135 24.82-24.82-11.134-24.82-24.82-24.82A7.598 7.598 0 1 1 434.977 0c22.065 0 40.017 17.952 40.017 40.017s-17.951 40.016-40.017 40.016z"/><path d="M484.955 397.686h-99.958a7.598 7.598 0 0 1-7.598-7.598v-13.283a7.597 7.597 0 0 1 3.856-6.612l22.983-13.009a17.685 17.685 0 0 0 8.959-15.365v-96.088a7.598 7.598 0 1 1 15.196 0v96.088a32.903 32.903 0 0 1-16.669 28.589l-19.127 10.827v1.254h84.761v-1.255l-19.126-10.827a32.905 32.905 0 0 1-16.669-28.589V70.293a7.598 7.598 0 1 1 15.196 0V341.82c0 6.35 3.433 12.237 8.959 15.365l22.982 13.009a7.597 7.597 0 0 1 3.856 6.612v13.282a7.602 7.602 0 0 1-7.601 7.598z"/><path d="M420.794 193.22a7.598 7.598 0 0 1-7.598-7.598V70.293a7.598 7.598 0 1 1 15.196 0v115.329a7.598 7.598 0 0 1-7.598 7.598zM478.201 512H35.147a7.6 7.6 0 0 1-6.705-11.172l47.163-88.533a7.599 7.599 0 0 1 13.412 7.146l-41.212 77.362h417.741l-41.079-77.114a7.6 7.6 0 0 1 13.412-7.146l47.03 88.285a7.605 7.605 0 0 1-.19 7.484 7.608 7.608 0 0 1-6.518 3.688zm-354.06-167.068a7.599 7.599 0 0 1-6.699-11.173l32.569-61.137a7.597 7.597 0 0 1 6.706-4.026H356.63a7.598 7.598 0 0 1 6.706 4.026l32.234 60.509a7.599 7.599 0 0 1-13.412 7.146l-30.09-56.483h-190.79l-30.424 57.112a7.598 7.598 0 0 1-6.713 4.026z"/><path d="M256.698 199.827c-63.727 0-123.639-24.816-168.701-69.878a7.599 7.599 0 0 1-2.225-5.372v-31.39a7.598 7.598 0 0 1 12.972-5.373c87.098 87.098 228.813 87.098 315.911 0a7.599 7.599 0 0 1 12.972 5.373v31.389c0 2.015-.8 3.948-2.225 5.372-45.065 45.063-104.977 69.879-168.704 69.879zm-155.731-78.428c86.523 84.167 224.937 84.167 311.461 0v-10.777c-43.287 37.409-97.94 57.816-155.731 57.816s-112.444-20.408-155.731-57.816v10.777z"/></svg>