<svg viewBox="0 0 500.8 500.8" xmlns="http://www.w3.org/2000/svg"><circle cx="250.4" cy="250.4" fill="#a9eae8" r="250.4"/><circle cx="273.6" cy="273.6" fill="#7dd1d1" r="214.4"/><path d="M500.8 234.4c-4-69.6-36.8-131.2-86.4-173.6-40 12.8-69.6 49.6-69.6 94.4v6.4h-.8c-12-16.8-32-28-55.2-28-24.8 0-46.4 13.6-58.4 33.6-4-.8-8-1.6-12.8-1.6-4 0-8 0-11.2.8-8-9.6-20-15.2-33.6-15.2-10.4 0-20.8 4-28 10.4-4.8-1.6-8.8-2.4-13.6-2.4-6.4-16.8-18.4-31.2-32.8-40.8V116c0-19.2-6.4-36.8-16-51.2C31.2 110.4 0 176.8 0 250.4v12c14.4 9.6 31.2 16 49.6 16 9.6 0 19.2-1.6 28-4.8 12 12.8 29.6 20.8 48.8 20.8 16 0 30.4-5.6 42.4-14.4 12.8 13.6 30.4 21.6 49.6 21.6 24 0 44.8-12.8 56.8-31.2C288 285.6 306.4 296 328 296c32.8 0 60-23.2 66.4-54.4 14.4 8 30.4 12.8 48 12.8 22.4-1.6 41.6-8 58.4-20z" fill="#eae9da"/><path d="M500.8 234.4c-4-69.6-36.8-131.2-86.4-173.6-40 12.8-69.6 49.6-69.6 94.4v6.4h-.8c-12-16.8-32-28-55.2-28-24.8 0-46.4 13.6-58.4 33.6-4-.8-8-1.6-12.8-1.6-4 0-8 0-11.2.8-8-9.6-20-15.2-33.6-15.2-10.4 0-20.8 4-28 10.4-4.8-1.6-8.8-2.4-13.6-2.4-6.4-16.8-18.4-31.2-32.8-40.8V116c0-19.2-6.4-36.8-16-51.2C31.2 110.4 0 176.8 0 250.4v12c14.4 9.6 31.2 16 49.6 16 9.6 0 19.2-1.6 28-4.8 12 12.8 29.6 20.8 48.8 20.8 16 0 30.4-5.6 42.4-14.4 12.8 13.6 30.4 21.6 49.6 21.6 24 0 44.8-12.8 56.8-31.2C288 285.6 306.4 296 328 296c32.8 0 60-23.2 66.4-54.4 14.4 8 30.4 12.8 48 12.8 22.4-1.6 41.6-8 58.4-20z" fill="#eae9da"/><path d="M499.2 222.4c.8 8.8 1.6 18.4 1.6 28 0 138.4-112 250.4-250.4 250.4-98.4 0-184-56.8-224.8-140C112.8 280 292 223.2 499.2 222.4z" fill="#493322"/><path d="M500.8 250.4c0 138.4-112 250.4-250.4 250.4-98.4 0-184-56.8-224.8-140" fill="#3a2819"/><path d="M1.6 222.4c-.8 8.8-1.6 18.4-1.6 28 0 138.4 112 250.4 250.4 250.4 98.4 0 184-56.8 224.8-140C388 280 208.8 223.2 1.6 222.4z" fill="#34b515"/><path d="M1.6 222.4c-.8 8.8-1.6 18.4-1.6 28 0 138.4 112 250.4 250.4 250.4 98.4 0 184-56.8 224.8-140C388 280 208.8 223.2 1.6 222.4z" fill="#1d7001"/><path d="M250.4 500.8c56.8 0 109.6-19.2 151.2-51.2-73.6-91.2-220-177.6-400-228-.8 8.8-1.6 18.4-1.6 28 0 139.2 112 251.2 250.4 251.2z" fill="#239b02"/><path d="M250.4 500.8c17.6 0 35.2-1.6 52.8-5.6-58.4-92.8-164.8-192.8-301.6-272.8-.8 8.8-1.6 18.4-1.6 28 0 138.4 112 250.4 250.4 250.4z" fill="#1d7001"/><path d="M3.2 222.4c-.8.8-1.6.8-1.6 1.6-.8 8.8-1.6 17.6-1.6 26.4 0 112.8 74.4 208 176.8 239.2-36-85.6-95.2-179.2-173.6-267.2z" fill="#239b02"/><path d="M338.4 162.4h112v80h-112z" fill="#493322"/><path d="M464.8 178.4H322.4l16-40h110.4z" fill="#493322"/><path d="M370.4 186.4h24v24h-24z" fill="#eae9da"/><path d="M184 191.2c8-52.8 40-110.4 76-124v-.8c30.4 22.4 44.8 87.2 37.6 140-8 52.8-35.2 78.4-71.2 91.2v.8-.8C196 276 176.8 244 184 191.2z" fill="#239b02"/><path d="M227.2 299.2c-.8 0-.8 0 0 0C196 276 176.8 244 184 191.2c8-52.8 40-110.4 76-124v-.8" fill="#34b515"/><path d="M164 269.6c-19.2-26.4-30.4-65.6-20.8-86.4 23.2-3.2 57.6 18.4 76.8 44.8s18.4 48.8 8.8 70.4c-23.2 3.2-45.6-2.4-64.8-28.8z" fill="#239b02"/><path d="M228.8 297.6c0 .8 0 .8 0 0-23.2 4-45.6-1.6-65.6-28-19.2-26.4-30.4-65.6-20.8-86.4" fill="#34b515"/></svg>