<svg viewBox="0 0 512 512" xmlns="http://www.w3.org/2000/svg"><path d="m127.841 411.331-64.347 79.934-49.958-40.218 64.346-79.933zm306.27-40.226 64.347 79.934-49.959 40.217-64.346-79.933z" fill="#e7eced"/><path d="m231.3 200.972 24.694-30.681L373.388 24.465s12.064-14.981 27.045-2.917c14.994 12.052 2.929 27.045 2.929 27.045L280.29 201.486l-24.489 30.412-69.586 86.455c35.332 39.058 35.654 98.892 1.58 141.227l-59.949-48.258-49.954-40.215-59.948-48.257c9.97-12.373 22.035-22.189 35.255-29.242 31.979-17.049 70.716-17.897 103.042.617z" fill="#989ea3"/><path d="M255.994 170.291 231.3 200.972 108.639 48.593s-12.064-14.994 2.929-27.045c14.981-12.064 27.045 2.917 27.045 2.917zm202.808 123.317c13.221 7.054 25.285 16.87 35.255 29.242l-59.949 48.258-49.954 40.215-59.949 48.258c-34.073-42.335-33.752-102.168 1.58-141.227l-68.879-85.569-1.105-.887 24.489-30.412 2.313 1.863 73.157 90.875c32.326-18.514 71.076-17.666 103.042-.616z" fill="#afb6bb"/><path d="m512 452.499-64.344-79.927 59.953-48.262-6.049-7.507a124.115 124.115 0 0 0-26.075-24.253l.721-.581-12.867-6.862-.001-.001h-.001c-33.481-17.858-72.153-18.862-105.037-3.093l-65.233-81.033L410.87 54.633c.741-.922 4.52-5.881 6.067-12.998 2.288-10.533-1.429-20.333-10.46-27.593-9.028-7.271-19.396-8.806-29.195-4.323-6.622 3.03-10.658 7.78-11.401 8.702L255.999 154.927 146.118 18.421c-7.281-9.04-24.097-17.665-40.587-4.384-9.039 7.264-12.756 17.066-10.466 27.599 1.547 7.117 5.326 12.076 6.068 13l117.8 146.34-65.231 81.037c-31.009-14.87-67.171-14.822-99.278.212l-.143-.114-5.523 2.946-.093.049-.003.001c-14.759 7.873-27.62 18.539-38.223 31.698l-6.049 7.507 59.953 48.262L0 452.499 64.967 504.8l64.344-79.93 59.949 48.259 6.042-7.507c17.912-22.256 27.631-49.947 27.365-77.975-.24-25.441-8.702-49.787-23.984-69.417l57.316-71.203 57.314 71.203c-15.282 19.632-23.743 43.977-23.984 69.417-.266 28.027 9.454 55.72 27.365 77.974l6.042 7.507 59.949-48.259 64.345 79.93zM116.217 42.642c-2.692-3.524-4.636-8.742 1.394-13.588 6.023-4.848 10.704-1.836 13.496 1.453l112.522 139.789-12.323 15.309zM62.04 477.702l-34.942-28.13 52.259-64.915 34.942 28.128zm117.03-152.885c30.058 33.228 32.454 82.727 6.93 120.946L31.831 321.66a103.886 103.886 0 0 1 20.445-16.425l102.676 82.643 12.084-15.014-95.502-76.868c26.65-9.529 55.625-7.322 79.917 6.59l7.138 4.088L380.892 30.508c.017-.021 1.844-2.09 4.409-3.265 2.157-.988 4.925-1.543 9.094 1.814 6.023 4.841 4.079 10.059 1.461 13.492L173.551 318.718zm153.86 0 5.517-6.099-70.078-87.059 12.325-15.311 72.715 90.326 7.137-4.088c24.297-13.916 53.271-16.126 79.919-6.591l-95.504 76.869 12.084 15.014 102.659-82.63a103.942 103.942 0 0 1 20.461 16.411L325.999 445.763c-25.522-38.219-23.126-87.718 6.931-120.946zm99.715 59.84 52.259 64.915-34.942 28.13-52.259-64.917z"/></svg>