<svg viewBox="0 0 512.001 512.001" xmlns="http://www.w3.org/2000/svg"><path d="M387.423 371.684 278.26 262.521v-95.563c0-24.549-19.972-44.522-44.522-44.522s-44.522 19.972-44.522 44.522v6.52L19.019 3.28l-.037-.037-.001-.001-.011-.01A11.093 11.093 0 0 0 11.13 0C4.983 0 0 4.983 0 11.13v272.696c0 58.305 47.435 105.739 105.739 105.739s105.739-47.435 105.739-105.739V227.22L256 271.742v84.432c0 6.147 4.983 11.13 11.13 11.13s11.13-4.983 11.13-11.13v-62.171l93.422 93.422c2.174 2.174 5.022 3.26 7.87 3.26s5.698-1.086 7.87-3.26c4.348-4.347 4.348-11.394.001-15.741zm-198.206-87.857c0 46.03-37.448 83.478-83.478 83.478s-83.478-37.448-83.478-83.478V38.004L189.217 204.96zm22.261-88.088v-28.781c0-12.275 9.986-22.261 22.261-22.261S256 154.683 256 166.958v73.302z" fill="#d8bf77"/><path d="M387.42 387.425c-2.174 2.173-5.022 3.26-7.87 3.26s-5.697-1.087-7.87-3.26l-93.419-93.419v-31.482l109.16 109.16c4.347 4.345 4.347 11.393-.001 15.741zM3.259 3.261c-4.346 4.346-4.344 11.396.002 15.744L256 271.745v-31.482L18.999 3.259c-4.348-4.348-11.394-4.343-15.74.002z" fill="#636363"/><path d="m415.646 368.424 86.575 86.575c13.04 13.04 13.04 34.183 0 47.222-13.04 13.04-34.183 13.04-47.222 0l-86.575-86.575c-13.04-13.04-13.04-34.183 0-47.222 13.039-13.04 34.182-13.04 47.222 0z" fill="#b94b00"/><path d="M502.221 454.998c.441.441.864.892 1.274 1.35-.411.459-.834.909-1.274 1.35-13.04 13.04-34.183 13.04-47.222 0l-86.575-86.575a33.575 33.575 0 0 1-1.274-1.35c.411-.459.834-.909 1.274-1.35 13.04-13.04 34.183-13.04 47.222 0z" fill="#ea5f00"/><path d="M278.26 378.435v89.043c0 24.55-19.972 44.522-44.522 44.522s-44.522-19.971-44.522-44.522v-28.78l-14.391 14.391c-4.346 4.346-11.394 4.346-15.742 0-4.346-4.346-4.346-11.394 0-15.742l33.391-33.391a11.13 11.13 0 0 1 19.001 7.87v55.652c0 12.274 9.986 22.261 22.261 22.261s22.261-9.987 22.261-22.261v-89.043c0-6.146 4.983-11.13 11.13-11.13s11.133 4.984 11.133 11.13z" fill="#636363"/><path d="M300.521 356.175c0 18.412-14.979 33.391-33.391 33.391s-33.391-14.979-33.391-33.391 14.979-33.391 33.391-33.391c18.411 0 33.391 14.979 33.391 33.391z" fill="#ff4800"/><path d="M289.391 350.61c0 9.206-7.49 16.696-16.696 16.696s-16.696-7.49-16.696-16.696 7.49-16.696 16.696-16.696c9.207 0 16.696 7.49 16.696 16.696z" fill="#ff7443"/></svg>