<svg xmlns="http://www.w3.org/2000/svg" viewBox="0 0 496.2 496.2" style="enable-background:new 0 0 496.2 496.2" xml:space="preserve"><path style="fill:#4abc96" d="M248.1 0C111.1 0 0 111.1 0 248.1s111.1 248.1 248.1 248.1 248.1-111.1 248.1-248.1S385.1 0 248.1 0z"/><path style="fill:#e6e7e8" d="M418.5 382.8c-8.5-27.3-81.2-49.3-170.8-49.3s-161.5 22-170 49.3c-2.6 8.5-5.5 22.2-8.3 37.4 45.1 46.9 108.5 76 178.7 76s133.6-29.2 178.7-76c-2.7-15.2-5.6-29-8.3-37.4z"/><path style="fill:#d4d6d8" d="m247.9 317-39.6 5.3 1.9 13.1 37.6 28.1 38.2-28.1 1.9-13.1z"/><path style="fill:#e2a379" d="M287 282.1h-77.8c12.1 36.6 1 53.3 1 53.3l26.9 6.1h22l26.9-6.1s-11.1-16.7 1-53.3z"/><path style="fill:#e6e7e8" d="m304.2 336.5-16.4-14.2-39.7 19.2-39.8-19.2-16.2 14.1-1.7 1.4s.4 127.4 57.7 127.4 57.7-127.4 57.7-127.4l-1.6-1.3z"/><circle style="fill:#9b9b9a" cx="294.6" cy="383.7" r="6"/><circle style="fill:#9b9b9a" cx="294.6" cy="430.2" r="6"/><circle style="fill:#9b9b9a" cx="294.6" cy="476.7" r="6"/><circle style="fill:#9b9b9a" cx="201.6" cy="383.7" r="6"/><circle style="fill:#9b9b9a" cx="201.6" cy="430.2" r="6"/><circle style="fill:#9b9b9a" cx="201.6" cy="476.7" r="6"/><path style="fill:#9b9b9a" d="M174.1 373.4v111.5c.9.3 1.8.5 2.7.8V373.4h-2.7z"/><path style="fill:#f4b382" d="M248.1 61.6c-48.7 0-88.3 21.2-88.3 113.6 0 31.3 6.2 55.8 15.5 74.7 20.4 41.6 55.7 56.1 72.8 56.1s52.4-14.5 72.8-56.1c9.3-18.9 15.5-43.4 15.5-74.7 0-92.4-39.6-113.6-88.3-113.6z"/><path style="fill:#141414" d="M248.1 59.1c-58 0-88.3 23.7-88.3 116.1l39.8-33.1h48.5c22 0 46.2-35.3 46.2-35.3l42.1 68.4c0-92.4-30.3-116.1-88.3-116.1z"/><path style="fill:#141414" d="m180.1 138.6-14.6 2.2c-4.2 10.9-5.6 24.4-5.6 37.5 0 0 8.8-1.9 8.8 2.6l2.8 27.6 3.9-1.9c-.4-23 4.7-68 4.7-68zm150.7 2.2-14.6-.4s5.1 43.2 4.9 66.2l3.9 1.9 2.8-27.6c0-4.5 8.8-2.6 8.8-2.6-.1-13.2-1.5-26.6-5.8-37.5z"/><path style="fill:#f5f6f7" d="M330.6 55.8h-165l-6.4 117.3H337z"/><path style="fill:#dedfe0" d="M247 103.2c-.6 0-1.1.5-1.1 1.1v60c0 .6.5 1.1 1.1 1.1s1.1-.5 1.1-1.1v-60c0-.6-.5-1.1-1.1-1.1zm-49.8 0c-.6 0-1.1.5-1.1 1.1v60c0 .6.5 1.1 1.1 1.1s1.1-.5 1.1-1.1v-60c0-.6-.5-1.1-1.1-1.1zm99.6 0c-.6 0-1.1.5-1.1 1.1v60c0 .6.5 1.1 1.1 1.1s1.1-.5 1.1-1.1v-60c0-.6-.5-1.1-1.1-1.1zm-25.1 16c-.6 0-1.1.4-1.1.8v44.5c0 .4.5.8 1.1.8s1.1-.4 1.1-.8V120c-.1-.4-.5-.8-1.1-.8zm-99.8 0c-.6 0-1.1.4-1.1.8v44.5c0 .4.5.8 1.1.8s1.1-.4 1.1-.8V120c-.1-.4-.6-.8-1.1-.8zm149.6 0c-.6 0-1.1.4-1.1.8v44.5c0 .4.5.8 1.1.8s1.1-.4 1.1-.8V120c0-.4-.5-.8-1.1-.8z"/><circle style="fill:#f5f6f7" cx="248.1" cy="51.4" r="40.4"/><circle style="fill:#f5f6f7" cx="302.8" cy="60.7" r="40.4"/><circle style="fill:#f5f6f7" cx="193.4" cy="60.7" r="40.4"/><path style="fill:#e5a173" d="M259.5 254.8c-3.3-.5-11.4 2.7-11.4 2.7s-8.3-3.1-11.6-2.7c-5.3.8-13.1 4.9-13.1 6.4 0 2.4 11 8.8 24.7 8.8s24.7-6.5 24.7-8.8c0 0-7.9-5.7-13.3-6.4z"/><path style="fill:#d89364" d="M248.1 262.4c-14.6 0-24.7-1.2-24.7-1.2 0 2.4 11 11.5 24.7 11.5s24.7-9.1 24.7-11.5c0 0-10.1 1.2-24.7 1.2z"/><path style="fill:#f4b382" d="M161.4 178c-8.4 1.4-14.9 5.1-10.1 32.9s10.7 29.1 19.1 27.7l-9-60.6zm173.5 0-9 60.6c8.4 1.4 14.3.1 19.1-27.7 4.7-27.8-1.7-31.4-10.1-32.9z"/><path style="fill:#141414" d="M247.9 246.1c-2-2-5.2-2-7.1-.1-2 2-4.9 3.6-8.1 4.7-3.2 1.1-6.7 1.8-10.3 2.1-3.6.4-7.3.4-11 .3s-7.4-.5-11.1-1.1c3.5 1.4 7.1 2.5 10.8 3.5s7.4 1.7 11.3 2.2c3.9.5 7.8.6 11.9.2 4.1-.4 8.4-1.5 12.4-3.9l.3-.2c.3-.2.7-.4.9-.7 1.9-1.8 1.9-5 0-7z"/><path style="fill:#141414" d="M284.9 253.2c-3.7.1-7.4.1-11-.3s-7.1-1-10.3-2.1c-3.2-1.1-6.1-2.7-8.1-4.7s-5.2-1.9-7.1.1c-1.9 2-1.9 5.2.1 7.1.3.3.6.5.9.7l.3.2c4 2.4 8.3 3.5 12.4 3.9s8.1.3 11.9-.2c3.9-.5 7.6-1.2 11.3-2.2 3.7-1 7.3-2.1 10.8-3.5-3.8.5-7.5.8-11.2 1z"/></svg>