<svg viewBox="0 0 512 512" xmlns="http://www.w3.org/2000/svg"><circle cx="256" cy="256" fill="#beebff" r="256"/><g fill="#d9f3ff"><path d="M105.931 194.207H52.966a8.829 8.829 0 0 1 0-17.656h52.966a8.829 8.829 0 0 1-.001 17.656z"/><path d="M141.241 176.552H88.276a8.829 8.829 0 0 1 0-17.656h52.966a8.829 8.829 0 0 1-.001 17.656zm300.138 97.103h-26.483a8.829 8.829 0 0 1 0-17.656h26.483a8.829 8.829 0 0 1 0 17.656z"/><path d="M459.034 256h-26.483a8.829 8.829 0 0 1 0-17.656h26.483a8.829 8.829 0 0 1 0 17.656zm-326.62 17.655H79.448a8.829 8.829 0 0 1 0-17.656h52.966a8.829 8.829 0 0 1 0 17.656zm291.31-61.793h-8.828a8.829 8.829 0 0 1 0-17.656h8.828a8.829 8.829 0 0 1 0 17.656z"/></g><path d="M7.555 317.793C35.206 429.318 135.927 512 256 512s220.794-82.682 248.445-194.207z" fill="#b4eb82"/><path d="M9.945 326.621h492.109c1.665-5.81 3.171-11.684 4.428-17.655H5.518c1.256 5.97 2.762 11.845 4.427 17.655zm290.193 105.931H185.379a8.829 8.829 0 0 1 0-17.656h114.759a8.829 8.829 0 0 1 0 17.656z" fill="#9bd26e"/><path d="M185.379 397.241h-17.655a8.829 8.829 0 0 1 0-17.656h17.655a8.829 8.829 0 0 1 0 17.656zm264.828-35.31h-35.31a8.829 8.829 0 0 1 0-17.656h35.31a8.829 8.829 0 0 1 0 17.656zm-44.138 35.31h-35.31a8.829 8.829 0 0 1 0-17.656h35.31a8.829 8.829 0 0 1 0 17.656zm-97.103 70.621h-61.793a8.829 8.829 0 0 1 0-17.656h61.793a8.829 8.829 0 0 1 0 17.656zm-97.104 0h-8.828a8.829 8.829 0 0 1 0-17.656h8.828a8.829 8.829 0 0 1 0 17.656zm-79.448-70.621h-35.31a8.829 8.829 0 0 1 0-17.656h35.31a8.829 8.829 0 0 1 0 17.656z" fill="#d7f082"/><path d="M344.276 432.552h-8.828a8.829 8.829 0 0 1 0-17.656h8.828a8.829 8.829 0 0 1 0 17.656z" fill="#9bd26e"/><path d="M291.31 52.966H256a8.829 8.829 0 0 1 0-17.656h35.31a8.829 8.829 0 0 1 0 17.656zm-70.62 0h-17.655a8.829 8.829 0 0 1 0-17.656h17.655a8.829 8.829 0 0 1 0 17.656z" fill="#ebf9ff"/><path d="M335.448 70.621h-52.966a8.829 8.829 0 0 1 0-17.656h52.966a8.829 8.829 0 0 1 0 17.656zm79.449 88.276h-61.793a8.829 8.829 0 0 1 0-17.656h61.793a8.829 8.829 0 0 1 0 17.656z" fill="#ebf9ff"/><path d="M432.552 141.241h-35.31a8.829 8.829 0 0 1 0-17.656h35.31a8.829 8.829 0 0 1 0 17.656z" fill="#ebf9ff"/><circle cx="256" cy="229.517" fill="#fff" r="141.241"/><path d="M185.379 229.517c0-65.79 45.046-120.91 105.931-136.612-11.306-2.915-23.094-4.629-35.31-4.629-78.005 0-141.241 63.236-141.241 141.241S177.995 370.759 256 370.759c12.216 0 24.004-1.714 35.31-4.629-60.885-15.702-105.931-70.823-105.931-136.613z" fill="#ffebdc"/><path d="M256 88.276c-78.005 0-141.241 63.236-141.241 141.241S177.995 370.759 256 370.759s141.241-63.236 141.241-141.241S334.005 88.276 256 88.276zm8.97 35.692 39.385-13.319 49.79 33.368-.092 44.774-38.936 9.428-50.147-37.48zm-60.942-14.275 43.287 14.408v36.386l-50.825 37.634-38.253-9.323-.089-45.049zm-60.572 186.036-15.881-56.301 25.402-33.737 36.295 8.845 19.681 61.998-22.662 33.239zm138.828 62.534c-.079.114-.094.25-.167.366h-54.965c-.073-.116-.087-.253-.167-.366l-26.423-38.079 21.242-31.158h67.915l19.148 30.925zM384.57 239.238l-18.53 56.417-42.77 14.023-20.33-32.833 19.903-62.335 36.46-8.829z" fill="#643c46"/><path d="M273.006 369.638c1.574-.189 3.115-.472 4.672-.713 4.607-.744 9.163-1.644 13.624-2.794l.007-.002a140.541 140.541 0 0 1-21.578-7.5h-42.579c-.073-.116-.087-.253-.167-.366l-26.423-38.079 8.508-12.478c-3.637-5.439-6.829-11.188-9.693-17.126l-13.085 19.192-42.837-14.045-15.881-56.301 25.402-33.737 33.372 8.134a140.471 140.471 0 0 1 3.033-17.434l-31.147-7.591-.089-45.049 45.881-34.056 32.945 10.966c15.668-12.878 34.094-22.532 54.337-27.753l-.007-.001c-4.454-1.149-9.002-2.047-13.602-2.791-1.567-.243-3.119-.527-4.704-.718-1.683-.214-3.384-.365-5.086-.518-3.936-.331-7.889-.602-11.911-.602-78.005 0-141.241 63.236-141.241 141.241S177.995 370.759 256 370.759c4.021 0 7.974-.273 11.908-.601 1.705-.154 3.412-.305 5.098-.52z" fill="#413241"/></svg>