<svg enable-background="new 0 0 512 512" viewBox="0 0 512 512" xmlns="http://www.w3.org/2000/svg"><circle cx="256" cy="256" fill="#324a5e" r="256"/><path d="m508.83 296.315-97.204-97.204-246.205 102.497-51.643 17.984 188.269 188.269c106.372-19.322 189.826-104.369 206.783-211.546z" fill="#2b3b4e"/><path d="m348.032 170.667h-177.365c-47.128 0-85.333 38.205-85.333 85.333s38.205 85.333 85.333 85.333c25.269 0 47.963-10.992 63.588-28.444h50.19c15.625 17.453 38.319 28.444 63.588 28.444 47.128 0 85.333-38.205 85.333-85.333s-38.205-85.333-85.334-85.333z" fill="#e6f3ff"/><path d="m348.032 170.667h-91.457v142.222h27.869c15.625 17.453 38.319 28.444 63.588 28.444 47.128 0 85.333-38.205 85.333-85.333s-38.204-85.333-85.333-85.333z" fill="#cfdbe6"/><circle cx="170.667" cy="256" fill="#cfdbe6" r="56.889"/><circle cx="348.039" cy="256" fill="#b8c9d9" r="56.889"/><path d="m194.1 246.519h-8.94c-2.767 0-5.011-2.243-5.011-5.011v-8.94c0-2.767-2.243-5.011-5.011-5.011h-8.94c-2.767 0-5.011 2.243-5.011 5.011v8.94c0 2.767-2.243 5.011-5.011 5.011h-8.94c-2.767 0-5.011 2.243-5.011 5.011v8.94c0 2.767 2.243 5.011 5.011 5.011h8.94c2.767 0 5.011 2.243 5.011 5.011v8.94c0 2.767 2.243 5.011 5.011 5.011h8.94c2.767 0 5.011-2.243 5.011-5.011v-8.94c0-2.767 2.243-5.011 5.011-5.011h8.94c2.767 0 5.011-2.243 5.011-5.011v-8.94c0-2.769-2.243-5.011-5.011-5.011z" fill="#778da0"/><circle cx="348.039" cy="234.606" fill="#4cdbc4" r="12.224"/><circle cx="348.039" cy="277.394" fill="#fff" r="12.224"/><circle cx="369.416" cy="256" fill="#fd8469" r="12.224"/><circle cx="326.646" cy="256" fill="#ff80aa" r="12.224"/><path d="m218.936 206.164c0-4.501 3.648-8.149 8.149-8.149h57.828c4.501 0 8.149 3.648 8.149 8.149 0 4.501-3.648 8.149-8.149 8.149h-57.828c-4.501 0-8.149-3.648-8.149-8.149z" fill="#cfdbe6"/><path d="m284.915 198.015h-28.339v16.3h28.339c4.501 0 8.149-3.648 8.149-8.149 0-4.504-3.648-8.151-8.149-8.151z" fill="#b8c9d9"/></svg>