<?xml version="1.0" encoding="iso-8859-1"?>
<!-- Generator: Adobe Illustrator 19.1.0, SVG Export Plug-In . SVG Version: 6.00 Build 0)  -->
<svg version="1.1" id="Capa_1" xmlns="http://www.w3.org/2000/svg" xmlns:xlink="http://www.w3.org/1999/xlink" x="0px"
  y="0px" viewBox="0 0 475.384 475.384" style="enable-background:new 0 0 475.384 475.384;" xml:space="preserve">
  <g>
    <g>
      <g>
        <circle style="fill:#F5ECE1;" cx="208.211" cy="237.692" r="208.211" />
      </g>
      <g>
        <circle style="fill:#F5ECE1;" cx="208.211" cy="237.692" r="208.211" />
      </g>
    </g>
    <path style="fill:#D1CAC0;"
      d="M332.197,331.981c0-10.264-44.758-18.585-99.97-18.585s-99.97,8.321-99.97,18.585
		c0,3.293,4.63,6.385,12.72,9.068c-29.076,3.25-48.534,9.171-48.534,15.938c0,10.262,44.798,16.488,99.97,18.583
		c54.815,2.082,99.895-7.927,99.97-18.583c0.023-3.295-4.632-6.387-12.72-9.07C312.739,344.667,332.197,338.747,332.197,331.981z" />
    <g>
      <path style="fill:#575756;" d="M472.937,353.083c-1.333,0.425-2.85,0.027-3.791-1.122L274.525,114.488
			c-1.231-1.502-1.011-3.718,0.491-4.95c1.502-1.231,3.718-1.011,4.95,0.491l194.621,237.474c1.231,1.502,1.011,3.718-0.491,4.95
			C473.742,352.743,473.348,352.952,472.937,353.083z" />
    </g>
    <g>
      <path style="fill:#AB4A45;" d="M274.481,232.233c46.716,42.961-211.026,72.584-240.723,48.929l17.979,28.545
			c59.364,68.189,293.77-21.073,263.808-48.126L274.481,232.233z" />
      <path style="fill:#E96660;" d="M80.402,430.47c2.991-67.206,207.784-191.29,235.796-168.248l-38.766-36.195
			C248.698,202.381,44.874,344.55,52.383,409.56l14.648-5.822L80.402,430.47z" />
    </g>
    <g>
      <path style="fill:#575756;" d="M266.787,123.103c-2.223,0-4.122-0.365-4.902-1.028l2.14-2.515
			c-0.088-0.075-0.151-0.105-0.151-0.105c0.908,0.43,6.475,0.831,9.93-1.249c1.601-0.964,2.417-2.277,2.494-4.014l3.299,0.147
			c-0.15,3.35-2.036,5.908-5.454,7.396C271.984,122.675,269.196,123.103,266.787,123.103z" />
    </g>
    <g>
      <path style="fill:#E96660;" d="M233.959,99.882C161.822,89.604,0.086,223.814,31.62,282.362l21.606,29.007
			c-23.771-43.015,123.161-171.226,200.649-177.932c9.219-12.803,11.068-16.039,17.541-21.588
			C271.417,111.851,242.965,101.166,233.959,99.882z M254.851,117.054c-3.338,0-6.045-1.457-6.045-3.255s2.706-3.255,6.045-3.255
			c3.338,0,6.045,1.457,6.045,3.255S258.189,117.054,254.851,117.054z" />
    </g>
    <g>
      <path style="fill:#575756;" d="M254.95,117.208c-0.171-0.967-0.277-2.17-0.277-3.138c0-4.885,5.096-8.431,12.116-8.431
			c7.183,0,12.81,3.789,12.81,8.625h-3.302c0-2.885-4.354-5.323-9.508-5.323c-5.025,0-8.814,2.205-8.814,5.129
			c0,0.778,0.089,1.784,0.227,2.564L254.95,117.208z" />
    </g>
  </g>
  <g>
  </g>
  <g>
  </g>
  <g>
  </g>
  <g>
  </g>
  <g>
  </g>
  <g>
  </g>
  <g>
  </g>
  <g>
  </g>
  <g>
  </g>
  <g>
  </g>
  <g>
  </g>
  <g>
  </g>
  <g>
  </g>
  <g>
  </g>
  <g>
  </g>
</svg>
