<svg enable-background="new 0 0 475.384 475.384" viewBox="0 0 475.384 475.384" xmlns="http://www.w3.org/2000/svg"><circle cx="208.211" cy="237.692" fill="#f5ece1" r="208.211"/><circle cx="208.211" cy="237.692" fill="#f5ece1" r="208.211"/><path d="m332.197 331.981c0-10.264-44.758-18.585-99.97-18.585s-99.97 8.321-99.97 18.585c0 3.293 4.63 6.385 12.72 9.068-29.076 3.25-48.534 9.171-48.534 15.938 0 10.262 44.798 16.488 99.97 18.583 54.815 2.082 99.895-7.927 99.97-18.583.023-3.295-4.632-6.387-12.72-9.07 29.076-3.25 48.534-9.17 48.534-15.936z" fill="#d1cac0"/><path d="m472.937 353.083c-1.333.425-2.85.027-3.791-1.122l-194.621-237.473c-1.231-1.502-1.011-3.718.491-4.95 1.502-1.231 3.718-1.011 4.95.491l194.621 237.474c1.231 1.502 1.011 3.718-.491 4.95-.354.29-.748.499-1.159.63z" fill="#575756"/><path d="m274.481 232.233c46.716 42.961-211.026 72.584-240.723 48.929l17.979 28.545c59.364 68.189 293.77-21.073 263.808-48.126z" fill="#ab4a45"/><path d="m80.402 430.47c2.991-67.206 207.784-191.29 235.796-168.248l-38.766-36.195c-28.734-23.646-232.558 118.523-225.049 183.533l14.648-5.822z" fill="#e96660"/><path d="m266.787 123.103c-2.223 0-4.122-.365-4.902-1.028l2.14-2.515c-.088-.075-.151-.105-.151-.105.908.43 6.475.831 9.93-1.249 1.601-.964 2.417-2.277 2.494-4.014l3.299.147c-.15 3.35-2.036 5.908-5.454 7.396-2.159.94-4.947 1.368-7.356 1.368z" fill="#575756"/><path d="m233.959 99.882c-72.137-10.278-233.873 123.932-202.339 182.48l21.606 29.007c-23.771-43.015 123.161-171.226 200.649-177.932 9.219-12.803 11.068-16.039 17.541-21.588.001.002-28.451-10.683-37.457-11.967zm20.892 17.172c-3.338 0-6.045-1.457-6.045-3.255s2.706-3.255 6.045-3.255c3.338 0 6.045 1.457 6.045 3.255s-2.707 3.255-6.045 3.255z" fill="#e96660"/><path d="m254.95 117.208c-.171-.967-.277-2.17-.277-3.138 0-4.885 5.096-8.431 12.116-8.431 7.183 0 12.81 3.789 12.81 8.625h-3.302c0-2.885-4.354-5.323-9.508-5.323-5.025 0-8.814 2.205-8.814 5.129 0 .778.089 1.784.227 2.564z" fill="#575756"/></svg>