<svg viewBox="0 0 512.003 512.003" xmlns="http://www.w3.org/2000/svg"><path d="M213.246 225.805h42.756c28.337 0 51.307-22.971 51.307-51.307v-59.859h-94.063z" fill="#ced7d9"/><path d="M213.246 225.805h42.756c28.337 0 51.307-22.971 51.307-51.307v-59.859h-94.063z" fill="#ced7d9"/><path d="M213.246 114.641h17.102v111.166h-17.102z" fill="#b6c4c6"/><path d="m213.246 183.049 25.654-34.205L343 86.385l-10.037-23.053-111.166 68.41-34.205 42.756v68.409h25.654z" fill="#fdd349"/><path d="m166.087 151.959-18.139 18.139-54.418-54.419 18.139-18.139z" fill="#9db0b3"/><path d="m355.059 100.283 12.109 22.907 34.205-17.102h42.756l-42.756-25.654zm-39.198-28.4-94.063 59.859-111.167-59.859c26.64 4.321 51.307 8.551 111.166 8.551 35.775 0 64.216-16.124 85.512-25.654z" fill="#ff8b1b"/><path d="M156.197 78c-18.2-1.618-31.617-3.854-45.565-6.117l111.166 59.859 15.678-9.976z" fill="#f57811"/><circle cx="264.553" cy="183.051" fill="#54747b" r="17.102"/><path d="M93.529 183.049c-42.505 0-76.961 34.456-76.961 76.961s34.456 76.961 76.961 76.961 76.961-34.456 76.961-76.961-34.456-76.961-76.961-76.961zm0 128.268c-28.337 0-51.307-22.971-51.307-51.307s22.971-51.307 51.307-51.307 51.307 22.971 51.307 51.307-22.97 51.307-51.307 51.307zm324.946-128.268c-42.505 0-76.961 34.456-76.961 76.961s34.456 76.961 76.961 76.961 76.961-34.456 76.961-76.961-34.456-76.961-76.961-76.961zm0 128.268c-28.337 0-51.307-22.971-51.307-51.307s22.971-51.307 51.307-51.307c28.337 0 51.307 22.971 51.307 51.307s-22.97 51.307-51.307 51.307z" fill="#3c6168"/><path d="m16.568 405.381 34.205-34.205 34.205 34.205 34.205-34.205 34.205 34.205 34.204-34.205 34.205 34.205 34.205-34.205 34.205 34.205 34.205-34.205 34.205 34.205 34.205-34.205 34.205 34.205 34.204-34.205 34.205 34.205v102.614H16.568z" fill="#8b6728"/><path d="m16.568 465.239 34.205-34.205 34.205 34.205 34.205-34.205 34.205 34.205 34.204-34.205 34.205 34.205 34.205-34.205 34.205 34.205 34.205-34.205 34.205 34.205 34.205-34.205 34.205 34.205 34.204-34.205 34.205 34.205v42.756H16.568z" fill="#b08e53"/><path d="M264.553 157.93c-13.851 0-25.119 11.268-25.119 25.119s11.268 25.119 25.119 25.119 25.119-11.268 25.119-25.119-11.268-25.119-25.119-25.119zm0 34.205c-5.01 0-9.086-4.076-9.086-9.086s4.076-9.086 9.086-9.086 9.086 4.076 9.086 9.086-4.076 9.086-9.086 9.086z"/><path d="M503.988 251.993h-.924a84.302 84.302 0 0 0-7.339-27.326c1.863-1.075 3.411-2.356 4.239-4.409a8.07 8.07 0 0 0-.49-7.012 8.067 8.067 0 0 0-5.688-3.909c-2.25-.358-4.188.354-6.101 1.459a85.655 85.655 0 0 0-19.995-19.995c1.081-1.872 1.79-3.758 1.478-5.962a8.07 8.07 0 0 0-3.929-5.827 8.074 8.074 0 0 0-6.883-.543c-2.116.811-3.44 2.387-4.539 4.293a84.22 84.22 0 0 0-27.326-7.339c0-2.144-.34-4.121-1.7-5.859a8.07 8.07 0 0 0-6.317-3.082 8.07 8.07 0 0 0-6.231 2.972c-1.423 1.755-1.786 3.776-1.786 5.969a84.311 84.311 0 0 0-18.357 3.821l-21.27-48.922 32.435-16.217h40.863a8.017 8.017 0 0 0 4.125-14.892l-42.756-25.654a8.02 8.02 0 0 0-7.282-.494l-44.068 18.886-3.693-8.495c-.035-.091-.065-.183-.104-.274l-8.81-20.233 7.578-22.737a8.022 8.022 0 0 0-.935-6.982L331.082 7.578a8.017 8.017 0 0 0-13.34 8.894l14.927 22.391-6.39 19.169-6.409 3.944-5.39-10.781a8.016 8.016 0 0 0-10.444-3.732c-3.093 1.384-6.277 2.877-9.648 4.459-19.464 9.131-43.687 20.495-72.589 20.495-57.855 0-82.248-3.96-108.072-8.155l-1.81-.293a8.017 8.017 0 0 0-5.084 14.972l102.7 55.3-25.792 32.239h-9.929l-5.454-5.455 3.4-3.4a8.017 8.017 0 0 0 0-11.338l-54.419-54.42a8.018 8.018 0 0 0-11.338 0L102.6 95.27l-3.401-3.401a8.017 8.017 0 1 0-11.338 11.338l3.401 3.401-3.401 3.401a8.014 8.014 0 0 0-.001 11.337l54.42 54.419c3.089 3.088 8.249 3.088 11.338 0l3.4-3.4 7.802 7.802a8.018 8.018 0 0 0 5.669 2.347h9.086v5.004l-22.391 16.284a85.617 85.617 0 0 0-14.441-13.002c1.081-1.872 1.79-3.758 1.478-5.962a8.07 8.07 0 0 0-3.929-5.827 8.074 8.074 0 0 0-6.883-.543c-2.116.811-3.439 2.387-4.539 4.293a84.22 84.22 0 0 0-27.326-7.339c0-2.144-.34-4.121-1.7-5.859a8.07 8.07 0 0 0-6.317-3.082 8.069 8.069 0 0 0-6.231 2.972c-1.421 1.755-1.784 3.776-1.784 5.97a84.302 84.302 0 0 0-27.326 7.339c-1.075-1.863-2.356-3.411-4.409-4.239a8.07 8.07 0 0 0-7.012.49 8.07 8.07 0 0 0-3.91 5.688c-.358 2.25.355 4.187 1.459 6.1a85.655 85.655 0 0 0-19.995 19.995c-1.872-1.081-3.758-1.79-5.962-1.479a8.065 8.065 0 0 0-5.827 3.93 8.075 8.075 0 0 0-.542 6.882c.811 2.116 2.386 3.44 4.292 4.54a84.22 84.22 0 0 0-7.339 27.326c-2.144 0-4.121.34-5.859 1.7A8.062 8.062 0 0 0 0 260.01a8.069 8.069 0 0 0 2.972 6.231c1.755 1.423 3.775 1.786 5.969 1.786a84.315 84.315 0 0 0 7.339 27.325c-1.735 1.002-3.205 2.159-4.073 4.023a8.07 8.07 0 0 0-.081 6.599 8.078 8.078 0 0 0 5.531 4.598c2.421.563 4.577-.145 6.662-1.349a85.636 85.636 0 0 0 19.995 19.995c-1.006 1.743-1.709 3.486-1.527 5.544a8.07 8.07 0 0 0 3.23 5.755 8.09 8.09 0 0 0 7.74.988c2.063-.825 3.352-2.378 4.431-4.249a84.22 84.22 0 0 0 27.326 7.339c0 2.144.34 4.121 1.7 5.859a8.07 8.07 0 0 0 6.317 3.082 8.069 8.069 0 0 0 6.231-2.972c1.423-1.755 1.786-3.776 1.786-5.969a84.302 84.302 0 0 0 27.326-7.339c1.08 1.87 2.368 3.424 4.431 4.249a8.09 8.09 0 0 0 7.74-.988 8.07 8.07 0 0 0 3.23-5.755c.182-2.059-.522-3.802-1.527-5.544a85.655 85.655 0 0 0 19.995-19.995c2.085 1.205 4.24 1.913 6.662 1.349a8.078 8.078 0 0 0 5.531-4.598 8.07 8.07 0 0 0-.081-6.599c-.868-1.863-2.339-3.022-4.073-4.023a84.221 84.221 0 0 0 7.339-27.325c2.144 0 4.121-.34 5.859-1.7a8.07 8.07 0 0 0 3.082-6.317 8.069 8.069 0 0 0-2.972-6.231c-1.755-1.423-3.775-1.786-5.969-1.786a84.347 84.347 0 0 0-11.484-35.237l12.94-9.413v35.565a8.016 8.016 0 0 0 8.017 8.017h25.654a8.016 8.016 0 0 0 8.017-8.017v-9.086h34.739c32.712 0 59.324-26.612 59.324-59.324v-62.16l23.953-14.372 38.124 87.683a85.6 85.6 0 0 0-28.138 25.146c-1.872-1.081-3.758-1.79-5.962-1.479a8.065 8.065 0 0 0-5.827 3.93 8.075 8.075 0 0 0-.542 6.882c.811 2.116 2.386 3.44 4.292 4.54a84.22 84.22 0 0 0-7.339 27.326c-2.144 0-4.121.34-5.859 1.7a8.07 8.07 0 0 0-3.082 6.317 8.069 8.069 0 0 0 2.972 6.231c1.755 1.423 3.775 1.786 5.969 1.786a84.315 84.315 0 0 0 7.339 27.325c-1.735 1.002-3.205 2.159-4.073 4.023a8.07 8.07 0 0 0-.081 6.599 8.078 8.078 0 0 0 5.531 4.598c2.421.563 4.577-.145 6.662-1.349a85.636 85.636 0 0 0 19.995 19.995c-1.006 1.743-1.709 3.486-1.527 5.544a8.066 8.066 0 0 0 3.23 5.755 8.09 8.09 0 0 0 7.74.988c2.063-.825 3.352-2.378 4.431-4.249a84.22 84.22 0 0 0 27.326 7.339c0 2.144.34 4.121 1.7 5.859a8.07 8.07 0 0 0 6.317 3.082 8.07 8.07 0 0 0 6.231-2.972c1.423-1.755 1.786-3.776 1.786-5.969a84.315 84.315 0 0 0 27.327-7.339c1.08 1.87 2.368 3.424 4.431 4.249a8.09 8.09 0 0 0 7.74-.988 8.07 8.07 0 0 0 3.23-5.755c.182-2.059-.522-3.802-1.527-5.544a85.655 85.655 0 0 0 19.995-19.995c2.085 1.205 4.24 1.913 6.662 1.349a8.078 8.078 0 0 0 5.531-4.598 8.07 8.07 0 0 0-.081-6.599c-.868-1.863-2.339-3.022-4.073-4.023a84.221 84.221 0 0 0 7.339-27.325c1.993 0 3.847-.274 5.522-1.448a8.06 8.06 0 0 0 3.351-5.529c.6-4.733-3.176-9.058-7.955-9.058zM104.866 115.677l6.802-6.802 43.082 43.083-6.801 6.801zm57.607 144.333c0 38.016-30.929 68.944-68.944 68.944s-68.944-30.928-68.944-68.944 30.929-68.944 68.944-68.944c19.997 0 38.024 8.565 50.63 22.211l-7.844 5.705c-10.804-11.262-25.985-18.294-42.786-18.294-32.712 0-59.324 26.612-59.324 59.324s26.612 59.324 59.324 59.324 59.324-26.612 59.324-59.324a58.945 58.945 0 0 0-7.083-28.081l7.829-5.693a68.47 68.47 0 0 1 8.874 33.772zm-51.307 0c0 9.725-7.912 17.637-17.637 17.637s-17.637-7.912-17.637-17.637 7.912-17.637 17.637-17.637c2.871 0 5.575.704 7.973 1.926l-12.688 9.228c-3.256 2.369-4.251 6.947-2.254 10.447 2.333 4.092 7.866 5.299 11.684 2.519l12.687-9.227c.141.898.235 1.809.235 2.744zm4.077-25.704c-5.867-4.964-13.445-7.965-21.714-7.965-18.566 0-33.67 15.105-33.67 33.67s15.105 33.67 33.67 33.67 33.67-15.105 33.67-33.67c0-4.51-.898-8.813-2.513-12.748l7.957-5.787a43.033 43.033 0 0 1 4.176 18.534c0 23.871-19.42 43.291-43.291 43.291s-43.291-19.42-43.291-43.291 19.42-43.291 43.291-43.291c11.473 0 21.909 4.495 29.664 11.804zM400.764 89.418l14.423 8.654h-13.813c-1.244 0-2.472.29-3.585.847l-33.358 16.679-3.888-8.941zm-178.967-.967c32.476 0 58.495-12.206 79.399-22.013l2.414-1.132 2.551 5.105-84.633 52.081-68.132-36.687c17.102 1.597 38.344 2.646 68.401 2.646zm55.735 27.865a8.017 8.017 0 1 0 8.249 13.749l13.512-8.108v52.54c0 23.871-19.42 43.291-43.291 43.291h-34.739v-32.067l23.108-30.81 20.031-12.019a8.017 8.017 0 0 0 2.75-10.999 8.015 8.015 0 0 0-10.999-2.75l-21.378 12.827a8.039 8.039 0 0 0-2.29 2.065l-25.654 34.205a8.012 8.012 0 0 0-1.603 4.81v51.842h-9.62v-57.581l31.578-39.471 102.109-62.837 3.536 8.134zm106.301 84.123 3.859 8.876c-17.099 10.423-28.541 29.247-28.541 50.695 0 32.712 26.612 59.324 59.324 59.324s59.324-26.612 59.324-59.324-26.612-59.324-59.324-59.324c-5.573 0-10.963.789-16.081 2.233l-3.869-8.899a68.706 68.706 0 0 1 19.95-2.954c38.016 0 68.944 30.929 68.944 68.944s-30.929 68.944-68.944 68.944-68.944-30.929-68.944-68.944c0-25.393 13.809-47.607 34.302-59.571zm21.031 48.37 6.259 14.398c1.834 4.218 7.013 6.038 11.088 3.897 3.665-1.926 5.265-6.495 3.616-10.289l-6.254-14.385c9.213.571 16.539 8.227 16.539 17.581 0 9.725-7.912 17.637-17.637 17.637s-17.637-7.912-17.637-17.637c0-4.251 1.512-8.155 4.026-11.202zm13.611 44.871c18.566 0 33.67-15.105 33.67-33.67 0-18.566-15.105-33.67-33.67-33.67-1.938 0-3.835.174-5.684.49l-3.923-9.022a43.278 43.278 0 0 1 9.607-1.088c23.871 0 43.291 19.42 43.291 43.291s-19.42 43.291-43.291 43.291-43.291-19.42-43.291-43.291c0-14.866 7.535-28.004 18.983-35.802l3.924 9.026c-8.068 6.157-13.288 15.867-13.288 26.776.002 18.565 15.107 33.669 33.672 33.669z"/><path d="M281.656 156.861h1.069c4.428 0 8.017-3.588 8.017-8.017s-3.588-8.017-8.017-8.017h-1.069c-4.428 0-8.017 3.588-8.017 8.017s3.588 8.017 8.017 8.017zm-50.239 43.825h-1.069c-4.428 0-8.017 3.588-8.017 8.017s3.588 8.017 8.017 8.017h1.069c4.428 0 8.017-3.588 8.017-8.017s-3.588-8.017-8.017-8.017zM22.237 411.05l28.535-28.536 28.535 28.536a8.019 8.019 0 0 0 11.338 0l28.535-28.536 28.535 28.536a8.019 8.019 0 0 0 11.338 0l28.535-28.536 28.535 28.536a8.019 8.019 0 0 0 11.338 0l28.535-28.536 28.535 28.536a8.019 8.019 0 0 0 11.338 0l28.535-28.536 28.535 28.536a8.019 8.019 0 0 0 11.338 0l28.535-28.536 28.535 28.536a8.019 8.019 0 0 0 11.338 0l28.535-28.536 28.535 28.536c3.261 3.259 8.767 3.042 11.764-.461 2.686-3.138 2.493-7.959-.425-10.878l-34.205-34.205a8.019 8.019 0 0 0-11.338 0l-28.53 28.538-28.535-28.536a8.019 8.019 0 0 0-11.338 0l-28.536 28.536-28.535-28.536a8.019 8.019 0 0 0-11.338 0l-28.536 28.536-28.535-28.536a8.019 8.019 0 0 0-11.338 0l-28.536 28.536-28.535-28.536a8.019 8.019 0 0 0-11.338 0l-28.536 28.536-28.535-28.536a8.019 8.019 0 0 0-11.338 0l-28.536 28.536-28.535-28.536a8.019 8.019 0 0 0-11.338 0L10.9 399.712a8.017 8.017 0 0 0 11.337 11.338zm444.664 14.316a8.019 8.019 0 0 0-11.338 0l-28.536 28.536-28.535-28.536a8.019 8.019 0 0 0-11.338 0l-28.536 28.536-28.535-28.536a8.019 8.019 0 0 0-11.338 0l-28.536 28.536-28.535-28.536a8.019 8.019 0 0 0-11.338 0L221.8 453.902l-28.535-28.536a8.019 8.019 0 0 0-11.338 0l-28.536 28.536-28.535-28.536a8.019 8.019 0 0 0-11.338 0l-28.536 28.536-28.535-28.536a8.019 8.019 0 0 0-11.338 0L10.9 459.571a8.017 8.017 0 1 0 11.338 11.338l28.535-28.536 28.535 28.536a8.019 8.019 0 0 0 11.338 0l28.535-28.536 28.535 28.536a8.019 8.019 0 0 0 11.338 0l28.535-28.536 28.535 28.536a8.019 8.019 0 0 0 11.338 0l28.535-28.536 28.535 28.536a8.019 8.019 0 0 0 11.338 0l28.535-28.536 28.535 28.536a8.019 8.019 0 0 0 11.338 0l28.535-28.536 28.535 28.536a8.019 8.019 0 0 0 11.338 0l28.535-28.536 28.535 28.536c3.261 3.259 8.767 3.042 11.764-.461 2.686-3.138 2.493-7.959-.425-10.878z"/></svg>