<svg enable-background="new 0 0 512.003 512.003" viewBox="0 0 512.003 512.003" xmlns="http://www.w3.org/2000/svg"><path d="m213.246 225.805h42.756c28.337 0 51.307-22.971 51.307-51.307v-59.859h-94.063z" fill="#ced7d9"/><path d="m213.246 225.805h42.756c28.337 0 51.307-22.971 51.307-51.307v-59.859h-94.063z" fill="#ced7d9"/><path d="m213.246 114.641h17.102v111.166h-17.102z" fill="#b6c4c6"/><path d="m213.246 183.049 25.654-34.205 104.1-62.459-10.037-23.053-111.166 68.41-34.205 42.756v68.409h25.654z" fill="#fdd349"/><path d="m116.98 95.339h25.653v76.96h-25.653z" fill="#9db0b3" transform="matrix(-.7071 .7071 -.7071 -.7071 316.218 136.6563)"/><path d="m355.059 100.283 12.109 22.907 34.205-17.102h42.756l-42.756-25.654z" fill="#ff8b1b"/><path d="m315.861 71.883-94.063 59.859-111.167-59.859c26.64 4.321 51.307 8.551 111.166 8.551 35.775 0 64.216-16.124 85.512-25.654z" fill="#ff8b1b"/><path d="m156.197 78c-18.2-1.618-31.617-3.854-45.565-6.117l111.166 59.859 15.678-9.976z" fill="#f57811"/><circle cx="264.553" cy="183.051" fill="#54747b" r="17.102"/><path d="m93.529 183.049c-42.505 0-76.961 34.456-76.961 76.961s34.456 76.961 76.961 76.961 76.961-34.456 76.961-76.961-34.456-76.961-76.961-76.961zm0 128.268c-28.337 0-51.307-22.971-51.307-51.307s22.971-51.307 51.307-51.307 51.307 22.971 51.307 51.307-22.97 51.307-51.307 51.307z" fill="#3c6168"/><path d="m418.475 183.049c-42.505 0-76.961 34.456-76.961 76.961s34.456 76.961 76.961 76.961 76.961-34.456 76.961-76.961-34.456-76.961-76.961-76.961zm0 128.268c-28.337 0-51.307-22.971-51.307-51.307s22.971-51.307 51.307-51.307c28.337 0 51.307 22.971 51.307 51.307s-22.97 51.307-51.307 51.307z" fill="#3c6168"/><path d="m16.568 405.381 34.205-34.205 34.205 34.205 34.205-34.205 34.205 34.205 34.204-34.205 34.205 34.205 34.205-34.205 34.205 34.205 34.205-34.205 34.205 34.205 34.205-34.205 34.205 34.205 34.204-34.205 34.205 34.205v102.614h-478.868z" fill="#8b6728"/><path d="m16.568 465.239 34.205-34.205 34.205 34.205 34.205-34.205 34.205 34.205 34.204-34.205 34.205 34.205 34.205-34.205 34.205 34.205 34.205-34.205 34.205 34.205 34.205-34.205 34.205 34.205 34.204-34.205 34.205 34.205v42.756h-478.868z" fill="#b08e53"/><path d="m264.553 157.93c-13.851 0-25.119 11.268-25.119 25.119s11.268 25.119 25.119 25.119 25.119-11.268 25.119-25.119-11.268-25.119-25.119-25.119zm0 34.205c-5.01 0-9.086-4.076-9.086-9.086s4.076-9.086 9.086-9.086 9.086 4.076 9.086 9.086-4.076 9.086-9.086 9.086z"/><path d="m503.988 251.993h-.924c-.91-9.669-3.453-18.866-7.339-27.326 1.863-1.075 3.411-2.356 4.239-4.409.917-2.274.736-4.888-.49-7.012-1.201-2.08-3.316-3.533-5.688-3.909-2.25-.358-4.188.354-6.101 1.459-5.508-7.724-12.271-14.486-19.995-19.995 1.081-1.872 1.79-3.758 1.478-5.962-.343-2.427-1.806-4.601-3.929-5.827-2.081-1.201-4.639-1.403-6.883-.543-2.116.811-3.44 2.387-4.539 4.293-8.46-3.887-17.656-6.431-27.326-7.339 0-2.144-.34-4.121-1.7-5.859-1.51-1.93-3.865-3.082-6.317-3.082-2.402 0-4.718 1.105-6.231 2.972-1.423 1.755-1.786 3.776-1.786 5.969-6.348.596-12.49 1.901-18.357 3.821l-21.27-48.922 32.435-16.217h40.863c3.603 0 6.764-2.404 7.726-5.877s-.512-7.16-3.601-9.015l-42.756-25.654c-2.208-1.324-4.919-1.507-7.282-.494l-44.068 18.886-3.693-8.495c-.035-.091-.065-.183-.104-.274l-8.81-20.233 7.578-22.737c.781-2.347.437-4.923-.935-6.982l-17.101-25.652c-2.455-3.683-7.433-4.679-11.117-2.223-3.683 2.456-4.68 7.433-2.223 11.117l14.927 22.391-6.39 19.169-6.409 3.944-5.39-10.781c-1.921-3.841-6.528-5.486-10.444-3.732-3.093 1.384-6.277 2.877-9.648 4.459-19.464 9.131-43.687 20.495-72.589 20.495-57.855 0-82.248-3.96-108.072-8.155l-1.81-.293c-3.862-.627-7.615 1.629-8.874 5.336s.343 7.779 3.79 9.636l102.7 55.3-25.792 32.239h-9.929l-5.454-5.455 3.4-3.4c3.131-3.132 3.131-8.207 0-11.338l-54.419-54.42c-1.504-1.503-3.542-2.347-5.669-2.347s-4.164.844-5.669 2.347l-3.401 3.403-3.401-3.401c-3.132-3.13-8.207-3.13-11.338 0-3.131 3.132-3.131 8.207 0 11.338l3.401 3.401-3.401 3.401c-1.504 1.504-2.348 3.542-2.348 5.668s.844 4.164 2.347 5.669l54.42 54.419c3.089 3.088 8.249 3.088 11.338 0l3.4-3.4 7.802 7.802c1.504 1.503 3.542 2.347 5.669 2.347h9.086v5.004l-22.391 16.284c-4.299-4.862-9.144-9.226-14.441-13.002 1.081-1.872 1.79-3.758 1.478-5.962-.343-2.427-1.806-4.601-3.929-5.827-2.081-1.201-4.639-1.403-6.883-.543-2.116.811-3.439 2.387-4.539 4.293-8.46-3.887-17.656-6.431-27.326-7.339 0-2.144-.34-4.121-1.7-5.859-1.51-1.93-3.865-3.082-6.317-3.082-2.403 0-4.718 1.105-6.231 2.972-1.421 1.755-1.784 3.776-1.784 5.97-9.669.91-18.866 3.453-27.326 7.339-1.075-1.863-2.356-3.411-4.409-4.239-2.274-.917-4.888-.736-7.012.49-2.08 1.2-3.533 3.316-3.91 5.688-.358 2.25.355 4.187 1.459 6.1-7.724 5.508-14.486 12.271-19.995 19.995-1.872-1.081-3.758-1.79-5.962-1.479-2.427.342-4.601 1.806-5.827 3.93-1.201 2.081-1.401 4.638-.542 6.882.811 2.116 2.386 3.44 4.292 4.54-3.887 8.46-6.431 17.656-7.339 27.326-2.144 0-4.121.34-5.859 1.7-1.931 1.509-3.082 3.863-3.082 6.315 0 2.403 1.105 4.718 2.972 6.231 1.755 1.423 3.775 1.786 5.969 1.786.91 9.669 3.454 18.866 7.339 27.325-1.735 1.002-3.205 2.159-4.073 4.023-.964 2.07-.998 4.507-.081 6.599 1.009 2.302 3.082 4.028 5.531 4.598 2.421.563 4.577-.145 6.662-1.349 5.508 7.724 12.271 14.487 19.995 19.995-1.006 1.743-1.709 3.486-1.527 5.544.201 2.275 1.389 4.402 3.23 5.755 2.219 1.631 5.184 2.01 7.74.988 2.063-.825 3.352-2.378 4.431-4.249 8.46 3.887 17.656 6.431 27.326 7.339 0 2.144.34 4.121 1.7 5.859 1.51 1.93 3.865 3.082 6.317 3.082 2.403 0 4.718-1.105 6.231-2.972 1.423-1.755 1.786-3.776 1.786-5.969 9.669-.91 18.866-3.453 27.326-7.339 1.08 1.87 2.368 3.424 4.431 4.249 2.556 1.022 5.521.643 7.74-.988 1.841-1.353 3.029-3.48 3.23-5.755.182-2.059-.522-3.802-1.527-5.544 7.724-5.508 14.486-12.271 19.995-19.995 2.085 1.205 4.24 1.913 6.662 1.349 2.449-.57 4.521-2.295 5.531-4.598.917-2.093.883-4.529-.081-6.599-.868-1.863-2.339-3.022-4.073-4.023 3.887-8.46 6.431-17.656 7.339-27.325 2.144 0 4.121-.34 5.859-1.7 1.93-1.51 3.082-3.865 3.082-6.317 0-2.403-1.105-4.718-2.972-6.231-1.755-1.423-3.775-1.786-5.969-1.786-1.201-12.774-5.243-24.73-11.484-35.237l12.94-9.413v35.565c0 4.428 3.588 8.017 8.017 8.017h25.654c4.428 0 8.017-3.588 8.017-8.017v-9.086h34.739c32.712 0 59.324-26.612 59.324-59.324v-62.16l23.953-14.372 38.124 87.683c-11.154 6.186-20.767 14.811-28.138 25.146-1.872-1.081-3.758-1.79-5.962-1.479-2.427.342-4.601 1.806-5.827 3.93-1.201 2.081-1.401 4.638-.542 6.882.811 2.116 2.386 3.44 4.292 4.54-3.887 8.46-6.431 17.656-7.339 27.326-2.144 0-4.121.34-5.859 1.7-1.93 1.51-3.082 3.865-3.082 6.317 0 2.403 1.105 4.718 2.972 6.231 1.755 1.423 3.775 1.786 5.969 1.786.91 9.669 3.454 18.866 7.339 27.325-1.735 1.002-3.205 2.159-4.073 4.023-.964 2.07-.998 4.507-.081 6.599 1.009 2.302 3.082 4.028 5.531 4.598 2.421.563 4.577-.145 6.662-1.349 5.508 7.724 12.271 14.487 19.995 19.995-1.006 1.743-1.709 3.486-1.527 5.544.201 2.275 1.388 4.402 3.23 5.755 2.219 1.631 5.184 2.01 7.74.988 2.063-.825 3.352-2.378 4.431-4.249 8.46 3.887 17.656 6.431 27.326 7.339 0 2.144.34 4.121 1.7 5.859 1.51 1.93 3.865 3.082 6.317 3.082 2.402 0 4.718-1.105 6.231-2.972 1.423-1.755 1.786-3.776 1.786-5.969 9.669-.91 18.866-3.453 27.327-7.339 1.08 1.87 2.368 3.424 4.431 4.249 2.556 1.022 5.521.643 7.74-.988 1.841-1.353 3.029-3.48 3.23-5.755.182-2.059-.522-3.802-1.527-5.544 7.724-5.508 14.486-12.271 19.995-19.995 2.085 1.205 4.24 1.913 6.662 1.349 2.449-.57 4.521-2.295 5.531-4.598.917-2.093.883-4.529-.081-6.599-.868-1.863-2.339-3.022-4.073-4.023 3.887-8.46 6.431-17.656 7.339-27.325 1.993 0 3.847-.274 5.522-1.448 1.828-1.282 3.067-3.313 3.351-5.529.6-4.733-3.176-9.058-7.955-9.058zm-399.122-136.316 6.802-6.802 43.082 43.083-6.801 6.801zm57.607 144.333c0 38.016-30.929 68.944-68.944 68.944s-68.944-30.928-68.944-68.944 30.929-68.944 68.944-68.944c19.997 0 38.024 8.565 50.63 22.211l-7.844 5.705c-10.804-11.262-25.985-18.294-42.786-18.294-32.712 0-59.324 26.612-59.324 59.324s26.612 59.324 59.324 59.324 59.324-26.612 59.324-59.324c0-10.153-2.568-19.717-7.083-28.081l7.829-5.693c5.64 9.987 8.874 21.506 8.874 33.772zm-51.307 0c0 9.725-7.912 17.637-17.637 17.637s-17.637-7.912-17.637-17.637 7.912-17.637 17.637-17.637c2.871 0 5.575.704 7.973 1.926l-12.688 9.228c-3.256 2.369-4.251 6.947-2.254 10.447 2.333 4.092 7.866 5.299 11.684 2.519l12.687-9.227c.141.898.235 1.809.235 2.744zm4.077-25.704c-5.867-4.964-13.445-7.965-21.714-7.965-18.566 0-33.67 15.105-33.67 33.67s15.105 33.67 33.67 33.67 33.67-15.105 33.67-33.67c0-4.51-.898-8.813-2.513-12.748l7.957-5.787c2.674 5.622 4.176 11.904 4.176 18.534 0 23.871-19.42 43.291-43.291 43.291s-43.291-19.42-43.291-43.291 19.42-43.291 43.291-43.291c11.473 0 21.909 4.495 29.664 11.804zm285.521-144.888 14.423 8.654h-13.813c-1.244 0-2.472.29-3.585.847l-33.358 16.679-3.888-8.941zm-178.967-.967c32.476 0 58.495-12.206 79.399-22.013.816-.383 1.619-.76 2.414-1.132l2.551 5.105-84.633 52.081-68.132-36.687c17.102 1.597 38.344 2.646 68.401 2.646zm55.735 27.865c-3.797 2.279-5.028 7.202-2.75 10.999 2.28 3.797 7.202 5.028 10.999 2.75l13.512-8.108v52.54c0 23.871-19.42 43.291-43.291 43.291h-34.739v-32.067l23.108-30.81 20.031-12.019c3.797-2.279 5.028-7.202 2.75-10.999-2.28-3.799-7.203-5.028-10.999-2.75l-21.378 12.827c-.889.534-1.667 1.235-2.29 2.065l-25.654 34.205c-1.041 1.387-1.603 3.075-1.603 4.81v51.842h-9.62v-57.581l31.578-39.471 102.109-62.837 3.536 8.134zm106.301 84.123 3.859 8.876c-17.099 10.423-28.541 29.247-28.541 50.695 0 32.712 26.612 59.324 59.324 59.324s59.324-26.612 59.324-59.324-26.612-59.324-59.324-59.324c-5.573 0-10.963.789-16.081 2.233l-3.869-8.899c6.319-1.914 13.014-2.954 19.95-2.954 38.016 0 68.944 30.929 68.944 68.944s-30.929 68.944-68.944 68.944-68.944-30.929-68.944-68.944c0-25.393 13.809-47.607 34.302-59.571zm21.031 48.37 6.259 14.398c1.834 4.218 7.013 6.038 11.088 3.897 3.665-1.926 5.265-6.495 3.616-10.289l-6.254-14.385c9.213.571 16.539 8.227 16.539 17.581 0 9.725-7.912 17.637-17.637 17.637s-17.637-7.912-17.637-17.637c0-4.251 1.512-8.155 4.026-11.202zm13.611 44.871c18.566 0 33.67-15.105 33.67-33.67 0-18.566-15.105-33.67-33.67-33.67-1.938 0-3.835.174-5.684.49l-3.923-9.022c3.092-.703 6.305-1.088 9.607-1.088 23.871 0 43.291 19.42 43.291 43.291s-19.42 43.291-43.291 43.291-43.291-19.42-43.291-43.291c0-14.866 7.535-28.004 18.983-35.802l3.924 9.026c-8.068 6.157-13.288 15.867-13.288 26.776.002 18.565 15.107 33.669 33.672 33.669z"/><path d="m281.656 156.861h1.069c4.428 0 8.017-3.588 8.017-8.017s-3.588-8.017-8.017-8.017h-1.069c-4.428 0-8.017 3.588-8.017 8.017s3.588 8.017 8.017 8.017z"/><path d="m231.417 200.686h-1.069c-4.428 0-8.017 3.588-8.017 8.017s3.588 8.017 8.017 8.017h1.069c4.428 0 8.017-3.588 8.017-8.017s-3.588-8.017-8.017-8.017z"/><path d="m22.237 411.05 28.535-28.536 28.535 28.536c3.132 3.13 8.207 3.13 11.338 0l28.535-28.536 28.535 28.536c3.132 3.13 8.207 3.13 11.338 0l28.535-28.536 28.535 28.536c3.132 3.13 8.207 3.13 11.338 0l28.535-28.536 28.535 28.536c3.132 3.13 8.207 3.13 11.338 0l28.535-28.536 28.535 28.536c3.132 3.13 8.207 3.13 11.338 0l28.535-28.536 28.535 28.536c3.132 3.13 8.207 3.13 11.338 0l28.535-28.536 28.535 28.536c3.261 3.259 8.767 3.042 11.764-.461 2.686-3.138 2.493-7.959-.425-10.878l-34.205-34.205c-3.132-3.13-8.207-3.13-11.338 0l-28.53 28.538-28.535-28.536c-3.132-3.13-8.207-3.13-11.338 0l-28.536 28.536-28.535-28.536c-3.132-3.13-8.207-3.13-11.338 0l-28.536 28.536-28.535-28.536c-3.132-3.13-8.207-3.13-11.338 0l-28.536 28.536-28.535-28.536c-3.132-3.13-8.207-3.13-11.338 0l-28.536 28.536-28.535-28.536c-3.132-3.13-8.207-3.13-11.338 0l-28.536 28.536-28.535-28.536c-3.132-3.13-8.207-3.13-11.338 0l-34.203 34.204c-3.131 3.132-3.131 8.207 0 11.338 3.13 3.13 8.206 3.13 11.337 0z"/><path d="m466.901 425.366c-3.132-3.13-8.207-3.13-11.338 0l-28.536 28.536-28.535-28.536c-3.132-3.13-8.207-3.13-11.338 0l-28.536 28.536-28.535-28.536c-3.132-3.13-8.207-3.13-11.338 0l-28.536 28.536-28.535-28.536c-3.132-3.13-8.207-3.13-11.338 0l-28.536 28.536-28.535-28.536c-3.132-3.13-8.207-3.13-11.338 0l-28.536 28.536-28.535-28.536c-3.132-3.13-8.207-3.13-11.338 0l-28.536 28.536-28.535-28.536c-3.132-3.13-8.207-3.13-11.338 0l-34.209 34.205c-3.131 3.132-3.131 8.207 0 11.338 3.132 3.13 8.207 3.13 11.338 0l28.535-28.536 28.535 28.536c3.132 3.13 8.207 3.13 11.338 0l28.535-28.536 28.535 28.536c3.132 3.13 8.207 3.13 11.338 0l28.535-28.536 28.535 28.536c3.132 3.13 8.207 3.13 11.338 0l28.535-28.536 28.535 28.536c3.132 3.13 8.207 3.13 11.338 0l28.535-28.536 28.535 28.536c3.132 3.13 8.207 3.13 11.338 0l28.535-28.536 28.535 28.536c3.132 3.13 8.207 3.13 11.338 0l28.535-28.536 28.535 28.536c3.261 3.259 8.767 3.042 11.764-.461 2.686-3.138 2.493-7.959-.425-10.878z"/></svg>