<svg enable-background="new 0 0 297 297" height="40" viewBox="0 0 297 297" width="40" xmlns="http://www.w3.org/2000/svg"><circle cx="148.5" cy="148.5" fill="#79302a" r="148.5"/><path d="m293.276 115.326-57.009-57.009-161.201 162.293 76.349 76.353c80.668-1.555 145.585-67.423 145.585-148.463 0-11.405-1.29-22.507-3.724-33.174z" fill="#601e1b"/><path d="m150.924 194.074c5.217-6.688 20.23-11.275 25.789-16.834 11.795-11.795 4.629-30.128-11.098-45.855s-34.06-22.894-45.855-11.098c-5.559 5.559-10.146 20.572-16.834 25.789-13.729 10.71-29.79 5.878-40.383 16.471-16.383 16.383-8.66 36.884 13.184 58.727s42.345 29.566 58.727 13.184c10.593-10.594 5.76-26.654 16.47-40.384z" fill="#f86e51"/><path d="m165.615 131.385c-5.622-5.622-11.577-10.142-17.448-13.101v79.945c.788-1.403 1.693-2.791 2.757-4.155 5.217-6.688 20.23-11.275 25.789-16.834 11.796-11.795 4.629-30.128-11.098-45.855z" fill="#dd553e"/><path d="m167.712 62.759h19.775v113.279h-19.775z" fill="#d5c295" transform="matrix(-.7071 -.7071 .7071 -.7071 218.7545 329.4074)"/><path d="m210.659 72.358-62.492 62.492v27.966l76.475-76.475z" fill="#c1aa7c"/><circle cx="130.958" cy="166.042" fill="#32373b" r="15.537"/><path d="m88.336 191.337 17.327 17.327c1.504 1.504 3.942 1.504 5.445 0l1.946-1.946c1.504-1.504 1.504-3.942 0-5.445l-17.327-17.327c-1.504-1.504-3.942-1.504-5.445 0l-1.946 1.946c-1.503 1.503-1.503 3.941 0 5.445z" fill="#32373b"/><path d="m199.333 84.757 12.91 12.91c2.269 2.269 5.947 2.269 8.215 0l23.472-23.472c2.269-2.269 2.269-5.947 0-8.215l-12.91-12.91c-2.269-2.269-5.947-2.269-8.215 0l-23.472 23.472c-2.268 2.269-2.268 5.947 0 8.215z" fill="#8e725e"/></svg>