<svg enable-background="new 0 0 512 512" viewBox="0 0 512 512" xmlns="http://www.w3.org/2000/svg"><circle cx="256" cy="256" fill="#f0fdff" r="256"/><path d="m122.255 301.092c-36.771 0-66.684-29.921-66.684-66.692s29.912-66.676 66.684-66.676c36.762 0 66.676 29.905 66.676 66.676s-29.913 66.692-66.676 66.692zm0-115.789c-27.081 0-49.106 22.025-49.106 49.097 0 27.089 22.025 49.114 49.106 49.114 27.072 0 49.097-22.025 49.097-49.114 0-27.072-22.025-49.097-49.097-49.097z" fill="#6e9be0"/><path d="m255.633 301.092c-36.771 0-66.684-29.921-66.684-66.692s29.913-66.676 66.684-66.676c36.762 0 66.676 29.905 66.676 66.676s-29.914 66.692-66.676 66.692zm0-115.789c-27.081 0-49.106 22.025-49.106 49.097 0 27.089 22.025 49.114 49.106 49.114 27.072 0 49.097-22.025 49.097-49.114-.001-27.072-22.025-49.097-49.097-49.097z" fill="#413241"/><path d="m322.238 358.401c-36.771 0-66.684-29.905-66.684-66.676s29.913-66.692 66.684-66.692c36.762 0 66.676 29.921 66.676 66.692s-29.914 66.676-66.676 66.676zm0-115.789c-27.081 0-49.106 22.025-49.106 49.114 0 27.072 22.025 49.097 49.106 49.097 27.072 0 49.097-22.025 49.097-49.097 0-27.089-22.025-49.114-49.097-49.114z" fill="#00d77d"/><path d="m189.018 225.033c-.276 0-.543.039-.819.042.43 3.055.73 6.153.73 9.325 0 2.803-.265 5.537-.605 8.247.233-.003.459-.035.693-.035 27.081 0 49.106 22.025 49.106 49.113 0 27.072-22.025 49.097-49.106 49.097-27.072 0-49.097-22.025-49.097-49.097 0-20.225 12.284-37.618 29.772-45.138 1.007-3.912 1.656-7.967 1.656-12.189 0-2.305-.215-4.556-.524-6.778-27.938 7.948-48.483 33.647-48.483 64.105 0 36.771 29.912 66.676 66.675 66.676 36.771 0 66.685-29.905 66.685-66.676.002-36.771-29.91-66.692-66.683-66.692z" fill="#fff046"/><path d="m255.633 185.303c27.072 0 49.097 22.025 49.097 49.097 0 20.273-12.338 37.704-29.891 45.195-1.007 3.898-1.705 7.919-1.705 12.131 0 2.319.217 4.585.531 6.82 28.02-7.895 48.646-33.631 48.646-64.147 0-36.771-29.912-66.675-66.675-66.675-33.597 0-61.391 24.989-65.953 57.345 6.026.06 11.832.982 17.372 2.553 3.315-23.868 23.803-42.319 48.578-42.319z" fill="#413241"/><path d="m255.554 291.725c0-2.796.234-5.532.573-8.236-.166.001-.327.025-.493.025-22.882 0-42.099-15.747-47.524-36.967-5.727-2.441-11.997-3.818-18.593-3.886 4.089 32.881 32.148 58.432 66.118 58.432.221 0 .433-.031.652-.033-.434-3.058-.733-6.159-.733-9.335z" fill="#413241"/><path d="m389.011 167.724c-33.604 0-61.404 25-65.956 57.366 6.015.074 11.85.902 17.384 2.475 3.343-23.84 23.818-42.262 48.573-42.262 27.072 0 49.097 22.025 49.097 49.097 0 27.09-22.025 49.114-49.097 49.114-22.856 0-42.055-15.711-47.506-36.894-5.729-2.467-12.006-3.878-18.613-3.966 4.086 32.884 32.147 58.438 66.118 58.438 36.762 0 66.675-29.921 66.675-66.692s-29.913-66.676-66.675-66.676z" fill="#ff5050"/></svg>