<svg viewBox="0 0 512 512" xmlns="http://www.w3.org/2000/svg"><circle cx="256" cy="256" fill="#324a5e" r="256"/><path d="m189.323 440.567 71.42 71.373c136.006-2.474 246.088-110.997 251.061-246.379L388.737 142.495c.229.229-2.207 3.031-5.67 6.778l-41.734-41.734-83.753 37.495-78.007-11.636-32.656 1.391-.96-.96-21.764 21.764 15.731 98.909 112.485 112.485v64.109z" fill="#2b3b4e"/><path d="M217.464 265.425h-49.111c-19.909 0-37.216-13.655-41.153-32.466l-12.033-57.51c-2.431-11.619.521-23.631 8.095-32.954 8.014-9.866 20.063-15.522 33.058-15.522h61.143v15.515H156.32c-8.301 0-15.96 3.567-21.014 9.79-4.684 5.766-6.442 12.866-4.951 19.994l12.033 57.51c2.441 11.664 13.36 20.13 25.965 20.13h49.111z" fill="#e6f3ff"/><path d="M343.647 265.425h-49.111V249.91h49.111c12.605 0 23.524-8.466 25.965-20.13l12.033-57.509c1.491-7.128-.267-14.227-4.951-19.994-5.055-6.222-12.714-9.79-21.014-9.79h-61.143v-15.515h61.143c12.995 0 25.043 5.656 33.058 15.522 7.575 9.323 10.526 21.335 8.095 32.954l-12.033 57.51c-3.938 18.813-21.244 32.467-41.153 32.467z" fill="#cfdbe6"/><path d="M302.702 413.689h-33.773V270.677H243.07v143.012h-33.771a8.463 8.463 0 1 0 0 16.926h33.773v3.2h25.859v-3.2h33.773a8.464 8.464 0 1 0-.002-16.926z" fill="#f9b54c"/><path d="M302.702 413.689h-33.773V270.677h-12.641v163.137h12.641v-3.2h33.773a8.464 8.464 0 0 0 0-16.925z" fill="#eda23e"/><path d="M256.002 325.056c-39.972 0-73.054-29.708-75.547-67.841l-9.787-149.675h170.667l-9.787 149.675c-2.494 38.133-35.576 67.841-75.546 67.841z" fill="#ffd300"/><path d="M256.288 107.539v217.51c39.841-.143 72.771-29.793 75.259-67.834l9.787-149.675h-85.045v-.001z" fill="#f4a200"/><path d="M315.108 443.701H196.892c-5.915 0-10.711-4.796-10.711-10.711s4.796-10.711 10.711-10.711h118.215c5.915 0 10.711 4.796 10.711 10.711.002 5.916-4.794 10.711-10.71 10.711z" fill="#ffd300"/><path d="M315.108 422.279h-58.82V443.7h58.82c5.915 0 10.711-4.796 10.711-10.711-.001-5.914-4.795-10.71-10.711-10.71z" fill="#f4a200"/><circle cx="256" cy="208.386" fill="#f4e3c3" r="37.064"/><path d="M293.066 208.387c0-20.373-16.441-36.893-36.776-37.05v74.099c20.335-.155 36.776-16.675 36.776-37.049z" fill="#fed8b2"/><path d="M299.961 208.387c0-24.143-19.565-43.796-43.672-43.953v13.798c16.501.157 29.88 13.615 29.88 30.155s-13.379 29.998-29.88 30.155v13.798c24.106-.155 43.672-19.809 43.672-43.953z" fill="#dd8d00"/><path d="M256.002 238.556c-16.634 0-30.168-13.534-30.168-30.168s13.534-30.168 30.168-30.168c.097 0 .191.014.288.014v-13.798c-.097 0-.191-.007-.288-.007-24.24 0-43.96 19.72-43.96 43.96s19.72 43.96 43.96 43.96c.097 0 .191-.007.288-.007v-13.798c-.099 0-.192.012-.288.012z" fill="#f4a200"/></svg>