<svg enable-background="new 0 0 512 512" viewBox="0 0 512 512" xmlns="http://www.w3.org/2000/svg"><path d="m500.757 285.312c3.857 3.857 4.251 9.961.952 14.303-24.743 32.557-57.278 69.676-94.845 107.244s-74.685 70.103-107.241 94.847c-4.342 3.301-10.446 2.905-14.303-.952l-41.598-41.599c-3.857-3.857-4.251-9.961-.952-14.303 24.743-32.557 57.278-69.676 94.845-107.244s74.685-70.103 107.241-94.847c4.342-3.301 10.446-2.905 14.303.952z" fill="#bcbcbc"/><path d="m477.673 262.229 23.083 23.083c3.857 3.857 4.251 9.961.952 14.303-24.743 32.557-57.278 69.676-94.845 107.244s-74.685 70.103-107.241 94.847c-4.342 3.301-10.446 2.905-14.303-.952l-23.083-23.083c3.857 3.857 9.961 4.251 14.303.952 32.556-24.744 69.674-57.279 107.241-94.847s70.102-74.687 94.845-107.244c3.301-4.342 2.905-10.447-.952-14.303z" fill="#939393"/><path d="m368.392 337.61-30.777 30.777-246.214-246.221 30.777-30.777z" fill="#bcbcbc"/><path d="m353.003 352.999-15.388 15.389-246.214-246.222 15.388-15.389z" fill="#939393"/><path d="m276.062 245.277-30.777 30.777-153.884-153.888 30.777-30.777z" fill="#ffb150"/><path d="m260.673 260.665-15.388 15.389-153.884-153.888 15.388-15.389z" fill="#d18839"/><path d="m137.566 106.777-30.777 30.777c-4.249 4.249-11.139 4.249-15.388 0l-76.942-76.943c-8.499-8.499-8.499-22.279 0-30.777l15.388-15.389c8.499-8.499 22.278-8.499 30.777 0l76.942 76.944c4.249 4.249 4.249 11.139 0 15.388z" fill="#004859"/><path d="m122.177 122.166-15.388 15.389c-4.249 4.249-11.139 4.249-15.388 0l-76.942-76.944c-8.499-8.499-8.499-22.279 0-30.777l15.388-15.389c1.331-1.331 2.803-2.428 4.351-3.343-4.923 8.344-3.825 19.258 3.343 26.426z" fill="#002e35"/><path d="m278.219 401.323c17.78-20.565 37.746-42.062 59.396-63.713 21.651-21.652 43.146-41.618 63.711-59.397l64.932 64.933c-17.78 20.565-37.745 42.062-59.395 63.713-21.651 21.652-43.146 41.618-63.711 59.397z" fill="#ffb150"/><path d="m375.488 333.166c3.1 3.207 3.047 8.3-.095 11.442-.033.033-.067.066-.1.098-5.145 4.973-10.333 10.075-15.42 15.163-12.878 12.878-25.461 26.013-37.402 39.039-.082.089-.165.176-.25.261-3.071 3.072-8.046 3.206-11.28.24-3.323-3.045-3.547-8.208-.502-11.53 12.1-13.201 24.85-26.509 37.893-39.552 5.152-5.152 10.406-10.319 15.617-15.356 3.24-3.132 8.407-3.045 11.539.195zm12.388-22.726-.327.3c-3.293 3.036-3.525 8.218-.47 11.531 3.055 3.315 8.218 3.525 11.531.47l.281-.259.013-.012c.091-.083.18-.168.266-.255 3.069-3.069 3.198-8.035.239-11.269-3.038-3.325-8.208-3.549-11.533-.506z" fill="#fff"/><path d="m443.175 320.063 23.083 23.083c-17.78 20.565-37.745 42.062-59.395 63.713-21.651 21.652-43.146 41.618-63.711 59.397l-23.082-23.083c20.565-17.78 42.061-37.746 63.711-59.397s41.616-43.147 59.394-63.713z" fill="#d18839"/><path d="m506.474 279.595-41.598-41.599c-6.673-6.674-17.382-7.392-24.911-1.671-27.474 20.882-57.085 46.412-86.717 74.706l-71.464-71.467c-.002-.001-.003-.003-.005-.005s-.003-.003-.005-.004l-134.065-134.067c.728-2.03 1.127-4.184 1.127-6.404 0-5.067-1.974-9.83-5.555-13.411l-76.941-76.945c-11.637-11.637-30.572-11.637-42.209 0l-15.389 15.389c-5.638 5.637-8.742 13.133-8.742 21.106s3.104 15.469 8.742 21.106l76.942 76.944c3.697 3.697 8.554 5.546 13.41 5.546 2.169 0 4.331-.389 6.396-1.126l205.547 205.549c-28.295 29.632-53.823 59.244-74.703 86.719-5.721 7.528-5.003 18.238 1.671 24.912l41.597 41.598c3.658 3.659 8.528 5.529 13.423 5.529 4.035-.001 8.087-1.272 11.488-3.857 34.081-25.903 71.449-58.95 108.066-95.567 36.62-36.621 69.665-73.991 95.564-108.068 5.722-7.526 5.005-18.237-1.669-24.913zm-388.252-142.039 19.343-19.344 127.062 127.065-19.343 19.344zm-98.047-82.662c-2.584-2.584-4.005-6.017-4.005-9.671s1.423-7.089 4.005-9.672l15.389-15.388c2.667-2.667 6.169-4 9.672-4 3.502 0 7.005 1.333 9.672 4l76.942 76.944c.712.712.819 1.545.819 1.977s-.107 1.264-.819 1.977l-30.772 30.773c-.002.001-.003.003-.005.004l-.001.001c-1.092 1.089-2.864 1.089-3.954-.001zm236.543 221.16 19.343-19.344 65.565 65.566c-3.247 3.179-6.491 6.378-9.728 9.615-3.237 3.238-6.436 6.482-9.615 9.729zm38.011 219.216c-1.122.85-2.709.752-3.694-.233l-41.598-41.599c-.984-.984-1.083-2.572-.231-3.694 8.987-11.826 18.872-24.064 29.467-36.534l52.589 52.591c-12.468 10.597-24.708 20.481-36.533 29.469zm106.417-94.128c-19.21 19.211-38.611 37.399-57.612 54.063l-54.264-54.265c16.664-19.002 34.852-38.403 54.061-57.613 19.21-19.21 38.611-37.398 57.612-54.063l54.263 54.264c-16.662 19-34.849 38.402-54.06 57.614zm94.125-106.419c-8.986 11.825-18.871 24.064-29.467 36.534l-52.589-52.59c12.469-10.596 24.709-20.481 36.533-29.469.511-.388 1.118-.579 1.72-.579.721 0 1.438.274 1.974.811l41.597 41.598c.984.986 1.085 2.573.232 3.695z"/></svg>