<svg viewBox="0 0 480.517 480.517" xmlns="http://www.w3.org/2000/svg"><path d="M446.935 273.842c0-114.139-92.531-206.672-206.675-206.672-114.147 0-206.677 92.532-206.677 206.672 0 114.143 92.53 206.675 206.677 206.675 114.144 0 206.675-92.532 206.675-206.675z" fill="#afebff"/><path d="M97.877 146.212c6.989 8.644 20.653 22.056 38.539 22.706.457.017.912.026 1.369.026 13.795 0 27.034-7.637 39.453-22.733 6.987 8.644 20.654 22.056 38.541 22.706.457.017.912.026 1.368.026 13.794 0 27.035-7.637 39.453-22.733 6.989 8.644 20.655 22.056 38.542 22.706.455.017.911.026 1.367.026 15.739 0 30.757-9.939 44.653-29.557a5.726 5.726 0 1 0-9.343-6.62c-11.625 16.413-23.509 24.725-35.341 24.725-.293 0-.585-.004-.881-.015-15.998-.557-28.55-16.079-32.802-22.054-.179-1.56-.975-3.04-2.356-4.018-1.097-.777-2.374-1.088-3.618-1.019a5.659 5.659 0 0 0-3.441.792c-1.49.9-2.397 2.374-2.662 3.966-11.07 14.829-22.359 22.348-33.602 22.348-.292 0-.585-.004-.88-.015-16.001-.557-28.551-16.079-32.802-22.054-.181-1.56-.977-3.04-2.359-4.018-1.098-.777-2.373-1.088-3.618-1.019a5.659 5.659 0 0 0-3.44.792c-1.489.9-2.396 2.374-2.661 3.966-11.07 14.829-22.36 22.348-33.603 22.348-.293 0-.585-.004-.88-.015-15.999-.557-28.549-16.079-32.802-22.054a5.682 5.682 0 0 0-2.355-4.018c-1.1-.777-2.374-1.088-3.62-1.019a5.657 5.657 0 0 0-3.44.792c-1.49.9-2.396 2.374-2.66 3.966-6.61 8.85-13.291 15.075-20 18.673a207.92 207.92 0 0 0-9.699 14.902c12.399-1.297 24.328-8.828 35.58-22.505zm337.881 168.114c-.292 0-.584-.004-.879-.015-15.999-.558-28.55-16.079-32.801-22.055-.18-1.559-.976-3.038-2.357-4.018-1.098-.777-2.376-1.088-3.621-1.019a5.659 5.659 0 0 0-3.439.792c-1.489.9-2.397 2.375-2.661 3.966-11.07 14.828-22.36 22.349-33.603 22.349-.293 0-.585-.004-.88-.015-15.999-.558-28.55-16.079-32.802-22.055-.18-1.559-.976-3.038-2.357-4.018-1.1-.777-2.374-1.088-3.619-1.019a5.657 5.657 0 0 0-3.44.792c-1.49.9-2.397 2.375-2.662 3.966-11.07 14.828-22.359 22.349-33.602 22.349-.293 0-.585-.004-.88-.015-16-.558-28.551-16.079-32.802-22.055-.182-1.559-.977-3.038-2.358-4.018-1.099-.777-2.374-1.088-3.619-1.019a5.659 5.659 0 0 0-3.44.792c-1.489.9-2.396 2.375-2.661 3.966-11.071 14.828-22.36 22.349-33.605 22.349-.292 0-.585-.004-.879-.015-19.66-.685-34.117-23.968-34.358-24.365a5.722 5.722 0 0 0-7.86-1.935 5.724 5.724 0 0 0-1.938 7.861c.712 1.18 17.773 28.937 43.698 29.88.457.017.913.026 1.369.026 13.794 0 27.036-7.637 39.454-22.733 6.988 8.644 20.654 22.056 38.541 22.706.457.017.912.026 1.368.026 13.795 0 27.035-7.637 39.453-22.733 6.988 8.644 20.655 22.056 38.541 22.706.457.017.911.026 1.368.026 13.794 0 27.036-7.637 39.453-22.733 6.99 8.644 20.656 22.056 38.542 22.706.456.017.912.026 1.368.026 1.556 0 3.103-.125 4.645-.319a205.916 205.916 0 0 0 2.735-12.238c-2.47.724-4.942 1.108-7.412 1.108zM140.056 448.51c13.795 0 27.036-7.637 39.453-22.733 6.989 8.644 20.655 22.056 38.542 22.705.456.018.912.027 1.368.027 15.738 0 30.756-9.939 44.654-29.557a5.728 5.728 0 0 0-1.364-7.983 5.724 5.724 0 0 0-7.98 1.361c-11.626 16.414-23.511 24.726-35.342 24.726-.293 0-.585-.004-.88-.016-15.999-.558-28.55-16.078-32.802-22.054-.18-1.56-.976-3.039-2.357-4.018-1.098-.778-2.373-1.088-3.621-1.02a5.667 5.667 0 0 0-3.438.792c-1.489.901-2.397 2.375-2.661 3.967-11.07 14.828-22.36 22.348-33.604 22.348-.293 0-.585-.004-.88-.016-15.999-.558-28.55-16.078-32.799-22.054-.182-1.56-.976-3.039-2.359-4.018-1.1-.778-2.376-1.088-3.62-1.02a5.677 5.677 0 0 0-3.44.792c-1.487.901-2.397 2.375-2.661 3.967a99.864 99.864 0 0 1-2.348 3.023 208.012 208.012 0 0 0 33.074 27.677c4.218 1.736 8.792 2.896 13.697 3.074.456.021.912.03 1.368.03z" fill="#e2f8ff"/><path d="M106.059 241.109H60.547l-2.161 5.725h47.155c.168-1.888.346-3.816.518-5.725z" fill="#505b66"/><path d="M186.244 74.317c-21.748-29.53-38.674-49.362-45.259-56.859v437.691c1.621.889 3.253 1.761 4.898 2.608h188.749a205.824 205.824 0 0 0 19.495-11.427c-25.28-157.64-112.264-296.487-167.883-372.013z" fill="#fce8ac"/><path d="M186.244 74.317c-21.748-29.53-38.674-49.362-45.259-56.859v20.726c7.3 9.086 16.044 20.33 25.763 33.526 55.62 75.525 142.604 214.373 167.884 372.012a205.95 205.95 0 0 1-19.495 11.427H140.985c1.621.889 3.253 1.761 4.898 2.608h188.749a205.824 205.824 0 0 0 19.495-11.427c-25.28-157.64-112.264-296.487-167.883-372.013z" fill="#f0dda4"/><path d="M240.259 480.517c29.238 0 57.051-6.085 82.261-17.034H157.996c25.21 10.949 53.024 17.034 82.263 17.034z" fill="#fce8ac"/><path d="M157.996 463.483H322.52a205.562 205.562 0 0 0 12.112-5.726H145.883a206.5 206.5 0 0 0 12.113 5.726z" fill="#505b66"/><path d="M93.007 418.848c.716.727 1.436 1.449 2.163 2.165l.048-2.165zm2.329-5.724c-.025 1.17-.049 2.307-.071 3.456 1.043-48.679 4.718-111.095 12.178-190.479V116.744L36.075 305.993c6.395 40.931 24.795 77.878 51.494 107.131z" fill="#fce8ac"/><path d="m99.587 137.576-1.972 82.212c-9.09 76.886-14.223 137.826-16.538 185.83 2.112 2.547 4.26 5.063 6.491 7.507h7.767c-.025 1.17-.049 2.307-.071 3.456 1.043-48.679 4.718-111.095 12.178-190.479V116.744z" fill="#f0dda4"/><path d="m95.218 418.848.047-2.268c-.016.759-.033 1.517-.047 2.268zm.046-2.268c.022-1.149.046-2.286.071-3.456h-7.767a206.952 206.952 0 0 0 5.438 5.724h2.211l.047-2.268z" fill="#505b66"/><path d="M108.129 114.927c-.231.192-.456.386-.687.58v1.238z" fill="#ea7053"/><path d="M237.937 151.093h-99.962v5.725h103.449a1228.78 1228.78 0 0 0-3.487-5.725zm84.826 174.685H137.975v5.724h186.786c-.664-1.909-1.322-3.825-1.998-5.724z" fill="#505b66"/><path d="M124.212 0c-9.261 0-16.77 7.509-16.77 16.773v98.734c.23-.194.455-.388.687-.58l-.687 1.817V432.18a207.317 207.317 0 0 0 30.533 21.286 214.74 214.74 0 0 0 3.01 1.683V16.772C140.985 7.509 133.478 0 124.212 0z" fill="#ea7053"/></svg>