<?xml version="1.0" encoding="iso-8859-1"?>
<!-- Generator: Adobe Illustrator 19.0.0, SVG Export Plug-In . SVG Version: 6.00 Build 0)  -->
<svg version="1.1" id="Layer_1" xmlns="http://www.w3.org/2000/svg" xmlns:xlink="http://www.w3.org/1999/xlink" x="0px"
  y="0px" viewBox="0 0 512 512" style="enable-background:new 0 0 512 512;" xml:space="preserve">
  <circle style="fill:#31BAFD;" cx="256" cy="256" r="256" />
  <path style="fill:#2B9ED8;" d="M279.836,510.886c89.824-8.295,166.195-62.986,204.931-139.897L256,142.222l-83.896,97.113
	l-26.879,95.534l23.349,23.349l-20.627,20.78L279.836,510.886z" />
  <g>
    <circle style="fill:#324A5E;" cx="161.358" cy="365.365" r="19.135" />
    <circle style="fill:#324A5E;" cx="224.453" cy="365.365" r="19.135" />
  </g>
  <g>
    <circle style="fill:#2B3B4E;" cx="287.547" cy="365.365" r="19.135" />
    <circle style="fill:#2B3B4E;" cx="350.642" cy="365.365" r="19.135" />
  </g>
  <polygon style="fill:#F1543F;" points="354.263,367.623 157.737,367.623 157.737,334.869 166.357,334.869 166.357,359.003
	345.643,359.003 345.643,334.869 354.263,334.869 " />
  <polygon style="fill:#C1321F;" points="354.263,334.869 345.643,334.869 345.643,359.003 256,359.003 256,367.623 354.263,367.623
	" />
  <path style="fill:#FFFFFF;" d="M312.889,256H256V142.222H142.222v183.453c0,8.649,7.011,15.658,15.658,15.658h209.024
	c8.649,0,15.658-7.011,15.658-15.658l0,0C382.564,287.194,351.368,256,312.889,256z" />
  <path style="fill:#E6F3FF;" d="M312.889,256H256v85.333h110.904c8.649,0,15.658-7.011,15.658-15.658l0,0
	C382.564,287.194,351.368,256,312.889,256z" />
  <path style="fill:#FC6F58;" d="M142.222,313.751v11.924c0,8.649,7.011,15.658,15.658,15.658h209.024
	c8.649,0,15.658-7.011,15.658-15.658l0,0c0-4.067-0.369-8.047-1.038-11.924H142.222z" />
  <path style="fill:#F1543F;" d="M381.526,313.751H256v27.582h110.904c8.649,0,15.658-7.011,15.658-15.658l0,0
	C382.564,321.607,382.195,317.628,381.526,313.751z" />
  <path style="fill:#E6F3FF;" d="M244.938,256H256V142.222h-28.444v96.396C227.556,248.217,235.339,256,244.938,256z" />
  <g>
    <rect x="227.556" y="166.357" style="fill:#FC6F58;" width="28.444" height="8.62" />
    <rect x="227.556" y="194.801" style="fill:#FC6F58;" width="28.444" height="8.62" />
    <rect x="227.556" y="223.246" style="fill:#FC6F58;" width="28.444" height="8.62" />
  </g>
  <g>
  </g>
  <g>
  </g>
  <g>
  </g>
  <g>
  </g>
  <g>
  </g>
  <g>
  </g>
  <g>
  </g>
  <g>
  </g>
  <g>
  </g>
  <g>
  </g>
  <g>
  </g>
  <g>
  </g>
  <g>
  </g>
  <g>
  </g>
  <g>
  </g>
</svg>
