<svg enable-background="new 0 0 512 512" viewBox="0 0 512 512" xmlns="http://www.w3.org/2000/svg"><circle cx="256" cy="256" fill="#31bafd" r="256"/><path d="m279.836 510.886c89.824-8.295 166.195-62.986 204.931-139.897l-228.767-228.767-83.896 97.113-26.879 95.534 23.349 23.349-20.627 20.78z" fill="#2b9ed8"/><circle cx="161.358" cy="365.365" fill="#324a5e" r="19.135"/><circle cx="224.453" cy="365.365" fill="#324a5e" r="19.135"/><circle cx="287.547" cy="365.365" fill="#2b3b4e" r="19.135"/><circle cx="350.642" cy="365.365" fill="#2b3b4e" r="19.135"/><path d="m354.263 367.623h-196.526v-32.754h8.62v24.134h179.286v-24.134h8.62z" fill="#f1543f"/><path d="m354.263 334.869h-8.62v24.134h-89.643v8.62h98.263z" fill="#c1321f"/><path d="m312.889 256h-56.889v-113.778h-113.778v183.453c0 8.649 7.011 15.658 15.658 15.658h209.024c8.649 0 15.658-7.011 15.658-15.658.002-38.481-31.194-69.675-69.673-69.675z" fill="#fff"/><path d="m312.889 256h-56.889v85.333h110.904c8.649 0 15.658-7.011 15.658-15.658.002-38.481-31.194-69.675-69.673-69.675z" fill="#e6f3ff"/><path d="m142.222 313.751v11.924c0 8.649 7.011 15.658 15.658 15.658h209.024c8.649 0 15.658-7.011 15.658-15.658 0-4.067-.369-8.047-1.038-11.924z" fill="#fc6f58"/><path d="m381.526 313.751h-125.526v27.582h110.904c8.649 0 15.658-7.011 15.658-15.658.002-4.068-.367-8.047-1.036-11.924z" fill="#f1543f"/><path d="m244.938 256h11.062v-113.778h-28.444v96.396c0 9.599 7.783 17.382 17.382 17.382z" fill="#e6f3ff"/><g fill="#fc6f58"><path d="m227.556 166.357h28.444v8.62h-28.444z"/><path d="m227.556 194.801h28.444v8.62h-28.444z"/><path d="m227.556 223.246h28.444v8.62h-28.444z"/></g></svg>