<svg viewBox="0 0 512 512" xmlns="http://www.w3.org/2000/svg"><circle cx="256" cy="256" fill="#31bafd" r="256"/><path d="M279.836 510.886c89.824-8.295 166.195-62.986 204.931-139.897L256 142.222l-83.896 97.113-26.879 95.534 23.349 23.349-20.627 20.78z" fill="#2b9ed8"/><circle cx="161.358" cy="365.365" fill="#324a5e" r="19.135"/><circle cx="224.453" cy="365.365" fill="#324a5e" r="19.135"/><circle cx="287.547" cy="365.365" fill="#2b3b4e" r="19.135"/><circle cx="350.642" cy="365.365" fill="#2b3b4e" r="19.135"/><path d="M354.263 367.623H157.737v-32.754h8.62v24.134h179.286v-24.134h8.62z" fill="#f1543f"/><path d="M354.263 334.869h-8.62v24.134H256v8.62h98.263z" fill="#c1321f"/><path d="M312.889 256H256V142.222H142.222v183.453c0 8.649 7.011 15.658 15.658 15.658h209.024c8.649 0 15.658-7.011 15.658-15.658.002-38.481-31.194-69.675-69.673-69.675z" fill="#fff"/><path d="M312.889 256H256v85.333h110.904c8.649 0 15.658-7.011 15.658-15.658.002-38.481-31.194-69.675-69.673-69.675z" fill="#e6f3ff"/><path d="M142.222 313.751v11.924c0 8.649 7.011 15.658 15.658 15.658h209.024c8.649 0 15.658-7.011 15.658-15.658 0-4.067-.369-8.047-1.038-11.924z" fill="#fc6f58"/><path d="M381.526 313.751H256v27.582h110.904c8.649 0 15.658-7.011 15.658-15.658a69.833 69.833 0 0 0-1.036-11.924z" fill="#f1543f"/><path d="M244.938 256H256V142.222h-28.444v96.396c0 9.599 7.783 17.382 17.382 17.382z" fill="#e6f3ff"/><path d="M227.556 166.357H256v8.62h-28.444zm0 28.444H256v8.62h-28.444zm0 28.445H256v8.62h-28.444z" fill="#fc6f58"/></svg>