<svg viewBox="0 0 512 512" xmlns="http://www.w3.org/2000/svg"><circle cx="256" cy="256" fill="#273b7a" r="256"/><path d="M511.995 256.271 312.889 56.889l-1.648 112.58-111.72-111.72-16.784 390.473 63.578 63.578c3.215.121 6.441.2 9.687.2 141.291 0 255.848-114.469 255.993-255.729z" fill="#121149"/><path d="M199.111 455.111c-15.71 0-28.444-12.734-28.444-28.444V125.561a97.108 97.108 0 0 1 28.444-68.67 97.108 97.108 0 0 1 28.444 68.67v301.106c.001 15.71-12.734 28.444-28.444 28.444z" fill="#71e2ef"/><path d="M199.111 56.889c-.197.197-.379.405-.574.603v397.59c.193.003.381.029.574.029 15.71 0 28.444-12.734 28.444-28.444V125.559a97.11 97.11 0 0 0-28.444-68.67z" fill="#38c6d9"/><path d="M312.889 455.111c-15.71 0-28.444-12.734-28.444-28.444V125.561a97.108 97.108 0 0 1 28.444-68.67 97.108 97.108 0 0 1 28.444 68.67v301.106c0 15.71-12.734 28.444-28.444 28.444z" fill="#71e2ef"/><path d="M313.177 57.192v397.905c15.575-.157 28.157-12.819 28.157-28.431V125.559a97.113 97.113 0 0 0-28.157-68.367z" fill="#38c6d9"/><path d="M187.475 230.141h23.273c6.427 0 11.636-5.21 11.636-11.636 0-6.427-5.21-11.636-11.636-11.636h-23.273c-6.427 0-11.636 5.21-11.636 11.636-.001 6.427 5.209 11.636 11.636 11.636z" fill="#366695"/><path d="M210.747 206.869h-12.21v23.273h12.21c6.427 0 11.636-5.21 11.636-11.636.001-6.428-5.209-11.637-11.636-11.637z" fill="#273b7a"/><path d="M187.475 307.717h23.273c6.427 0 11.636-5.21 11.636-11.636 0-6.427-5.21-11.636-11.636-11.636h-23.273c-6.427 0-11.636 5.21-11.636 11.636-.001 6.427 5.209 11.636 11.636 11.636z" fill="#366695"/><path d="M210.747 284.444h-12.21v23.273h12.21c6.427 0 11.636-5.21 11.636-11.636.001-6.427-5.209-11.637-11.636-11.637z" fill="#273b7a"/><path d="M301.253 230.141h23.273c6.427 0 11.636-5.21 11.636-11.636 0-6.427-5.21-11.636-11.636-11.636h-23.273c-6.427 0-11.636 5.21-11.636 11.636-.001 6.427 5.209 11.636 11.636 11.636z" fill="#366695"/><path d="M324.525 206.869h-11.348v23.273h11.348c6.427 0 11.636-5.21 11.636-11.636.001-6.428-5.209-11.637-11.636-11.637z" fill="#273b7a"/><path d="M301.253 307.717h23.273c6.427 0 11.636-5.21 11.636-11.636 0-6.427-5.21-11.636-11.636-11.636h-23.273c-6.427 0-11.636 5.21-11.636 11.636-.001 6.427 5.209 11.636 11.636 11.636z" fill="#366695"/><path d="M324.525 284.444h-11.348v23.273h11.348c6.427 0 11.636-5.21 11.636-11.636.001-6.427-5.209-11.637-11.636-11.637z" fill="#273b7a"/></svg>