<svg viewBox="0 0 512 512" xmlns="http://www.w3.org/2000/svg"><path d="M256 0c141.385 0 256 114.615 256 256a257.02 257.02 0 0 1-5.517 52.966H5.518A256.952 256.952 0 0 1 0 256C0 114.615 114.615 0 256 0z" fill="#a5d2f0"/><path d="M256 512C114.615 512 0 397.385 0 256h512c0 141.385-114.615 256-256 256z" fill="#6e9be0"/><path d="M512 256c0 2.962-.131 5.89-.232 8.828H.232C.131 261.89 0 258.962 0 256c0-2.961.124-5.891.223-8.828h511.554c.099 2.937.223 5.867.223 8.828zM388.414 361.931h44.138a8.829 8.829 0 0 0 0-17.656h-44.138a8.829 8.829 0 0 0 0 17.656zm-97.104 0h61.793a8.829 8.829 0 0 0 0-17.656H291.31a8.829 8.829 0 0 0 0 17.656z" fill="#5c83ce"/><path d="M194.207 361.931h44.138a8.829 8.829 0 0 0 0-17.656h-44.138a8.829 8.829 0 0 0 0 17.656z" fill="#87b4f0"/><path d="M61.793 326.621h150.069a8.829 8.829 0 0 0 0-17.656H61.793a8.829 8.829 0 0 0 0 17.656zm176.552 0h132.414a8.829 8.829 0 0 0 0-17.656H238.345a8.829 8.829 0 0 0 0 17.656zm167.724 0h8.828a8.829 8.829 0 0 0 0-17.656h-8.828a8.829 8.829 0 0 0 0 17.656zM256 467.862h52.966a8.829 8.829 0 0 0 0-17.656H256a8.829 8.829 0 0 0 0 17.656z" fill="#5c83ce"/><path d="M150.069 361.931h8.828a8.829 8.829 0 0 0 0-17.656h-8.828a8.829 8.829 0 0 0 0 17.656z" fill="#87b4f0"/><path d="M220.69 432.552h44.138a8.829 8.829 0 0 0 0-17.656H220.69a8.829 8.829 0 0 0 0 17.656zm-44.138 0h8.828a8.829 8.829 0 0 0 0-17.656h-8.828a8.829 8.829 0 0 0 0 17.656z" fill="#5c83ce"/><path d="M256 397.241h26.483a8.829 8.829 0 0 0 0-17.656H256a8.829 8.829 0 0 0 0 17.656zm-167.724 0h26.483a8.829 8.829 0 0 0 0-17.656H88.276a8.829 8.829 0 0 0 0 17.656zm17.655-35.31h8.828a8.829 8.829 0 0 0 0-17.656h-8.828a8.829 8.829 0 0 0 0 17.656zm220.69 70.621h35.31a8.829 8.829 0 0 0 0-17.656h-35.31a8.829 8.829 0 0 0 0 17.656zm-8.828-35.311h8.828a8.829 8.829 0 0 0 0-17.656h-8.828a8.829 8.829 0 0 0 0 17.656z" fill="#87b4f0"/><path d="m449.207 164.833-12.331-17.523-22.621-14.897h-47.172l-144.255 16.029a25.674 25.674 0 0 0-20.626 15.089l-49.504 111.385-68.098 34.05h132.414l35.31-114.759 124.505-35.126 16 13.793 29.426 13.977 6.069-4.919-17.103-14.208v-8.828l26.114 16.415a5.484 5.484 0 0 0 5.738.06l4.47-2.682a5.482 5.482 0 0 0 1.664-7.856z" fill="#ffd7af"/><path d="M367.681 308.966c5.123-14.492 3.986-31.081-4.559-45.169v-.001c-15.108-24.907-47.848-32.924-72.755-17.815l-22.643 13.735c-17.538 10.638-26.653 30.018-25.265 49.25z" fill="#ffd7af"/><path d="M367.681 308.966c5.123-14.492 3.986-31.081-4.559-45.17-15.107-24.907-47.848-32.924-72.755-17.815l-3.774 2.29 36.818 60.695z" fill="#ff5050"/><path d="m333.736 308.966-39.477-65.081c-1.311.652-2.617 1.325-3.891 2.097l-11.321 6.868 34.039 56.117h20.65z" fill="#b43c3c"/><path d="m282.264 292.195-4.578-7.548c-3.793-6.253-1.799-14.396 4.454-18.189 6.252-3.793 14.396-1.799 18.189 4.454l4.578 7.548c3.793 6.252 1.799 14.396-4.454 18.188-6.253 3.793-14.396 1.799-18.189-4.453zm41.147 16.771-.191-.316c-3.793-6.252-11.936-8.247-18.188-4.454-1.99 1.207-3.493 2.882-4.572 4.769z" fill="#643c46"/></svg>