<svg enable-background="new 0 0 512 512" viewBox="0 0 512 512" xmlns="http://www.w3.org/2000/svg"><path d="m256 0c141.385 0 256 114.615 256 256 0 18.163-1.921 35.872-5.517 52.966h-500.965c-3.597-17.094-5.518-34.803-5.518-52.966 0-141.385 114.615-256 256-256z" fill="#a5d2f0"/><path d="m256 512c-141.385 0-256-114.615-256-256h512c0 141.385-114.615 256-256 256z" fill="#6e9be0"/><path d="m512 256c0 2.962-.131 5.89-.232 8.828h-511.536c-.101-2.938-.232-5.866-.232-8.828 0-2.961.124-5.891.223-8.828h511.554c.099 2.937.223 5.867.223 8.828z" fill="#5c83ce"/><path d="m388.414 361.931h44.138c4.875 0 8.828-3.953 8.828-8.828 0-4.875-3.953-8.828-8.828-8.828h-44.138c-4.875 0-8.828 3.953-8.828 8.828 0 4.875 3.953 8.828 8.828 8.828z" fill="#5c83ce"/><path d="m291.31 361.931h61.793c4.875 0 8.828-3.953 8.828-8.828 0-4.875-3.953-8.828-8.828-8.828h-61.793c-4.875 0-8.828 3.953-8.828 8.828.001 4.875 3.953 8.828 8.828 8.828z" fill="#5c83ce"/><path d="m194.207 361.931h44.138c4.875 0 8.828-3.953 8.828-8.828 0-4.875-3.953-8.828-8.828-8.828h-44.138c-4.875 0-8.828 3.953-8.828 8.828 0 4.875 3.953 8.828 8.828 8.828z" fill="#87b4f0"/><path d="m61.793 326.621h150.069c4.875 0 8.828-3.953 8.828-8.828 0-4.875-3.953-8.828-8.828-8.828h-150.069c-4.875 0-8.828 3.953-8.828 8.828.001 4.875 3.953 8.828 8.828 8.828z" fill="#5c83ce"/><path d="m238.345 326.621h132.414c4.875 0 8.828-3.953 8.828-8.828 0-4.875-3.953-8.828-8.828-8.828h-132.414c-4.875 0-8.828 3.953-8.828 8.828 0 4.875 3.953 8.828 8.828 8.828z" fill="#5c83ce"/><path d="m406.069 326.621h8.828c4.875 0 8.828-3.953 8.828-8.828 0-4.875-3.953-8.828-8.828-8.828h-8.828c-4.875 0-8.828 3.953-8.828 8.828 0 4.875 3.953 8.828 8.828 8.828z" fill="#5c83ce"/><path d="m256 467.862h52.966c4.875 0 8.828-3.953 8.828-8.828 0-4.875-3.953-8.828-8.828-8.828h-52.966c-4.875 0-8.828 3.953-8.828 8.828 0 4.876 3.953 8.828 8.828 8.828z" fill="#5c83ce"/><path d="m150.069 361.931h8.828c4.875 0 8.828-3.953 8.828-8.828 0-4.875-3.953-8.828-8.828-8.828h-8.828c-4.875 0-8.828 3.953-8.828 8.828 0 4.875 3.953 8.828 8.828 8.828z" fill="#87b4f0"/><path d="m220.69 432.552h44.138c4.875 0 8.828-3.953 8.828-8.828 0-4.875-3.953-8.828-8.828-8.828h-44.138c-4.875 0-8.828 3.953-8.828 8.828 0 4.875 3.953 8.828 8.828 8.828z" fill="#5c83ce"/><path d="m176.552 432.552h8.828c4.875 0 8.828-3.953 8.828-8.828 0-4.875-3.953-8.828-8.828-8.828h-8.828c-4.875 0-8.828 3.953-8.828 8.828 0 4.875 3.953 8.828 8.828 8.828z" fill="#5c83ce"/><g fill="#87b4f0"><path d="m256 397.241h26.483c4.875 0 8.828-3.953 8.828-8.828 0-4.875-3.953-8.828-8.828-8.828h-26.483c-4.875 0-8.828 3.953-8.828 8.828 0 4.876 3.953 8.828 8.828 8.828z"/><path d="m88.276 397.241h26.483c4.875 0 8.828-3.953 8.828-8.828 0-4.875-3.953-8.828-8.828-8.828h-26.483c-4.875 0-8.828 3.953-8.828 8.828 0 4.876 3.953 8.828 8.828 8.828z"/><path d="m105.931 361.931h8.828c4.875 0 8.828-3.953 8.828-8.828 0-4.875-3.953-8.828-8.828-8.828h-8.828c-4.875 0-8.828 3.953-8.828 8.828 0 4.875 3.953 8.828 8.828 8.828z"/><path d="m326.621 432.552h35.31c4.875 0 8.828-3.953 8.828-8.828 0-4.875-3.953-8.828-8.828-8.828h-35.31c-4.875 0-8.828 3.953-8.828 8.828 0 4.875 3.953 8.828 8.828 8.828z"/><path d="m317.793 397.241h8.828c4.875 0 8.828-3.953 8.828-8.828 0-4.875-3.953-8.828-8.828-8.828h-8.828c-4.875 0-8.828 3.953-8.828 8.828.001 4.876 3.953 8.828 8.828 8.828z"/></g><path d="m449.207 164.833-12.331-17.523-22.621-14.897h-47.172l-144.255 16.029c-9.068 1.007-16.92 6.752-20.626 15.089l-49.504 111.385-68.098 34.05h132.414l35.31-114.759 124.505-35.126 16 13.793 29.426 13.977 6.069-4.919-17.103-14.208v-8.828l26.114 16.415c1.749 1.099 3.967 1.122 5.738.06l4.47-2.682c2.732-1.639 3.497-5.252 1.664-7.856z" fill="#ffd7af"/><path d="m367.681 308.966c5.123-14.492 3.986-31.081-4.559-45.169v-.001c-15.108-24.907-47.848-32.924-72.755-17.815l-22.643 13.735c-17.538 10.638-26.653 30.018-25.265 49.25z" fill="#ffd7af"/><path d="m367.681 308.966c5.123-14.492 3.986-31.081-4.559-45.17-15.107-24.907-47.848-32.924-72.755-17.815l-3.774 2.29 36.818 60.695z" fill="#ff5050"/><path d="m333.736 308.966-39.477-65.081c-1.311.652-2.617 1.325-3.891 2.097l-11.321 6.868 34.039 56.117h20.65z" fill="#b43c3c"/><path d="m282.264 292.195-4.578-7.548c-3.793-6.253-1.799-14.396 4.454-18.189 6.252-3.793 14.396-1.799 18.189 4.454l4.578 7.548c3.793 6.252 1.799 14.396-4.454 18.188-6.253 3.793-14.396 1.799-18.189-4.453z" fill="#643c46"/><path d="m323.411 308.966-.191-.316c-3.793-6.252-11.936-8.247-18.188-4.454-1.99 1.207-3.493 2.882-4.572 4.769z" fill="#643c46"/></svg>