<?xml version="1.0" standalone="no"?>
<!DOCTYPE svg PUBLIC "-//W3C//DTD SVG 20010904//EN" "http://www.w3.org/TR/2001/REC-SVG-20010904/DTD/svg10.dtd">
<svg version="1.0" xmlns="http://www.w3.org/2000/svg" width="555.000000pt" height="555.000000pt" viewBox="0 0 555 555"
  preserveAspectRatio="xMidYMid meet">

  <g transform="translate(50,500) scale(0.08,-0.08)" fill="#29337a" stroke="none">
    <path d="M3708 5226 c-27 -24 -48 -51 -48 -60 0 -24 -38 -142 -66 -204 -13
-29 -24 -59 -24 -68 0 -8 -8 -32 -18 -52 -72 -144 -98 -191 -123 -223 -16 -20
-29 -42 -29 -48 0 -11 -33 -53 -62 -80 -10 -8 -18 -20 -18 -26 0 -15 -184
-199 -260 -258 -25 -20 -55 -45 -68 -56 -12 -12 -24 -21 -26 -21 -2 0 -37 -20
-77 -45 -41 -25 -81 -49 -89 -54 -24 -13 -84 -44 -100 -52 -84 -39 -117 -53
-144 -60 -17 -4 -65 -19 -106 -33 -109 -37 -199 -56 -335 -68 -157 -14 -506
-4 -600 18 -38 8 -88 18 -110 20 -22 3 -49 10 -60 14 -49 22 -131 50 -147 50
-18 0 -93 32 -181 76 -26 13 -53 24 -60 24 -7 0 -31 13 -53 30 -21 16 -46 30
-55 30 -9 0 -23 7 -30 17 -8 9 -27 22 -44 30 -32 15 -86 51 -123 83 -34 29
-93 27 -131 -6 -27 -23 -31 -32 -31 -78 0 -42 5 -57 23 -74 13 -12 27 -22 33
-22 5 0 22 -14 38 -30 16 -17 35 -30 41 -30 7 0 24 -11 39 -25 15 -14 33 -25
40 -25 7 0 24 -9 37 -21 13 -11 38 -27 54 -35 17 -8 41 -21 55 -29 104 -60
346 -154 490 -189 194 -49 297 -64 488 -75 201 -11 492 15 632 56 47 14 103
29 125 33 42 8 169 51 220 75 92 41 247 119 290 145 28 16 57 33 65 37 8 3 57
38 109 77 52 39 101 76 109 81 8 6 44 39 81 73 36 35 76 71 89 79 12 8 22 20
22 26 0 5 21 33 48 62 26 28 58 66 72 84 14 18 31 39 38 46 6 8 12 16 12 20 0
6 41 63 64 90 9 11 33 57 80 151 76 155 106 224 112 255 3 19 12 51 20 72 30
81 5 163 -65 211 -32 23 -47 26 -117 26 l-79 0 -47 -44z" />
    <path d="M5185 4181 c-47 -13 -298 -121 -315 -136 -8 -7 -32 -20 -53 -29 -21
-8 -45 -22 -53 -31 -9 -8 -21 -15 -27 -15 -7 0 -25 -11 -41 -25 -16 -14 -35
-25 -42 -25 -7 0 -25 -13 -41 -28 -15 -16 -34 -31 -40 -33 -50 -17 -393 -347
-393 -378 0 -5 -8 -16 -18 -23 -20 -15 -72 -83 -72 -94 0 -4 -17 -28 -39 -53
-21 -26 -41 -56 -45 -69 -4 -12 -13 -28 -19 -34 -11 -12 -72 -131 -89 -173 -4
-11 -19 -47 -33 -80 -15 -33 -30 -78 -35 -100 -5 -22 -25 -103 -46 -180 l-37
-140 -1 -240 c-1 -228 1 -246 26 -355 48 -202 60 -243 100 -338 21 -51 38 -98
38 -105 0 -7 13 -31 29 -53 16 -21 46 -70 66 -109 21 -38 41 -72 45 -75 4 -3
19 -26 33 -51 15 -25 42 -62 61 -81 18 -18 35 -39 37 -45 2 -7 48 -59 102
-117 111 -120 137 -132 245 -123 47 5 71 13 98 34 49 39 64 72 64 144 l0 63
-130 126 c-71 69 -130 130 -130 136 0 5 -8 17 -17 26 -85 78 -185 237 -257
408 -47 112 -76 193 -76 213 0 12 -7 54 -15 92 -8 39 -20 120 -26 180 -22 210
29 526 112 699 10 22 19 46 19 53 0 7 11 31 25 53 14 22 25 44 25 49 0 5 7 14
15 21 8 7 15 19 15 27 0 16 31 62 72 108 16 16 28 33 28 37 0 3 18 26 40 50
22 23 40 46 40 51 0 12 171 179 245 240 123 100 133 107 143 107 6 0 26 14 44
30 18 17 40 30 49 30 9 0 22 7 29 16 14 16 252 134 273 134 22 1 92 37 120 63
35 33 37 85 4 123 -18 21 -34 27 -73 30 -27 2 -62 -1 -79 -5z" />
    <path d="M650 2756 c-58 -8 -130 -18 -160 -24 -30 -6 -79 -13 -108 -17 -201
-23 -281 -191 -153 -321 24 -25 43 -33 85 -38 60 -8 86 -5 231 29 259 60 607
61 845 3 47 -11 104 -24 127 -29 24 -5 68 -20 98 -34 31 -14 61 -25 67 -25 19
0 254 -118 268 -135 7 -8 20 -15 30 -15 9 0 28 -10 41 -23 13 -13 41 -33 62
-46 20 -12 37 -26 37 -31 0 -5 8 -11 18 -14 35 -11 308 -294 324 -335 3 -10
20 -33 37 -52 17 -18 34 -43 37 -54 4 -11 26 -51 49 -90 110 -179 192 -472
210 -753 5 -64 1 -142 -9 -230 -21 -174 -21 -172 15 -209 36 -39 86 -44 135
-14 26 16 33 29 47 96 32 142 42 322 29 485 -7 82 -19 173 -27 204 -8 32 -15
69 -15 84 0 29 -46 180 -75 247 -59 134 -112 246 -137 283 -16 24 -38 62 -49
85 -12 22 -28 47 -36 55 -8 9 -25 31 -38 51 -13 20 -39 53 -59 75 -20 21 -36
41 -36 43 0 20 -229 240 -300 289 -19 13 -55 40 -80 59 -25 19 -59 42 -77 50
-17 8 -38 21 -46 29 -8 8 -29 22 -48 30 -19 9 -47 24 -64 33 -152 83 -302 142
-505 197 -52 14 -106 26 -120 26 -14 0 -77 9 -140 20 -149 27 -373 33 -510 16z" />
  </g>
</svg>
