<svg height="740" viewBox="0 0 555 555" width="740" xmlns="http://www.w3.org/2000/svg"><path d="M346.64 81.92c-2.16 1.92-3.84 4.08-3.84 4.8 0 1.92-3.04 11.36-5.28 16.32-1.04 2.32-1.92 4.72-1.92 5.44 0 .64-.64 2.56-1.44 4.16-5.76 11.52-7.84 15.28-9.84 17.84-1.28 1.6-2.32 3.36-2.32 3.84 0 .88-2.64 4.24-4.96 6.4-.8.64-1.44 1.6-1.44 2.08 0 1.2-14.72 15.92-20.8 20.64-2 1.6-4.4 3.6-5.44 4.48-.96.96-1.92 1.68-2.08 1.68s-2.96 1.6-6.16 3.6c-3.28 2-6.48 3.92-7.12 4.32-1.92 1.04-6.72 3.52-8 4.16-6.72 3.12-9.36 4.24-11.52 4.8-1.36.32-5.2 1.52-8.48 2.64-8.72 2.96-15.92 4.48-26.8 5.44-12.56 1.12-40.48.32-48-1.44-3.04-.64-7.04-1.44-8.8-1.6-1.76-.24-3.92-.8-4.8-1.12-3.92-1.76-10.48-4-11.76-4-1.44 0-7.44-2.56-14.48-6.08-2.08-1.04-4.24-1.92-4.8-1.92s-2.48-1.04-4.24-2.4c-1.68-1.28-3.68-2.4-4.4-2.4s-1.84-.56-2.4-1.36c-.64-.72-2.16-1.76-3.52-2.4-2.56-1.2-6.88-4.08-9.84-6.64-2.72-2.32-7.44-2.16-10.48.48-2.16 1.84-2.48 2.56-2.48 6.24 0 3.36.4 4.56 1.84 5.92 1.04.96 2.16 1.76 2.64 1.76.4 0 1.76 1.12 3.04 2.4 1.28 1.36 2.8 2.4 3.28 2.4.56 0 1.92.88 3.12 2s2.64 2 3.2 2 1.92.72 2.96 1.68c1.04.88 3.04 2.16 4.32 2.8 1.36.64 3.28 1.68 4.4 2.32 8.32 4.8 27.68 12.32 39.2 15.12 15.52 3.92 23.76 5.12 39.04 6 16.08.88 39.36-1.2 50.56-4.48 3.76-1.12 8.24-2.32 10-2.64 3.36-.64 13.52-4.08 17.6-6 7.36-3.28 19.76-9.52 23.2-11.6 2.24-1.28 4.56-2.64 5.2-2.96.64-.24 4.56-3.04 8.72-6.16s8.08-6.08 8.72-6.48c.64-.48 3.52-3.12 6.48-5.84 2.88-2.8 6.08-5.68 7.12-6.32.96-.64 1.76-1.6 1.76-2.08 0-.4 1.68-2.64 3.84-4.96 2.08-2.24 4.64-5.28 5.76-6.72s2.48-3.12 3.04-3.68c.48-.64.96-1.28.96-1.6 0-.48 3.28-5.04 5.12-7.2.72-.88 2.64-4.56 6.4-12.08 6.08-12.4 8.48-17.92 8.96-20.4.24-1.52.96-4.08 1.6-5.76 2.4-6.48.4-13.04-5.2-16.88-2.56-1.84-3.76-2.08-9.36-2.08h-6.32zm118.16 83.6c-3.76 1.04-23.84 9.68-25.2 10.88-.64.56-2.56 1.6-4.24 2.32-1.68.64-3.6 1.76-4.24 2.48-.72.64-1.68 1.2-2.16 1.2-.56 0-2 .88-3.28 2s-2.8 2-3.36 2-2 1.04-3.28 2.24c-1.2 1.28-2.72 2.48-3.2 2.64-4 1.36-31.44 27.76-31.44 30.24 0 .4-.64 1.28-1.44 1.84-1.6 1.2-5.76 6.64-5.76 7.52 0 .32-1.36 2.24-3.12 4.24-1.68 2.08-3.28 4.48-3.6 5.52-.32.96-1.04 2.24-1.52 2.72-.88.96-5.76 10.48-7.12 13.84-.32.88-1.52 3.76-2.64 6.4-1.2 2.64-2.4 6.24-2.8 8s-2 8.24-3.68 14.4l-2.96 11.2-.08 19.2c-.08 18.24.08 19.68 2.08 28.4 3.84 16.16 4.8 19.44 8 27.04 1.68 4.08 3.04 7.84 3.04 8.4s1.04 2.48 2.32 4.24c1.28 1.68 3.68 5.6 5.28 8.72 1.68 3.04 3.28 5.76 3.6 6s1.52 2.08 2.64 4.08c1.2 2 3.36 4.96 4.88 6.48 1.44 1.44 2.8 3.12 2.96 3.6.16.56 3.84 4.72 8.16 9.36 8.88 9.6 10.96 10.56 19.6 9.84 3.76-.4 5.68-1.04 7.84-2.72 3.92-3.12 5.12-5.76 5.12-11.52v-5.04l-10.4-10.08c-5.68-5.52-10.4-10.4-10.4-10.88 0-.4-.64-1.36-1.36-2.08-6.8-6.24-14.8-18.96-20.56-32.64-3.76-8.96-6.08-15.44-6.08-17.04 0-.96-.56-4.32-1.2-7.36-.64-3.12-1.6-9.6-2.08-14.4-1.76-16.8 2.32-42.08 8.96-55.92.8-1.76 1.52-3.68 1.52-4.24s.88-2.48 2-4.24 2-3.52 2-3.92.56-1.12 1.2-1.68 1.2-1.52 1.2-2.16c0-1.28 2.48-4.96 5.76-8.64 1.28-1.28 2.24-2.64 2.24-2.96 0-.24 1.44-2.08 3.2-4 1.76-1.84 3.2-3.68 3.2-4.08 0-.96 13.68-14.32 19.6-19.2 9.84-8 10.64-8.56 11.44-8.56.48 0 2.08-1.12 3.52-2.4 1.44-1.36 3.2-2.4 3.92-2.4s1.76-.56 2.32-1.28c1.12-1.28 20.16-10.72 21.84-10.72 1.76-.08 7.36-2.96 9.6-5.04 2.8-2.64 2.96-6.8.32-9.84-1.44-1.68-2.72-2.16-5.84-2.4-2.16-.16-4.96.08-6.32.4zm-362.8 114c-4.64.64-10.4 1.44-12.8 1.92s-6.32 1.04-8.64 1.36c-16.08 1.84-22.48 15.28-12.24 25.68 1.92 2 3.44 2.64 6.8 3.04 4.8.64 6.88.4 18.48-2.32 20.72-4.8 48.56-4.88 67.6-.24 3.76.88 8.32 1.92 10.16 2.32 1.92.4 5.44 1.6 7.84 2.72 2.48 1.12 4.88 2 5.36 2 1.52 0 20.32 9.44 21.44 10.8.56.64 1.6 1.2 2.4 1.2.72 0 2.24.8 3.28 1.84s3.28 2.64 4.96 3.68c1.6.96 2.96 2.08 2.96 2.48s.64.88 1.44 1.12c2.8.88 24.64 23.52 25.92 26.8.24.8 1.6 2.64 2.96 4.16 1.36 1.44 2.72 3.44 2.96 4.32.32.88 2.08 4.08 3.92 7.2 8.8 14.32 15.36 37.76 16.8 60.24.4 5.12.08 11.36-.72 18.4-1.68 13.92-1.68 13.76 1.2 16.72 2.88 3.12 6.88 3.52 10.8 1.12 2.08-1.28 2.64-2.32 3.76-7.68 2.56-11.36 3.36-25.76 2.32-38.8-.56-6.56-1.52-13.84-2.16-16.32-.64-2.56-1.2-5.52-1.2-6.72 0-2.32-3.68-14.4-6-19.76-4.72-10.72-8.96-19.68-10.96-22.64-1.28-1.92-3.04-4.96-3.92-6.8-.96-1.76-2.24-3.76-2.88-4.4-.64-.72-2-2.48-3.04-4.08s-3.12-4.24-4.72-6c-1.6-1.68-2.88-3.28-2.88-3.44 0-1.6-18.32-19.2-24-23.12-1.52-1.04-4.4-3.2-6.4-4.72s-4.72-3.36-6.16-4c-1.36-.64-3.04-1.68-3.68-2.32s-2.32-1.76-3.84-2.4c-1.52-.72-3.76-1.92-5.12-2.64-12.16-6.64-24.16-11.36-40.4-15.76-4.16-1.12-8.48-2.08-9.6-2.08s-6.16-.72-11.2-1.6c-11.92-2.16-29.84-2.64-40.8-1.28z" fill="#29337a"/></svg>