<svg enable-background="new 0 0 291.32 291.32" viewBox="0 0 291.32 291.32" xmlns="http://www.w3.org/2000/svg"><path d="m145.66 0c80.113 0 145.66 65.547 145.66 145.66s-65.547 145.66-145.66 145.66-145.66-65.548-145.66-145.66 65.547-145.66 145.66-145.66z" fill="#34526f"/><path d="m182.074 180.254h-2.731-.91-18.207s-.91 0-.91-.91 0-1.821 0-3.641v-33.684s0-.91.91-.91h24.58s.91 0 .91-.91v-34.594s0-.91-.91-.91h-24.58s-.91 0-.91-.91v-32.776s0-.91-.91-.91h-19.118-6.373-17.297c-2.731 0-6.373 2.731-7.283 6.373-1.821 17.297-10.014 28.222-25.49 32.773l-.91.91v.91 30.042s0 .91.91.91h11.835 3.641v36.415c0 29.132 20.028 43.698 58.264 43.698 15.476 0 30.042-5.462 35.505-11.835l.91-.91zm2.731 27.311c-4.552 4.552-14.566 8.193-23.67 8.193h-.91c-30.953 0-39.146-23.67-39.146-37.325v-42.787s0-.91-.91-.91h-14.566s-.91 0-.91-.91v-19.118-.91c15.476-6.373 24.58-18.207 27.311-37.325 0-.91.91-.91.91-.91h20.028s.91 0 .91.91v33.684s0 .91.91.91h24.58s.91 0 .91.91v22.759s0 .91-.91.91h-24.58s-.91 0-.91.91v40.056c0 9.104 4.552 13.656 12.745 13.656 3.641 0 7.283-.91 10.924-1.821h.91l6.374 19.118c0-.911 0-.911 0 0z" fill="#fff"/></svg>