<svg enable-background="new 0 0 419.585 419.585" height="512" viewBox="0 0 419.585 419.585" width="512" xmlns="http://www.w3.org/2000/svg"><circle cx="209.805" cy="209.782" fill="#0071ce" r="209.78"/><circle cx="209.805" cy="209.782" fill="#e8e8e8" r="209.78"/><path d="m209.805.002c-31.97 0-62.262 7.164-89.379 19.955 94.548-6.881 175.748 30.945 218.085 88.311l.002.006c6.819-15.469 12.042-32.537 15.255-51.063-37.569-35.463-88.224-57.209-143.963-57.209z" fill="#00b3e3"/><path d="m294.424 170.758c-47.708-64.721-144.871-104.602-254.878-83.534-15.815 21.932-27.496 47.038-33.905 74.185 87.882-32.288 169.337-2.957 204.164 48.373 29.157-2.119 59.264-15.648 84.621-39.02z" fill="#00b3e3"/><g fill="#0071ce"><path d="m391.48 314.671c15.985-27.688 24.927-57.504 27.408-87.383-41.315 85.322-114.672 136.729-185.521 144.712l-.007-.001c9.987 13.639 22.158 26.697 36.596 38.742 49.494-14.804 93.655-47.8 121.524-96.07z"/><path d="m201.292 302.575c79.904-8.957 163.023-73.162 199.782-178.964-11.087-24.662-26.988-47.332-47.294-66.455-15.979 92.253-82.107 148.13-143.975 152.625-12.743 26.311-16.08 59.148-8.518 92.794z"/><path d="m28.132 314.671c15.984 27.688 37.336 50.339 61.972 67.428-53.234-78.442-61.076-167.675-32.564-233.023l.004-.006c-16.805 1.83-34.199 5.842-51.85 12.322-11.925 50.266-5.431 105.008 22.438 153.279z"/></g><path d="m57.54 149.079c-28.512 65.347-20.669 154.579 32.563 233.02 29.384 20.382 63.446 32.832 98.694 36.409-73.25-84.734-87.291-188.819-55.098-262.497l.002-.003c-22.885-7.143-48.744-9.92-76.158-6.938z" fill="#ffc843"/><path d="m133.7 156.011c-32.193 73.678-18.15 177.763 55.098 262.499 26.9 2.728 54.484.293 81.198-7.73-71.903-59.965-87.232-145.172-60.191-200.998-16.413-24.191-43.184-43.5-76.104-53.773z" fill="#0071ce"/></svg>