<?xml version="1.0" encoding="iso-8859-1"?>
<!-- Generator: Adobe Illustrator 19.0.0, SVG Export Plug-In . SVG Version: 6.00 Build 0)  -->
<svg version="1.1" id="Layer_1" xmlns="http://www.w3.org/2000/svg" xmlns:xlink="http://www.w3.org/1999/xlink" x="0px"
  y="0px" viewBox="0 0 512 512" style="enable-background:new 0 0 512 512;" xml:space="preserve">
  <circle style="fill:#FEE187;" cx="256" cy="256" r="256" />
  <path style="fill:#FFC61B;" d="M283.008,88.207l-14.653,284.157l7.913,7.913L256,442.613l61.849,61.847
	c93.896-23.297,167.315-98.413,188.164-193.252L283.008,88.207z" />
  <path style="fill:#273B7A;" d="M292.633,305.907V112.916c0-20.232-16.401-36.633-36.633-36.633s-36.633,16.401-36.633,36.633
	v192.991c-21.894,12.669-36.633,36.326-36.633,63.44c0,40.464,32.802,73.266,73.266,73.266s73.266-32.802,73.266-73.266
	C329.266,342.233,314.525,318.576,292.633,305.907z" />
  <path style="fill:#121149;" d="M292.633,305.907V112.916c0-20.232-16.401-36.633-36.633-36.633c-0.193,0-0.381,0.026-0.574,0.029
	v366.287c0.191,0.002,0.381,0.014,0.574,0.014c40.464,0,73.266-32.802,73.266-73.266
	C329.266,342.233,314.525,318.576,292.633,305.907z" />
  <path style="fill:#71E2EF;" d="M274.501,331.433v-28.486c0-10.218-8.283-18.501-18.501-18.501c-10.218,0-18.501,8.283-18.501,18.501
	v28.486c-14.022,6.856-23.681,21.254-23.681,37.914c0,23.297,18.885,42.184,42.184,42.184s42.184-18.885,42.184-42.184
	C298.182,352.687,288.523,338.287,274.501,331.433z" />
  <path style="fill:#38C6D9;" d="M274.501,331.433v-28.486c0-10.218-8.283-18.501-18.501-18.501c-0.193,0-0.381,0.022-0.574,0.029
	v127.042c0.191,0.002,0.381,0.016,0.574,0.016c23.297,0,42.184-18.887,42.184-42.184
	C298.182,352.687,288.523,338.287,274.501,331.433z" />
</svg>
