<svg enable-background="new 0 0 512 512" viewBox="0 0 512 512" xmlns="http://www.w3.org/2000/svg"><circle cx="256" cy="256" fill="#fee187" r="256"/><path d="m283.008 88.207-14.653 284.157 7.913 7.913-20.268 62.336 61.849 61.847c93.896-23.297 167.315-98.413 188.164-193.252z" fill="#ffc61b"/><path d="m292.633 305.907v-192.991c0-20.232-16.401-36.633-36.633-36.633s-36.633 16.401-36.633 36.633v192.991c-21.894 12.669-36.633 36.326-36.633 63.44 0 40.464 32.802 73.266 73.266 73.266s73.266-32.802 73.266-73.266c0-27.114-14.741-50.771-36.633-63.44z" fill="#273b7a"/><path d="m292.633 305.907v-192.991c0-20.232-16.401-36.633-36.633-36.633-.193 0-.381.026-.574.029v366.287c.191.002.381.014.574.014 40.464 0 73.266-32.802 73.266-73.266 0-27.114-14.741-50.771-36.633-63.44z" fill="#121149"/><path d="m274.501 331.433v-28.486c0-10.218-8.283-18.501-18.501-18.501s-18.501 8.283-18.501 18.501v28.486c-14.022 6.856-23.681 21.254-23.681 37.914 0 23.297 18.885 42.184 42.184 42.184s42.184-18.885 42.184-42.184c-.004-16.66-9.663-31.06-23.685-37.914z" fill="#71e2ef"/><path d="m274.501 331.433v-28.486c0-10.218-8.283-18.501-18.501-18.501-.193 0-.381.022-.574.029v127.042c.191.002.381.016.574.016 23.297 0 42.184-18.887 42.184-42.184-.002-16.662-9.661-31.062-23.683-37.916z" fill="#38c6d9"/></svg>