<svg enable-background="new 0 0 512 512" viewBox="0 0 512 512" xmlns="http://www.w3.org/2000/svg"><circle cx="256" cy="256" fill="#f2cf61" r="256"/><path d="m396 320c-15.82-52-34.14-93.176-44-116-32.168 1.468-92-30.324-92-72 0-28-24.032-49.172-52-20-10.044 10.46-68 72-68 72l200.256 200h127.744v-19.92c0-23.708-21.256-44.08-44-44.08z" fill="#cc584c"/><path d="m424 320h-28c-15.82-52-34.14-93.176-44-116-32.168 1.468-92-30.324-92-72 0-28-24.032-49.172-52-20-.916.952-2.236 2.336-3.86 4.048 26.156-23.064 47.86-2.652 47.86 23.952 0 41.676 59.832 73.468 92 72 9.86 22.824 28.18 64 44 116h28c22.744 0 44 20.368 44 44.08v11.92h8v-19.92c0-23.712-21.256-44.08-44-44.08z" fill="#b34d43"/><path d="m348.256 360-192.732-192.48c-4.784 5.08-8.876 9.416-11.644 12.36l196.376 196.12h127.744v-11.92c0-1.372-.084-2.732-.228-4.08z" fill="#b34d43"/><path d="m378.128 267.544c-1.456-3.868-2.896-7.604-4.312-11.248l-108.508 52.852 8.984 8.972z" fill="#f5f5f5"/><path d="m249.292 293.152 8.984 8.972 112.076-54.588c-1.544-3.856-3.064-7.588-4.528-11.14z" fill="#f5f5f5"/><path d="m385.452 287.764c-1.352-3.868-2.712-7.672-4.06-11.368l-100.08 48.744 8.984 8.968z" fill="#f5f5f5"/><path d="m424 320h-28c-15.82-52-34.14-93.176-44-116-8.868.404-20.444 18.12-13.176 35.268 9.596 22.64 20.568 49.928 29.36 76.688 1.324 4.032 5.732 12.044 12.732 12.044h19.084c22.744 0 44 20.368 44 44.08l24 1.812v-9.812c0-23.712-21.256-44.08-44-44.08z" fill="#b34d43"/><path d="m348.256 368-196.612-196.36c-6.944 7.368-11.644 12.36-11.644 12.36l200.256 200h127.744v-16z" fill="#e6e6e6"/><circle cx="352.16" cy="236" fill="#f5f5f5" r="8"/><circle cx="352.16" cy="236" fill="#242424" r="4"/><circle cx="360.16" cy="260" fill="#f5f5f5" r="8"/><circle cx="360.16" cy="260" fill="#242424" r="4"/><circle cx="372.16" cy="284" fill="#f5f5f5" r="8"/><circle cx="372.16" cy="284" fill="#242424" r="4"/><circle cx="380.16" cy="308" fill="#f5f5f5" r="8"/><circle cx="380.16" cy="308" fill="#242424" r="4"/><path d="m217.672 126.332c8.5 5.832 8.828 11.832 12.664 20.832 3.62 8.496 25.344 22.012 40.108 14.672-6.452-9.028-10.444-19.1-10.444-29.84 0-28-24.032-49.172-52-20-2.948 3.072-10.04 10.56-18.572 19.584 5.116-5.404 19.744-11.08 28.244-5.248z" fill="#f5f5f5"/><path d="m34.336 384c44.268 76.496 126.924 128 221.664 128s177.396-51.504 221.664-128z" fill="#242424"/><path d="m472.82 392c1.656-2.636 3.28-5.3 4.844-8h-443.328c1.564 2.7 3.188 5.364 4.844 8z" fill="#263740"/><g fill="#f5f5f5"><path d="m136 228h-48c-4.416 0-8-3.584-8-8s3.584-8 8-8h48c4.416 0 8 3.584 8 8s-3.584 8-8 8z"/><path d="m56 228h-8c-4.416 0-8-3.584-8-8s3.584-8 8-8h8c4.416 0 8 3.584 8 8s-3.584 8-8 8z"/><path d="m136 268h-88c-4.416 0-8-3.584-8-8s3.584-8 8-8h88c4.416 0 8 3.584 8 8s-3.584 8-8 8z"/><path d="m176 268h-8c-4.416 0-8-3.584-8-8s3.584-8 8-8h8c4.416 0 8 3.584 8 8s-3.584 8-8 8z"/><path d="m88 308h-40c-4.416 0-8-3.584-8-8s3.584-8 8-8h40c4.416 0 8 3.584 8 8s-3.584 8-8 8z"/><path d="m208 308h-8c-4.416 0-8-3.584-8-8s3.584-8 8-8h8c4.416 0 8 3.584 8 8s-3.584 8-8 8z"/><path d="m168 308h-8c-4.416 0-8-3.584-8-8s3.584-8 8-8h8c4.416 0 8 3.584 8 8s-3.584 8-8 8z"/><path d="m128 308h-8c-4.416 0-8-3.584-8-8s3.584-8 8-8h8c4.416 0 8 3.584 8 8s-3.584 8-8 8z"/></g></svg>