<svg enable-background="new 0 0 512 512" viewBox="0 0 512 512" xmlns="http://www.w3.org/2000/svg"><path d="m74.313 44.782 50.516 50.516c9.3 9.3 24.378 9.3 33.678 0 9.3-9.3 9.3-24.378 0-33.678l-50.516-50.516z" fill="#fbb03b"/><path d="m467.218 437.687-50.516-50.516c-9.3-9.3-9.3-24.378 0-33.678 9.3-9.3 24.378-9.3 33.678 0l50.516 50.516z" fill="#fcc062"/><path d="m7.852 504.148c0-271.806 220.342-492.148 492.148-492.148h.001c.001 271.805-220.342 492.148-492.149 492.148z" fill="#00a99d"/><path d="m500.002 12c-15.602-.001-31.009.81-46.239 2.23-21.9 234.882-208.798 421.78-443.68 443.678-1.42 15.23-2.231 30.638-2.231 46.239 271.807.001 492.15-220.342 492.15-492.147z" fill="#66cbc4"/><path d="m499.535 11.533-116.574 16.347 101.455 101.455z" fill="#fbb03b"/><path d="m499.535 8.393-50.24 3.809-7.688 75.372 44.903 44.902z" fill="#fcc062"/><circle cx="253.922" cy="258.078" fill="#29abe2" r="79.381"/><path d="m326.895 185.105c-40.299-40.299-105.637-40.299-145.936 0s-40.299 105.637 0 145.936 105.637 40.299 145.936 0 40.298-105.637 0-145.936zm-129.097 129.098c-30.999-30.999-30.999-81.26 0-112.258 31-31 81.26-31 112.258 0 31 30.999 31 81.258 0 112.258-30.999 30.999-81.259 30.999-112.258 0z" fill="#fff"/><path d="m242.701 336.654 22.452-22.451c18.599-18.599 18.599-48.755 0-67.355-18.599-18.599-48.755-18.599-67.355 0l-22.451 22.452c-.001 0 5.017 57.356 67.354 67.354z" fill="#fbb03b"/><path d="m62.684 401.772h79.381v15.704h-79.381z" fill="#fff" transform="matrix(-.7071 -.7071 .7071 -.7071 -114.8841 771.6624)"/><path d="m133.745 441.056h15.872v15.704h-15.872z" transform="matrix(-.7071 -.7071 .7071 -.7071 -75.5621 866.5181)"/><path d="m55.155 362.479h15.872v15.704h-15.872z" transform="matrix(-.7071 -.7071 .7071 -.7071 -154.1598 676.8069)"/><path d="m85.142 379.321h79.381v15.704h-79.381z" fill="#fff" transform="matrix(-.7071 -.7071 .7071 -.7071 -60.6705 749.2154)"/><path d="m156.189 418.609h15.872v15.704h-15.872z" transform="matrix(-.7071 -.7071 .7071 -.7071 -21.3746 844.0693)"/><path d="m77.604 340.021h15.872v15.704h-15.872z" transform="matrix(-.7071 -.7071 .7071 -.7071 -99.9581 654.3418)"/><path d="m107.597 356.871h79.381v15.704h-79.381z" fill="#fff" transform="matrix(-.7071 -.7071 .7071 -.7071 -6.4629 726.7687)"/><path d="m178.644 396.149h15.872v15.704h-15.872z" transform="matrix(-.7071 -.7071 .7071 -.7071 32.8404 821.6045)"/><path d="m100.051 317.565h15.872v15.704h-15.872z" transform="matrix(-.7071 -.7071 .7071 -.7071 -45.7595 631.8808)"/><path d="m190.825 289.505h47.626v15.704h-47.626z" transform="matrix(-.7071 -.7071 .7071 -.7071 156.1466 659.392)"/><path d="m455.932 347.941c-10.43-10.431-26.387-12.05-38.533-4.855l-18.915-18.915c28.638-35.739 52.119-75.099 70.073-117.547 26.075-61.648 39.296-127.129 39.296-194.626v-7.851h-7.852c-67.496 0-132.978 13.221-194.624 39.296-42.447 17.953-81.807 41.435-117.547 70.073l-18.915-18.915c7.193-12.145 5.576-28.102-4.855-38.533l-56.069-56.068-44.782 44.782 56.068 56.068c5.98 5.981 13.933 9.275 22.392 9.275 5.774 0 11.31-1.537 16.147-4.414l17.862 17.862c-10.052 8.587-19.803 17.592-29.231 27.02-45.916 45.917-81.967 99.388-107.151 158.928-26.075 61.65-39.296 127.131-39.296 194.627l.001 7.852h7.852c67.496 0 132.978-13.221 194.624-39.296 59.541-25.184 113.012-61.234 158.928-107.151 9.428-9.428 18.432-19.179 27.019-29.23l17.863 17.862c-2.877 4.836-4.414 10.373-4.414 16.147 0 8.458 3.294 16.41 9.275 22.392l56.068 56.068 44.784-44.782zm-298.897-265.219-9.814-9.814-11.104 11.104 9.814 9.814c-5.36 1.477-11.344.125-15.549-4.08l-44.965-44.964 22.574-22.573 44.964 44.964c4.205 4.205 5.556 10.189 4.08 15.549zm193.267 271.727c-44.479 44.479-96.273 79.4-153.941 103.792-53.799 22.755-110.621 35.399-169.174 37.679l69.518-69.518-11.105-11.104-69.518 69.519c2.278-58.554 14.924-115.376 37.678-169.175 24.391-57.67 59.312-109.464 103.79-153.943 9.43-9.43 19.191-18.425 29.265-26.986l21.928 21.928c-12.1 5.373-23.43 13.005-33.338 22.913-41.43 41.43-43.211 107.717-5.353 151.289l-17.098 17.098 11.104 11.104 17.098-17.098c20.804 18.076 46.786 27.119 72.77 27.119 28.436 0 56.873-10.824 78.521-32.473 9.906-9.906 17.54-21.238 22.913-33.338l21.927 21.928c-8.561 10.074-17.556 19.836-26.985 29.266zm-34.694-158.057c-19.123-19.123-44.989-27.493-70.016-25.113l-7.21-7.21c5.145-.844 10.343-1.292 15.544-1.292 24.414 0 48.83 9.293 67.417 27.88 22.547 22.547 31.391 53.666 26.588 82.961l-7.174-7.174c.262-2.766.401-5.557.401-8.371 0-23.299-9.074-45.205-25.55-61.681zm9.475 54.378-63.803-63.803c15.794 1.619 31.149 8.455 43.224 20.53 11.772 11.772 18.931 26.927 20.579 43.273zm-85.044-62.835 84.064 84.065c-2.708 13.798-9.434 26.485-19.599 36.65-11.773 11.773-26.928 18.932-43.273 20.579l9.474-9.474c10.479-10.478 16.249-24.41 16.249-39.23 0-14.819-5.771-28.752-16.25-39.23-21.63-21.631-56.827-21.63-78.459 0l-9.474 9.474c1.647-16.345 8.806-31.5 20.579-43.273 10.402-10.401 23.236-16.918 36.689-19.561zm-.038 140.315c-13.798-2.709-26.485-9.434-36.651-19.599-10.165-10.166-16.891-22.853-19.599-36.651l19.599-19.599c15.509-15.509 40.743-15.509 56.251 0 15.509 15.509 15.509 40.742 0 56.251zm-47.755-131.858c-16.476 16.476-25.549 38.382-25.549 61.681 0 23.3 9.073 45.206 25.549 61.681 16.475 16.476 38.381 25.549 61.682 25.549 23.3 0 45.206-9.074 61.681-25.549 9.946-9.946 17.172-21.879 21.356-34.895l6.333 6.333c-4.617 12.517-11.919 24.259-21.954 34.296-37.174 37.172-97.658 37.173-134.832 0-37.173-37.173-37.173-97.658 0-134.832 10.036-10.036 21.779-17.337 34.296-21.954l6.377 6.377c-12.785 4.097-24.812 11.184-34.939 21.313zm195.061 116.602-26.152-26.152c9.242-34.677 1.454-72.983-23.354-101.537l17.098-17.098-11.104-11.104-17.098 17.097c-28.554-24.808-66.861-32.594-101.537-23.354l-26.152-26.152c34.255-27.246 71.914-49.625 112.488-66.786 22.036-9.32 44.58-16.937 67.541-22.848l15.276 15.275 11.104-11.104-8.424-8.424c31.059-6.729 62.828-10.38 95.095-10.891-.512 32.267-4.162 64.035-10.891 95.094l-8.425-8.425-11.104 11.104 15.274 15.275c-5.911 22.961-13.528 45.506-22.848 67.541-17.161 40.575-39.541 78.234-66.787 112.489zm34.948 68.625c-4.205-4.205-5.557-10.188-4.081-15.549l9.814 9.814 11.104-11.104-9.814-9.814c1.394-.384 2.827-.587 4.262-.587 4.087 0 8.175 1.556 11.286 4.667l44.964 44.964-22.573 22.574z"/><path d="m416.641 50.456-11.104 11.104 16.899 16.9-67.416 67.415 11.105 11.106 67.416-67.417 16.899 16.9 11.104-11.105z"/><g fill="#fff"><path d="m389.206 139.993h15.704v39.689h-15.704z" transform="matrix(-.7071 -.7071 .7071 -.7071 564.7977 553.6221)"/><path d="m344.308 95.101h15.704v39.689h-15.704z" transform="matrix(-.7071 -.7071 .7071 -.7071 519.8969 445.2396)"/></g></svg>