<svg enable-background="new 0 0 512 512" viewBox="0 0 512 512" xmlns="http://www.w3.org/2000/svg"><circle cx="256" cy="256" fill="#fff59b" r="256"/><path d="m3.87 300.138c20.926 120.339 125.806 211.862 252.13 211.862s231.204-91.523 252.13-211.862z" fill="#ffd782"/><path d="m220.69 344.276h-141.242c-4.875 0-8.828-3.953-8.828-8.828s3.953-8.828 8.828-8.828h141.242c4.875 0 8.828 3.953 8.828 8.828-.001 4.875-3.953 8.828-8.828 8.828z" fill="#ffb469"/><path d="m432.552 344.276h-141.242c-4.875 0-8.828-3.953-8.828-8.828s3.953-8.828 8.828-8.828h141.241c4.875 0 8.828 3.953 8.828 8.828s-3.952 8.828-8.827 8.828z" fill="#ffb469"/><path d="m480.103 379.586c3.179-5.757 6.155-11.638 8.894-17.655h-465.993c2.738 6.017 5.714 11.898 8.893 17.655z" fill="#6ec8e6"/><path d="m70.761 432.552c5.888 6.181 12.06 12.087 18.535 17.655h333.407c6.476-5.568 12.647-11.474 18.535-17.655z" fill="#ff5550"/><path d="m349.432 494.345c12.628-4.958 24.792-10.84 36.349-17.655h-259.562c11.556 6.815 23.721 12.697 36.349 17.655z" fill="#46415f"/><path d="m419.794 292.793-49.035-32.69v-65.897c0-4.876-3.953-8.828-8.828-8.828s-8.828 3.951-8.828 8.828v65.897l-49.035 32.69c-4.057 2.705-5.153 8.185-2.449 12.242 1.7 2.552 4.5 3.933 7.353 3.933 1.682 0 3.383-.481 4.888-1.484l48.069-32.046 48.07 32.046c1.505 1.004 3.206 1.484 4.888 1.484 2.854 0 5.653-1.38 7.353-3.933 2.706-4.057 1.61-9.538-2.446-12.242z" fill="#46415f"/><path d="m150.069 344.276c-43.808 0-79.448-35.64-79.448-79.448s35.64-79.448 79.448-79.448 79.448 35.64 79.448 79.448-35.64 79.448-79.448 79.448zm0-141.242c-34.073 0-61.793 27.721-61.793 61.793s27.72 61.793 61.793 61.793 61.793-27.721 61.793-61.793-27.72-61.793-61.793-61.793z" fill="#413241"/><circle cx="150.069" cy="264.828" fill="#46415f" r="61.793"/><path d="m361.931 344.276c-43.808 0-79.448-35.64-79.448-79.448s35.64-79.448 79.448-79.448 79.448 35.64 79.448 79.448-35.64 79.448-79.448 79.448zm0-141.242c-34.073 0-61.793 27.721-61.793 61.793s27.72 61.793 61.793 61.793 61.793-27.721 61.793-61.793-27.72-61.793-61.793-61.793z" fill="#413241"/><path d="m361.931 176.552c-4.875 0-8.828-3.953-8.828-8.828s3.953-8.828 8.828-8.828c2.435 0 4.414-1.978 4.414-4.414s-1.978-4.414-4.414-4.414h-17.655v17.655c0 4.875-3.953 8.828-8.828 8.828s-8.828-3.953-8.828-8.828v-26.483c0-4.875 3.953-8.828 8.828-8.828h26.483c12.168 0 22.069 9.901 22.069 22.069s-9.901 22.071-22.069 22.071z" fill="#46415f"/><path d="m370.447 262.505-26.483-97.103c-.01-.035-.026-.066-.038-.102-.243-.852-.615-1.671-1.116-2.429-.038-.057-.074-.115-.113-.171-.237-.342-.499-.67-.789-.981-.053-.056-.109-.109-.163-.164-.119-.121-.233-.246-.36-.362-.158-.143-.324-.273-.49-.403-.044-.035-.085-.073-.13-.107-.341-.258-.698-.483-1.064-.685-.064-.035-.129-.068-.194-.103-.386-.201-.78-.377-1.185-.518-.017-.006-.033-.009-.05-.014-.408-.138-.824-.239-1.244-.316-.06-.011-.118-.025-.178-.034-.426-.068-.854-.102-1.283-.107-.042-.001-.081-.01-.121-.01h-138.638l-12.591-22.035c-2.418-4.232-7.808-5.705-12.044-3.285-4.234 2.419-5.704 7.811-3.286 12.044l25.752 45.067-51.631 68.843c-2.005 2.675-2.328 6.254-.833 9.244s4.552 4.879 7.895 4.879h97.105c2.472 0 4.847-1.038 6.531-2.89l77.459-85.204 22.252 81.589c1.07 3.926 4.628 6.507 8.511 6.507.769 0 1.55-.102 2.327-.313 4.702-1.28 7.476-6.133 6.192-10.837zm-140.93-6.505h-61.793l36.458-48.611 28.017 49.028c-.846-.269-1.746-.417-2.682-.417zm19.293-6.098-41.913-73.351h108.596z" fill="#6ec8e6"/><path d="m119.474 255.996c-1.5 0-3.021-.384-4.418-1.19-4.215-2.444-5.655-7.844-3.211-12.065 3.88-6.694 9.465-12.276 16.151-16.142 4.22-2.453 9.625-.995 12.061 3.224 2.44 4.22.995 9.621-3.224 12.061-4.018 2.323-7.375 5.681-9.711 9.711-1.639 2.823-4.601 4.401-7.648 4.401z" fill="#567795"/><path d="m150.069 308.966c-15.699 0-30.34-8.448-38.216-22.047-2.444-4.22-1.004-9.617 3.215-12.061 4.224-2.449 9.625-1 12.061 3.215 4.728 8.163 13.517 13.237 22.94 13.237 4.655 0 9.233-1.224 13.237-3.539 4.207-2.44 9.617-1 12.061 3.224 2.44 4.22 1 9.617-3.224 12.061-6.682 3.866-14.316 5.91-22.074 5.91z" fill="#4e5c7a"/><path d="m203.034 150.069h-31.656c-4.715 0-9.146-1.836-12.483-5.173l-6.241-6.241c-3.448-3.448-3.448-9.035 0-12.483s9.035-3.448 12.483 0l6.241 6.241h31.656c4.875 0 8.828 3.953 8.828 8.828 0 4.874-3.952 8.828-8.828 8.828z" fill="#46415f"/><path d="m273.655 291.31h-10.763l-1.103-4.414c7.145-4.748 11.866-12.866 11.866-22.069 0-14.603-11.881-26.483-26.483-26.483s-26.483 11.88-26.483 26.483c0 13.757 10.545 25.092 23.974 26.36l1.1 4.403c1.967 7.874 9.011 13.375 17.128 13.375h10.764c4.875 0 8.828-3.953 8.828-8.828s-3.953-8.827-8.828-8.827zm-35.31-26.482c0-4.867 3.96-8.828 8.828-8.828 4.867 0 8.828 3.96 8.828 8.828s-3.96 8.828-8.828 8.828c-4.868-.001-8.828-3.961-8.828-8.828z" fill="#413241"/><path d="m397.241 414.897h-70.621c-4.875 0-8.828-3.953-8.828-8.828s3.953-8.828 8.828-8.828h70.621c4.875 0 8.828 3.953 8.828 8.828s-3.953 8.828-8.828 8.828z" fill="#fff59b"/><path d="m211.862 414.897h-61.793c-4.875 0-8.828-3.953-8.828-8.828s3.953-8.828 8.828-8.828h61.793c4.875 0 8.828 3.953 8.828 8.828s-3.953 8.828-8.828 8.828z" fill="#ffc373"/><path d="m114.759 414.897h-8.828c-4.875 0-8.828-3.953-8.828-8.828s3.953-8.828 8.828-8.828h8.828c4.875 0 8.828 3.953 8.828 8.828-.001 4.875-3.953 8.828-8.828 8.828z" fill="#ffc373"/><path d="m291.31 414.897h-8.828c-4.875 0-8.828-3.953-8.828-8.828s3.953-8.828 8.828-8.828h8.828c4.875 0 8.828 3.953 8.828 8.828s-3.953 8.828-8.828 8.828z" fill="#fff59b"/></svg>