<svg enable-background="new 0 0 512 512" viewBox="-65 -65 650 650" xmlns="http://www.w3.org/2000/svg"><path d="m400.021 503.931 24.003-200.03-24.003 8.001-24.003-8.001-24.003 8.001-24.003-8.001-24.003 8.001-24.003-8.001-24.003 8.001-24.003-8.001-24.003 8.001-24.003-8.001-24.003 8.001-24.003-8.001-24.003 8.001-24.003-8.001 23.999 200.03c-.004 0 287.039-1 288.04 0z" fill="#ed1e79"/><circle cx="255.997" cy="71.868" fill="#c1272d" r="24.003"/><path d="m111.977 479.93h288.04v24.003h-288.04z" fill="#93278f"/><path d="m111.977 479.93h40.004v24.003h-40.004z" fill="#6e1d6b"/><path d="m364.224 479.93h40.004v24.003h-40.004z" fill="#be7dbc"/><path d="m255.999 47.863c-4.394 0-8.458 1.267-12.002 3.329 7.145 4.159 12.002 11.813 12.002 20.674s-4.857 16.516-12.002 20.674c3.543 2.061 7.607 3.329 12.002 3.329 13.257 0 24.003-10.746 24.003-24.003s-10.746-24.003-24.003-24.003z" fill="#ff1d25"/><path d="m312.007 175.881h-112.016c-13.257 0-24.003-10.747-24.003-24.003 0-13.257 10.747-24.003 24.003-24.003h112.017c13.257 0 24.003 10.747 24.003 24.003 0 13.257-10.747 24.003-24.004 24.003z" fill="#ff7bac"/><path d="m312.007 127.57h-48.007c13.257 0 24.003 11.359 24.003 24.616s-10.746 24.616-24.003 24.616h48.008c13.257 0 24.003-11.359 24.003-24.616s-10.747-24.616-24.004-24.616z" fill="#ff95bd"/><path d="m296.005 127.875h-80.012c-8.838 0-16.003-7.165-16.003-16.003 0-8.838 7.165-16.003 16.003-16.003h80.012c8.838 0 16.003 7.165 16.003 16.003-.001 8.838-7.166 16.003-16.003 16.003z" fill="#ff7bac"/><path d="m296.005 113.237c0 8-6.485 14.333-14.486 14.333h16.003c8.001 0 14.421-6.181 14.421-14.181v-3.034c0-8-6.42-14.21-14.421-14.21h-16.003c8.001 0 14.486 6.271 14.486 14.272" fill="#ff95bd"/><path d="m103.976 311.929c0-55.517 34.218-112.082 84.059-135.127h135.939c49.835 23.045 84.047 79.609 84.047 135.127z" fill="#93278f"/><path d="m323.975 176.802h-48.008c49.833 23.045 84.047 79.609 84.047 135.127h48.008c0-55.517-34.213-112.082-84.047-135.127z" fill="#a952a5"/><path d="m183.988 176.802h48.008c-49.833 23.045-84.047 79.609-84.047 135.127h-48.008c0-55.517 34.214-112.082 84.047-135.127z" fill="#6e1d6b"/><g fill="#d4145a"><path d="m111.977 312.226 24.003 168.349h-24.003l-24.003-176.188z"/><path d="m167.986 311.032h16.003v24.003h-16.003z"/><path d="m288.008 311.032h16.003v24.003h-16.003z"/><path d="m400.021 312.226-24.005 168.349h24.005l24.003-176.188z"/></g><path d="m200.152 204.57h15.712v22.631h-15.712z" fill="#ff1d25" transform="matrix(-.7072 -.707 .707 -.7072 202.4802 515.6249)"/><path d="m296.164 260.577h15.712v22.631h-15.712z" fill="#fff" transform="matrix(-.7072 -.707 .707 -.7072 326.795 679.1214)"/><path d="m272.167 204.566h15.712v22.631h-15.712z" fill="#fbb03b" transform="matrix(-.7072 -.707 .707 -.7072 325.4277 566.5334)"/><path d="m236.692 240.026h22.631v15.712h-22.631z" fill="#29abe2" transform="matrix(-.7071 -.7071 .7071 -.7071 248.0956 598.5281)"/><path d="m188.671 264.038h22.631v15.712h-22.631z" fill="#fbb03b" transform="matrix(-.7071 -.7071 .7071 -.7071 149.1406 605.5638)"/><path d="m356.714 272.035h22.631v15.712h-22.631z" fill="#fbb03b" transform="matrix(-.7071 -.7071 .7071 -.7071 430.3522 738.0409)"/><path d="m332.71 232.023h22.631v15.712h-22.631z" fill="#29abe2" transform="matrix(-.7071 -.7071 .7071 -.7071 417.6679 652.7628)"/><path d="m316.683 192.021h22.631v15.712h-22.631z" fill="#ff1d25" transform="matrix(-.7071 -.7071 .7071 -.7071 418.594 573.1417)"/><path d="m152.113 244.572h15.712v22.631h-15.712z" fill="#fff" transform="matrix(-.707 -.7072 .7072 -.707 92.1036 549.9329)"/><path d="m415.308 298.617c-2.112-25.599-10.279-50.137-23.977-71.863-13.974-22.161-33.123-40.506-55.718-53.503 5.126-5.656 8.254-13.157 8.254-21.373 0-15.451-11.058-28.364-25.675-31.252 1.074-2.713 1.671-5.664 1.671-8.754 0-13.155-10.703-23.858-23.858-23.858h-12.558c2.799-4.739 4.412-10.257 4.412-16.148 0-14.857-10.224-27.369-24.003-30.877v-13.129c0-6.699 5.449-12.148 12.148-12.148 6.698 0 12.147 5.449 12.147 12.148v4h15.712v-4c-.002-15.361-12.5-27.86-27.861-27.86s-27.86 12.499-27.86 27.86v13.128c-13.78 3.508-24.003 16.02-24.003 30.877 0 5.891 1.613 11.409 4.412 16.148h-12.558c-13.155 0-23.858 10.703-23.858 23.858 0 3.09.597 6.042 1.671 8.754-14.617 2.888-25.674 15.801-25.674 31.252 0 8.218 3.129 15.719 8.256 21.375-22.594 12.995-41.744 31.335-55.716 53.493-13.699 21.723-21.866 46.263-23.98 71.858l-17.988-5.915 26.303 219.312h301.984l26.306-219.34zm-159.309-242.899c8.904 0 16.147 7.243 16.147 16.147s-7.243 16.148-16.147 16.148-16.147-7.244-16.147-16.148 7.243-16.147 16.147-16.147zm-40.007 48.008h80.013c4.492 0 8.145 3.654 8.145 8.145 0 4.492-3.654 8.146-8.145 8.146h-80.013c-4.492 0-8.145-3.655-8.145-8.146s3.653-8.145 8.145-8.145zm-16.001 32.005h16.001 80.013 16.003c8.904 0 16.147 7.243 16.147 16.147s-7.243 16.147-16.147 16.147h-112.017c-8.904 0-16.147-7.243-16.147-16.147-.001-8.904 7.243-16.147 16.147-16.147zm-66.03 99.398c13.913-22.063 34.794-40.606 58.014-52.438 2.564.669 5.245 1.046 8.016 1.046h112.017c2.76 0 5.43-.375 7.986-1.039 23.219 11.831 44.136 30.373 58.048 52.435 12.999 20.618 20.474 44.182 21.866 68.501l-23.885-7.988-24.006 7.989-24.004-8.009-23.777 7.922h-.455l-23.778-7.926-24.003 8.001-24.003-8.002-24.003 8.001-24.004-8.002-24.003 8.002-24.003-8.002-23.888 7.963c1.397-24.3 8.871-47.849 21.865-68.454zm261.853 238.114h-52.447v15.712h50.562l-.88 7.332h-274.101l-.88-7.332h210.634v-15.712h-212.518l-18.941-157.917 14.751 4.852 17.38-5.794 14.814 118.511 15.592-1.949-14.456-115.651 14.662 4.888 14.736-4.912v19.703h15.712v-20.644l17.559 5.852 24.003-8.001 16.05 5.35v114.858h15.712v-114.791l16.245-5.414 15.18 5.061v17.729h15.712v-17.084l17.113-5.7 24.002 8.007 14.662-4.879-14.453 115.629 15.592 1.949 14.808-118.476 17.389 5.816 14.742-4.881z"/><path d="m248.143 172.566h15.712v22.631h-15.712z" fill="#fff" transform="matrix(-.7071 -.7071 .7071 -.7071 306.9938 494.9238)"/><path d="m156.672 192.025h22.631v15.712h-22.631z" fill="#fbb03b" transform="matrix(-.7071 -.7071 .7071 -.7071 145.4348 460.0026)"/><path d="m112.145 268.582h15.712v22.631h-15.712z" fill="#29abe2" transform="matrix(-.7072 -.707 .707 -.7072 6.9774 562.6853)"/></svg>