<svg enable-background="new 0 0 512.001 512.001" viewBox="0 0 512.001 512.001" xmlns="http://www.w3.org/2000/svg"><path d="m387.423 371.684-109.163-109.163v-95.563c0-24.549-19.972-44.522-44.522-44.522s-44.522 19.972-44.522 44.522v6.52l-170.197-170.198c-.012-.012-.024-.024-.037-.037l-.001-.001c-.003-.003-.008-.007-.011-.01-2.012-1.997-4.781-3.232-7.84-3.232-6.147 0-11.13 4.983-11.13 11.13v272.696c0 58.305 47.435 105.739 105.739 105.739s105.739-47.435 105.739-105.739v-56.606l44.522 44.522v84.432c0 6.147 4.983 11.13 11.13 11.13s11.13-4.983 11.13-11.13v-62.171l93.422 93.422c2.174 2.174 5.022 3.26 7.87 3.26s5.698-1.086 7.87-3.26c4.348-4.347 4.348-11.394.001-15.741zm-198.206-87.857c0 46.03-37.448 83.478-83.478 83.478s-83.478-37.448-83.478-83.478v-245.823l166.956 166.956zm22.261-88.088v-28.781c0-12.275 9.986-22.261 22.261-22.261s22.261 9.986 22.261 22.261v73.302z" fill="#d8bf77"/><path d="m387.42 387.425c-2.174 2.173-5.022 3.26-7.87 3.26s-5.697-1.087-7.87-3.26l-93.419-93.419v-31.482l109.16 109.16c4.347 4.345 4.347 11.393-.001 15.741zm-384.161-384.164c-4.346 4.346-4.344 11.396.002 15.744l252.739 252.74v-31.482l-237.001-237.004c-4.348-4.348-11.394-4.343-15.74.002z" fill="#636363"/><path d="m415.646 368.424 86.575 86.575c13.04 13.04 13.04 34.183 0 47.222-13.04 13.04-34.183 13.04-47.222 0l-86.575-86.575c-13.04-13.04-13.04-34.183 0-47.222 13.039-13.04 34.182-13.04 47.222 0z" fill="#b94b00"/><path d="m502.221 454.998c.441.441.864.892 1.274 1.35-.411.459-.834.909-1.274 1.35-13.04 13.04-34.183 13.04-47.222 0l-86.575-86.575c-.441-.441-.864-.892-1.274-1.35.411-.459.834-.909 1.274-1.35 13.04-13.04 34.183-13.04 47.222 0z" fill="#ea5f00"/><path d="m278.26 378.435v89.043c0 24.55-19.972 44.522-44.522 44.522s-44.522-19.971-44.522-44.522v-28.78l-14.391 14.391c-4.346 4.346-11.394 4.346-15.742 0-4.346-4.346-4.346-11.394 0-15.742l33.391-33.391c3.182-3.182 7.97-4.136 12.13-2.412 4.159 1.722 6.871 5.78 6.871 10.282v55.652c0 12.274 9.986 22.261 22.261 22.261s22.261-9.987 22.261-22.261v-89.043c0-6.146 4.983-11.13 11.13-11.13s11.133 4.984 11.133 11.13z" fill="#636363"/><path d="m300.521 356.175c0 18.412-14.979 33.391-33.391 33.391s-33.391-14.979-33.391-33.391 14.979-33.391 33.391-33.391c18.411 0 33.391 14.979 33.391 33.391z" fill="#ff4800"/><path d="m289.391 350.61c0 9.206-7.49 16.696-16.696 16.696s-16.696-7.49-16.696-16.696 7.49-16.696 16.696-16.696c9.207 0 16.696 7.49 16.696 16.696z" fill="#ff7443"/></svg>