<svg height="72" viewBox="0 0 72 72" width="72" xmlns="http://www.w3.org/2000/svg"><path d="m62.48 46.02c-.74-.16-1.45-.22-2.13-.22-3.8199 0-6.58 2.09-6.58 2.09l-6.06-19.68-.51 19.24 4.66 15.96s-2.19.85-3.86 1.21l-.01-.14c-4.28 1.03-12.01 2.11-22.63.4v-2.92s-2.73.85-4.52-1.15l3.98-13.65-.51-19.24-6.06 19.68v-.03s-2.76-2.09-6.58-2.09c-.68 0-1.38.06-2.12.22l7.11-23.02s1.56-5.47 3.44-7.19c1.87-1.72 8.1801-2.46 8.1801-2.46l2.1-5.37c.12-.3.47-.55 1.22-.55h9.01c.76 0 1.1.24 1.22.55l2.11 5.37s6.11 1.04 7.98 2.76c1.88 1.71 3.44 7.18 3.44 7.18z" fill="#d0cfce"/><path d="m30.9212 7.875h10.6621l-5.5833 9.0833z" fill="#9b9b9a"/><path d="m25.25 42.25h21.9505v3.6875h-21.9505z" fill="#3f3f3f"/><path d="m33.7748 22.0446-5.0167-8.8259 1.9294-4.3596 5.5648 8.6206 5.3311-8.6206 1.5417 3.5575v1.3958c-7.0626 9.1876-11.9573 28.6024-11.9573 28.6024l-4.2859-.2612s2.9838-12.2832 6.8929-20.109z" fill="#3f3f3f"/><g style="fill:none;stroke:#000;stroke-linecap:round;stroke-linejoin:round;stroke-miterlimit:10;stroke-width:2"><path d="m28.2667 12.9217s-6.3025.7358-8.1775 2.4233-3.4375 7.0625-3.4375 7.0625l-7.1241 22.6417-.0009.0041.0009-.0303-.0009.0041c4.875-1.0208 8.7083 1.8333 8.7083 1.8333v.0262l6.0634-19.3333.5143 18.9039-4.156 13.9804c1.7944 1.9678 4.6915 1.352 4.6915 1.352v2.2188c10.6269 1.6752 18.3598.6209 22.6412-.3947"/><path d="m43.9299 12.9217s6.1059 1.0241 7.9809 2.7116 3.4375 7.0625 3.4375 7.0625l7.1241 22.6418.0009.0041c-4.875-1.0208-8.7083 1.8333-8.7083 1.8333l-6.0634-19.3333-.5143 18.9039 4.6611 15.6794"/><path d="m36.0952 17.5229c-2.6908-4.8889-4.9342-7.8331-5.4623-8.6188 0 0-1.1458-1.7917.9583-1.7917h4.5.0071 4.5c2.1042 0 .9583 1.7917.9583 1.7917-1.1477 1.7075-10.3965 13.609-14.7321 33.5106"/><path d="m30.9212 42.692c4.1212-17.8053 11.9731-28.1405 13.0087-29.7703l-2.1148-5.2704"/><path d="m33.7748 22.0448c-2.6766-5.2005-4.9797-8.2986-5.5081-9.1302"/><path d="m28.2667 12.9217 2.1148-5.2705"/><path d="m47.3123 42.1536c-9.8928.9136-17.8024.7124-22.6167.0011"/><path d="m47.2005 46.2577c-9.7712.8963-17.5847.7032-22.393.0074"/></g></svg>