<svg enable-background="new 0 0 480.517 480.517" viewBox="0 0 480.517 480.517" xmlns="http://www.w3.org/2000/svg"><path d="m446.935 273.842c0-114.139-92.531-206.672-206.675-206.672-114.147 0-206.677 92.532-206.677 206.672 0 114.143 92.53 206.675 206.677 206.675 114.144 0 206.675-92.532 206.675-206.675z" fill="#afebff"/><g fill="#e2f8ff"><path d="m97.877 146.212c6.989 8.644 20.653 22.056 38.539 22.706.457.017.912.026 1.369.026 13.795 0 27.034-7.637 39.453-22.733 6.987 8.644 20.654 22.056 38.541 22.706.457.017.912.026 1.368.026 13.794 0 27.035-7.637 39.453-22.733 6.989 8.644 20.655 22.056 38.542 22.706.455.017.911.026 1.367.026 15.739 0 30.757-9.939 44.653-29.557 1.829-2.581 1.218-6.154-1.36-7.982-2.585-1.828-6.154-1.217-7.983 1.362-11.625 16.413-23.509 24.725-35.341 24.725-.293 0-.585-.004-.881-.015-15.998-.557-28.55-16.079-32.802-22.054-.179-1.56-.975-3.04-2.356-4.018-1.097-.777-2.374-1.088-3.618-1.019-1.164-.099-2.367.139-3.441.792-1.49.9-2.397 2.374-2.662 3.966-11.07 14.829-22.359 22.348-33.602 22.348-.292 0-.585-.004-.88-.015-16.001-.557-28.551-16.079-32.802-22.054-.181-1.56-.977-3.04-2.359-4.018-1.098-.777-2.373-1.088-3.618-1.019-1.163-.099-2.365.139-3.44.792-1.489.9-2.396 2.374-2.661 3.966-11.07 14.829-22.36 22.348-33.603 22.348-.293 0-.585-.004-.88-.015-15.999-.557-28.549-16.079-32.802-22.054-.178-1.56-.976-3.04-2.355-4.018-1.1-.777-2.374-1.088-3.62-1.019-1.162-.099-2.367.139-3.44.792-1.49.9-2.396 2.374-2.66 3.966-6.61 8.85-13.291 15.075-20 18.673-3.44 4.816-6.672 9.791-9.699 14.902 12.399-1.297 24.328-8.828 35.58-22.505z"/><path d="m435.758 314.326c-.292 0-.584-.004-.879-.015-15.999-.558-28.55-16.079-32.801-22.055-.18-1.559-.976-3.038-2.357-4.018-1.098-.777-2.376-1.088-3.621-1.019-1.161-.099-2.364.139-3.439.792-1.489.9-2.397 2.375-2.661 3.966-11.07 14.828-22.36 22.349-33.603 22.349-.293 0-.585-.004-.88-.015-15.999-.558-28.55-16.079-32.802-22.055-.18-1.559-.976-3.038-2.357-4.018-1.1-.777-2.374-1.088-3.619-1.019-1.163-.099-2.366.139-3.44.792-1.49.9-2.397 2.375-2.662 3.966-11.07 14.828-22.359 22.349-33.602 22.349-.293 0-.585-.004-.88-.015-16-.558-28.551-16.079-32.802-22.055-.182-1.559-.977-3.038-2.358-4.018-1.099-.777-2.374-1.088-3.619-1.019-1.163-.099-2.365.139-3.44.792-1.489.9-2.396 2.375-2.661 3.966-11.071 14.828-22.36 22.349-33.605 22.349-.292 0-.585-.004-.879-.015-19.66-.685-34.117-23.968-34.358-24.365-1.636-2.702-5.153-3.575-7.86-1.935-2.706 1.634-3.574 5.153-1.938 7.861.712 1.18 17.773 28.937 43.698 29.88.457.017.913.026 1.369.026 13.794 0 27.036-7.637 39.454-22.733 6.988 8.644 20.654 22.056 38.541 22.706.457.017.912.026 1.368.026 13.795 0 27.035-7.637 39.453-22.733 6.988 8.644 20.655 22.056 38.541 22.706.457.017.911.026 1.368.026 13.794 0 27.036-7.637 39.453-22.733 6.99 8.644 20.656 22.056 38.542 22.706.456.017.912.026 1.368.026 1.556 0 3.103-.125 4.645-.319 1.036-4.033 1.94-8.116 2.735-12.238-2.47.724-4.942 1.108-7.412 1.108z"/><path d="m140.056 448.51c13.795 0 27.036-7.637 39.453-22.733 6.989 8.644 20.655 22.056 38.542 22.705.456.018.912.027 1.368.027 15.738 0 30.756-9.939 44.654-29.557 1.827-2.582 1.216-6.155-1.364-7.983-2.583-1.829-6.152-1.217-7.98 1.361-11.626 16.414-23.511 24.726-35.342 24.726-.293 0-.585-.004-.88-.016-15.999-.558-28.55-16.078-32.802-22.054-.18-1.56-.976-3.039-2.357-4.018-1.098-.778-2.373-1.088-3.621-1.02-1.162-.098-2.364.14-3.438.792-1.489.901-2.397 2.375-2.661 3.967-11.07 14.828-22.36 22.348-33.604 22.348-.293 0-.585-.004-.88-.016-15.999-.558-28.55-16.078-32.799-22.054-.182-1.56-.976-3.039-2.359-4.018-1.1-.778-2.376-1.088-3.62-1.02-1.162-.098-2.363.14-3.44.792-1.487.901-2.397 2.375-2.661 3.967-.78 1.047-1.562 2.048-2.348 3.023 10.019 10.323 21.099 19.614 33.074 27.677 4.218 1.736 8.792 2.896 13.697 3.074.456.021.912.03 1.368.03z"/></g><path d="m106.059 241.109h-45.512l-2.161 5.725h47.155c.168-1.888.346-3.816.518-5.725z" fill="#505b66"/><path d="m186.244 74.317c-21.748-29.53-38.674-49.362-45.259-56.859v75.08 362.611c1.621.889 3.253 1.761 4.898 2.608h188.749c6.725-3.456 13.226-7.279 19.495-11.427-25.28-157.64-112.264-296.487-167.883-372.013z" fill="#fce8ac"/><path d="m186.244 74.317c-21.748-29.53-38.674-49.362-45.259-56.859v20.726c7.3 9.086 16.044 20.33 25.763 33.526 55.62 75.525 142.604 214.373 167.884 372.012-6.269 4.148-12.771 7.971-19.495 11.427h-174.152c1.621.889 3.253 1.761 4.898 2.608h188.749c6.725-3.456 13.226-7.279 19.495-11.427-25.28-157.64-112.264-296.487-167.883-372.013z" fill="#f0dda4"/><path d="m240.259 480.517c29.238 0 57.051-6.085 82.261-17.034h-164.524c25.21 10.949 53.024 17.034 82.263 17.034z" fill="#fce8ac"/><path d="m157.996 463.483h164.524c4.108-1.785 8.15-3.688 12.112-5.726h-188.749c3.964 2.038 8.006 3.941 12.113 5.726z" fill="#505b66"/><path d="m93.007 418.848c.716.727 1.436 1.449 2.163 2.165.015-.712.032-1.447.048-2.165z" fill="#fce8ac"/><path d="m95.336 413.124c-.025 1.17-.049 2.307-.071 3.456 1.043-48.679 4.718-111.095 12.178-190.479v-109.357l-71.368 189.249c6.395 40.931 24.795 77.878 51.494 107.131z" fill="#fce8ac"/><path d="m99.587 137.576-1.972 82.212c-9.09 76.886-14.223 137.826-16.538 185.83 2.112 2.547 4.26 5.063 6.491 7.507h7.767c-.025 1.17-.049 2.307-.071 3.456 1.043-48.679 4.718-111.095 12.178-190.479v-109.358z" fill="#f0dda4"/><path d="m95.218 418.848c.015-.751.031-1.515.047-2.268-.016.759-.033 1.517-.047 2.268z" fill="#505b66"/><path d="m95.264 416.58c.022-1.149.046-2.286.071-3.456h-7.767c1.775 1.944 3.591 3.85 5.438 5.724h2.211c.015-.751.032-1.509.047-2.268z" fill="#505b66"/><path d="m108.129 114.927c-.231.192-.456.386-.687.58v1.238z" fill="#ea7053"/><path d="m237.937 151.093h-99.962v5.725h103.449c-1.165-1.921-2.326-3.834-3.487-5.725z" fill="#505b66"/><path d="m322.763 325.778h-184.788v5.724h186.786c-.664-1.909-1.322-3.825-1.998-5.724z" fill="#505b66"/><path d="m124.212 0c-9.261 0-16.77 7.509-16.77 16.773v98.734c.23-.194.455-.388.687-.58l-.687 1.817v109.357 206.079c9.492 7.969 19.703 15.105 30.533 21.286.997.569 2.002 1.129 3.01 1.683v-362.611-75.08-.686c0-9.263-7.507-16.772-16.773-16.772z" fill="#ea7053"/></svg>