<svg enable-background="new 0 0 512 512" viewBox="0 0 512 512" xmlns="http://www.w3.org/2000/svg"><circle cx="256" cy="256" fill="#273b7a" r="256"/><path d="m511.995 256.271-199.106-199.382-1.648 112.58-111.72-111.72-16.784 390.473 63.578 63.578c3.215.121 6.441.2 9.687.2 141.291 0 255.848-114.469 255.993-255.729z" fill="#121149"/><path d="m199.111 455.111c-15.71 0-28.444-12.734-28.444-28.444v-301.106c0-25.757 10.231-50.459 28.444-68.67 18.213 18.211 28.444 42.913 28.444 68.67v301.106c.001 15.71-12.734 28.444-28.444 28.444z" fill="#71e2ef"/><path d="m199.111 56.889c-.197.197-.379.405-.574.603v397.59c.193.003.381.029.574.029 15.71 0 28.444-12.734 28.444-28.444v-301.108c.001-25.755-10.231-50.457-28.444-68.67z" fill="#38c6d9"/><path d="m312.889 455.111c-15.71 0-28.444-12.734-28.444-28.444v-301.106c0-25.757 10.231-50.459 28.444-68.67 18.213 18.211 28.444 42.913 28.444 68.67v301.106c0 15.71-12.734 28.444-28.444 28.444z" fill="#71e2ef"/><path d="m313.177 57.192v397.905c15.575-.157 28.157-12.819 28.157-28.431v-301.107c-.001-25.616-10.13-50.185-28.157-68.367z" fill="#38c6d9"/><path d="m187.475 230.141h23.273c6.427 0 11.636-5.21 11.636-11.636 0-6.427-5.21-11.636-11.636-11.636h-23.273c-6.427 0-11.636 5.21-11.636 11.636-.001 6.427 5.209 11.636 11.636 11.636z" fill="#366695"/><path d="m210.747 206.869h-12.21v23.273h12.21c6.427 0 11.636-5.21 11.636-11.636.001-6.428-5.209-11.637-11.636-11.637z" fill="#273b7a"/><path d="m187.475 307.717h23.273c6.427 0 11.636-5.21 11.636-11.636 0-6.427-5.21-11.636-11.636-11.636h-23.273c-6.427 0-11.636 5.21-11.636 11.636-.001 6.427 5.209 11.636 11.636 11.636z" fill="#366695"/><path d="m210.747 284.444h-12.21v23.273h12.21c6.427 0 11.636-5.21 11.636-11.636.001-6.427-5.209-11.637-11.636-11.637z" fill="#273b7a"/><path d="m301.253 230.141h23.273c6.427 0 11.636-5.21 11.636-11.636 0-6.427-5.21-11.636-11.636-11.636h-23.273c-6.427 0-11.636 5.21-11.636 11.636-.001 6.427 5.209 11.636 11.636 11.636z" fill="#366695"/><path d="m324.525 206.869h-11.348v23.273h11.348c6.427 0 11.636-5.21 11.636-11.636.001-6.428-5.209-11.637-11.636-11.637z" fill="#273b7a"/><path d="m301.253 307.717h23.273c6.427 0 11.636-5.21 11.636-11.636 0-6.427-5.21-11.636-11.636-11.636h-23.273c-6.427 0-11.636 5.21-11.636 11.636-.001 6.427 5.209 11.636 11.636 11.636z" fill="#366695"/><path d="m324.525 284.444h-11.348v23.273h11.348c6.427 0 11.636-5.21 11.636-11.636.001-6.427-5.209-11.637-11.636-11.637z" fill="#273b7a"/></svg>