<svg enable-background="new 0 0 512.001 512.001" viewBox="0 0 512.001 512.001" xmlns="http://www.w3.org/2000/svg"><g fill="#e16600"><path d="m71.238 422.02c17.425 19.379 37.855 36 60.558 49.133 40.236-23.282 73.328-57.51 95.197-98.608-112.044-29.061-186.294-130.108-186.086-240.722l-.053-.031c-21.149 36.535-33.246 78.961-33.246 124.208 0 56.53 18.882 108.649 50.687 150.393"/><path d="m371.423 222.839c30.847 111.58-19.518 226.395-115.428 281.538 137.181.01 248.397-111.197 248.397-248.377-40.257-23.212-86.431-34.754-132.969-33.161z"/><path d="m169.596 172.603c20.813 33.422 49.934 62.344 86.4 83.398 36.476-21.063 76.078-31.817 115.428-33.161 46.537-1.593 92.713 9.949 132.968 33.142 0-45.248-12.107-87.654-33.246-124.19l-.053.031c-95.692-55.487-220.329-41.707-301.497 40.78z"/><path d="m226.97 372.532c18.533-34.738 29.024-74.409 29.024-116.532-36.466-21.054-65.586-49.976-86.421-83.386-24.652-39.49-37.745-85.26-37.788-131.733-37.704 21.784-69.127 53.217-90.931 90.91l.053.031c-.208 110.615 74.042 211.662 186.063 240.71z"/><path d="m371.423 222.872c-39.35 1.312-78.952 12.067-115.428 33.128 0 42.122-10.492 81.793-29.003 116.544-21.869 41.099-54.961 75.326-95.186 98.596 36.525 21.15 78.941 33.246 124.188 33.246 95.911-55.152 146.276-169.967 115.429-281.514z"/><path d="m169.573 172.614c81.191-82.498 205.826-96.278 301.518-40.792l.053-.031c-42.953-74.233-123.215-124.177-215.149-124.177-45.258 0-87.69 12.097-124.22 33.247.053 46.493 13.147 92.263 37.798 131.753z"/></g><path d="m511.96 251.582c-.703-40.969-11.225-81.202-30.589-117.075l.101-.06-3.742-6.466c-.005-.008-.011-.017-.015-.025l-3.918-6.65-.056.033c-21.87-35.281-52.135-64.924-87.941-86.028-39.185-23.097-84.071-35.305-129.805-35.305-40.668 0-80.713 9.667-116.613 28.05v-.35l-8.673 5.011c-.917.515-1.835 1.032-2.746 1.559l-3.801 2.2v.069c-34.922 20.996-64.434 50.137-85.907 84.788l-.102-.062-3.883 6.707c-.71 1.227-1.41 2.461-2.099 3.7l-1.589 2.799.046.027c-20.056 37.142-30.628 78.982-30.628 121.496 0 56.546 18.066 110.146 52.244 155.004l12.104-9.222c-32.143-42.185-49.131-92.596-49.131-145.782 0-32.93 6.739-65.429 19.646-95.376 6.223 56.071 30.717 107.399 68.123 147.078.159.169.32.338.48.507.728.768 1.46 1.532 2.197 2.292 28.045 29.032 62.235 50.707 100.71 63.793.101.034.204.068.305.103 1.309.443 2.619.881 3.938 1.304.671.216 1.344.424 2.018.635.827.258 1.653.52 2.484.771.174.053.348.11.523.162-.096.164-.194.327-.29.491-1.176 2.004-2.373 3.993-3.603 5.958-.025.041-.052.08-.077.12-1.243 1.982-2.516 3.942-3.815 5.884-.117.176-.232.353-.35.529-1.261 1.878-2.553 3.732-3.865 5.571-.191.268-.382.537-.574.804-1.296 1.801-2.617 3.582-3.961 5.345-.203.267-.407.532-.613.797-1.372 1.782-2.763 3.548-4.183 5.289-.147.182-.297.359-.444.541-2.995 3.654-6.096 7.22-9.298 10.689-.14.152-.279.305-.418.457-1.539 1.658-3.103 3.291-4.687 4.906-.224.227-.445.455-.671.682-1.562 1.579-3.147 3.138-4.753 4.674-.235.225-.473.448-.709.673-1.632 1.548-3.283 3.078-4.96 4.581-.172.155-.349.307-.522.463-3.484 3.105-7.058 6.111-10.722 9.015-.235.186-.468.374-.703.56-1.718 1.352-3.46 2.677-5.217 3.984-.334.249-.667.496-1.002.743-1.722 1.267-3.462 2.512-5.22 3.734-.363.253-.73.504-1.096.755-1.772 1.218-3.559 2.417-5.365 3.589-.318.206-.639.407-.957.612-1.724 1.107-3.462 2.194-5.217 3.258-.187.114-.371.23-.559.343-20.434-12.323-38.883-27.573-54.894-45.38l-11.316 10.171c15.169 16.87 32.406 31.572 51.355 43.848l-.318.184 9.906 5.735c.488.287.973.582 1.463.865l3.81 2.203.055-.031c30.178 16.773 63.57 27.213 97.968 30.741l-2.318 1.332 27.278.002c.405.002.811.01 1.215.01h2.032l.062-.035c67.594-.534 131.069-27.091 178.928-74.945 45.288-45.284 71.517-104.546 74.662-168.057l.323.186v-13.145-.02-4.375zm-17.206-9.386c-1.163-.581-2.33-1.153-3.501-1.715-1.035-.497-2.071-.988-3.111-1.471-1.318-.612-2.641-1.211-3.966-1.801-.718-.319-1.434-.64-2.155-.953-1.687-.73-3.383-1.436-5.085-2.13-.699-.285-1.399-.569-2.1-.847-1.744-.694-3.495-1.367-5.254-2.022-.643-.239-1.288-.474-1.932-.707-1.833-.665-3.671-1.317-5.519-1.941-.524-.176-1.049-.345-1.574-.518-1.8-.594-3.605-1.173-5.417-1.728-.442-.135-.886-.271-1.33-.404-1.904-.572-3.815-1.117-5.732-1.644-.455-.126-.911-.255-1.368-.378-2.004-.54-4.013-1.05-6.028-1.54-.495-.121-.991-.241-1.486-.359-2.023-.48-4.05-.934-6.084-1.365-.463-.098-.926-.193-1.39-.288-2.091-.431-4.187-.841-6.289-1.219-.347-.063-.695-.12-1.041-.181-2.185-.384-4.375-.748-6.57-1.075-.104-.016-.209-.031-.314-.048-2.237-.332-4.481-.627-6.728-.899-.319-.039-.635-.081-.954-.118-2.178-.256-4.361-.48-6.546-.68-.395-.037-.789-.073-1.185-.108-2.167-.189-4.336-.349-6.509-.482-.384-.023-.769-.045-1.154-.067-2.215-.126-4.431-.227-6.651-.295-.279-.008-.559-.013-.838-.02-2.341-.065-4.684-.104-7.03-.104-.91 0-1.827.013-2.743.023l-.011-.041-1.716.058c-1.43.024-2.86.061-4.28.11l-9.644.33.057.205c-.52.038-1.039.082-1.558.124-.308.023-.616.048-.924.073-2 .165-3.998.355-5.994.568-.711.075-1.422.152-2.133.233-1.513.174-3.024.362-4.536.564-1.134.151-2.268.308-3.4.475-.953.14-1.904.279-2.855.43-1.651.262-3.298.546-4.942.84-.799.143-1.599.286-2.396.437-1.761.333-3.519.687-5.273 1.057-.68.144-1.358.287-2.036.436-1.849.405-3.694.833-5.534 1.279-.576.14-1.152.282-1.729.426-1.919.48-3.834.982-5.743 1.505-.49.135-.981.273-1.471.41-1.977.556-3.95 1.134-5.915 1.738-.411.127-.822.257-1.235.384-2.028.634-4.05 1.291-6.063 1.976-.341.116-.681.234-1.021.353-2.072.714-4.137 1.453-6.192 2.22-.27.1-.538.205-.806.306-2.117.799-4.225 1.623-6.32 2.477-.195.079-.388.161-.581.241-2.164.889-4.317 1.804-6.457 2.752-.109.048-.217.098-.326.147-4.465 1.986-8.877 4.1-13.228 6.342-.074.039-.149.075-.224.114-2.116 1.094-4.216 2.221-6.304 3.373-.092.051-.186.097-.276.148-.477-.287-.958-.567-1.432-.856-.872-.534-1.741-1.074-2.605-1.618-1.142-.718-2.276-1.445-3.405-2.181-.852-.556-1.702-1.115-2.547-1.682-1.13-.758-2.251-1.529-3.367-2.306-.822-.571-1.643-1.141-2.457-1.723-1.132-.809-2.252-1.633-3.369-2.461-.777-.574-1.556-1.144-2.325-1.729-1.163-.883-2.308-1.784-3.453-2.687-.704-.554-1.415-1.1-2.112-1.663-1.28-1.032-2.539-2.088-3.797-3.145-.544-.456-1.097-.902-1.635-1.363-1.769-1.514-3.517-3.051-5.241-4.615-.505-.458-.994-.93-1.495-1.393-1.215-1.121-2.43-2.244-3.621-3.389-.743-.714-1.467-1.445-2.2-2.168-.924-.911-1.85-1.819-2.759-2.744-.81-.824-1.602-1.663-2.399-2.498-.802-.842-1.608-1.683-2.398-2.536-.842-.908-1.672-1.829-2.499-2.75-.712-.791-1.422-1.586-2.124-2.387-.868-.994-1.728-1.997-2.581-3.006-.621-.734-1.239-1.471-1.851-2.212-.901-1.092-1.793-2.188-2.673-3.295-.52-.653-1.035-1.311-1.547-1.969-.944-1.212-1.881-2.43-2.803-3.659-.39-.521-.772-1.048-1.158-1.571-1.018-1.386-2.031-2.776-3.02-4.184-.193-.274-.379-.552-.571-.827-1.13-1.624-2.248-3.257-3.337-4.91 3.956-3.828 8.027-7.497 12.194-11.02.313-.265.622-.538.937-.801 1.042-.872 2.097-1.724 3.151-2.577.484-.391.96-.788 1.446-1.175.964-.768 1.94-1.517 2.914-2.268.587-.453 1.17-.914 1.761-1.361.918-.696 1.848-1.374 2.776-2.055.657-.483 1.312-.972 1.973-1.448.889-.64 1.788-1.264 2.684-1.89.713-.498 1.423-1 2.14-1.49.869-.593 1.749-1.174 2.625-1.755.755-.501 1.508-1.005 2.268-1.497.859-.556 1.725-1.099 2.59-1.642.79-.497 1.579-.996 2.376-1.484.85-.521 1.708-1.031 2.563-1.541.822-.489 1.641-.979 2.468-1.459.847-.49 1.699-.971 2.551-1.451.847-.477 1.694-.954 2.547-1.42.844-.462 1.692-.913 2.541-1.364.871-.463 1.745-.925 2.621-1.378.842-.435 1.689-.86 2.536-1.284.894-.447 1.789-.892 2.687-1.328.843-.409 1.689-.811 2.536-1.208.913-.43 1.829-.855 2.747-1.273.843-.383 1.688-.761 2.536-1.134.933-.412 1.871-.819 2.81-1.218.842-.358 1.686-.711 2.532-1.06.954-.393 1.909-.779 2.867-1.16.843-.335 1.687-.664 2.533-.989.972-.372 1.947-.737 2.924-1.098.842-.31 1.686-.618 2.532-.919.989-.351 1.979-.695 2.973-1.033.843-.287 1.688-.573 2.535-.851 1.006-.331 2.017-.651 3.027-.969.842-.264 1.683-.526 2.528-.781 1.025-.309 2.051-.607 3.081-.902.841-.241 1.683-.483 2.527-.715 1.041-.286 2.086-.559 3.13-.831.84-.219 1.678-.438 2.52-.648 1.062-.264 2.127-.514 3.192-.764.833-.195 1.666-.393 2.502-.578 1.082-.241 2.171-.469 3.258-.695.826-.172 1.651-.348 2.477-.511 1.108-.219 2.22-.421 3.33-.624.815-.148 1.628-.302 2.444-.443 1.139-.196 2.283-.374 3.425-.554.795-.125 1.589-.256 2.386-.373 1.176-.172 2.355-.327 3.533-.482.773-.102 1.543-.212 2.317-.306 1.217-.149 2.44-.277 3.662-.408.741-.079 1.479-.167 2.221-.239 1.286-.125 2.576-.228 3.865-.334.684-.056 1.364-.122 2.049-.171 1.404-.103 2.812-.182 4.221-.26.574-.032 1.146-.075 1.721-.102 1.659-.081 3.321-.137 4.986-.184.33-.009.656-.027.987-.036 2.009-.049 4.023-.074 6.04-.074 2.651 0 5.299.044 7.943.131.037.001.073.003.109.004 1.277.043 2.552.094 3.826.157.212.011.423.025.635.037 1.099.057 2.196.118 3.293.19.316.021.629.047.944.069.993.069 1.985.139 2.977.22.377.031.754.068 1.131.101.928.08 1.855.161 2.782.252.419.042.836.088 1.254.132.884.091 1.768.183 2.651.284.445.051.889.109 1.333.162.856.103 1.71.206 2.565.318.466.061.928.129 1.393.193.83.114 1.661.226 2.488.349.488.072.976.151 1.464.227.802.124 1.606.247 2.408.378.499.082.997.17 1.497.256.789.135 1.579.269 2.368.412.504.091 1.008.189 1.512.284.779.146 1.557.291 2.335.445.517.102 1.034.211 1.55.318.76.155 1.521.31 2.279.473.527.114 1.053.232 1.578.35.748.165 1.496.331 2.242.504.532.123 1.063.253 1.594.379.737.177 1.474.352 2.209.535.537.133 1.071.273 1.607.41.727.187 1.455.372 2.18.566.54.144 1.078.293 1.617.441.718.197 1.437.394 2.155.596.542.153 1.081.313 1.622.47.71.207 1.419.414 2.128.627.548.165 1.095.336 1.641.504.696.215 1.393.43 2.088.652.553.177 1.105.358 1.658.539.686.224 1.371.448 2.054.68.554.187 1.105.377 1.657.568.682.235 1.362.471 2.041.712.553.196 1.104.397 1.654.597.673.244 1.344.489 2.014.74.558.208 1.113.421 1.669.633.659.253 1.321.505 1.979.764.558.219 1.115.442 1.671.665.653.262 1.306.524 1.957.792.559.23 1.117.465 1.673.698.643.271 1.286.542 1.925.818.561.241 1.12.487 1.68.733.633.279 1.266.558 1.897.842.562.253 1.12.509 1.68.766.624.286 1.247.574 1.869.866.564.265 1.126.534 1.688.802.614.294 1.226.59 1.838.89.563.275 1.124.555 1.684.835.607.302 1.21.607 1.814.914.563.288 1.124.578 1.686.87.595.31 1.191.623 1.784.938.562.298 1.123.6 1.681.903.589.319 1.178.64 1.764.965.559.309 1.116.62 1.672.934.305.171.61.346.913.519 18.268 32.243 28.81 68.451 30.807 105.552-.555-.285-1.12-.548-1.679-.825zm-121.97 52.085c-.017.777-.046 1.552-.069 2.328-.026.86-.05 1.72-.085 2.581-.03.744-.074 1.486-.112 2.23-.046.887-.087 1.774-.143 2.661-.045.722-.1 1.444-.151 2.166-.064.906-.127 1.812-.202 2.716-.058.7-.125 1.399-.189 2.098-.084.924-.167 1.847-.263 2.769-.07.681-.149 1.359-.225 2.038-.104.937-.21 1.875-.325 2.81-.083.667-.173 1.332-.262 1.997-.125.945-.251 1.891-.387 2.834-.094.652-.196 1.304-.295 1.956-.145.953-.292 1.905-.448 2.856-.107.641-.219 1.282-.33 1.922-.165.958-.334 1.914-.511 2.869-.117.631-.239 1.26-.362 1.89-.187.961-.375 1.921-.573 2.879-.128.62-.262 1.238-.395 1.856-.208.966-.419 1.929-.638 2.892-.139.61-.282 1.217-.425 1.825-.229.967-.461 1.933-.701 2.895-.148.6-.302 1.197-.456 1.796-.25.97-.503 1.939-.765 2.904-.158.585-.321 1.171-.484 1.755-.273.975-.549 1.948-.833 2.919-.167.572-.338 1.144-.509 1.716-.293.976-.592 1.951-.899 2.924-.177.563-.356 1.124-.537 1.686-.315.978-.636 1.954-.964 2.928-.186.551-.372 1.102-.562 1.651-.338.978-.682 1.954-1.032 2.928-.194.541-.39 1.081-.587 1.62-.359.979-.726 1.955-1.098 2.929-.202.529-.404 1.057-.609 1.584-.383.981-.774 1.959-1.169 2.935-.208.514-.417 1.029-.628 1.542-.407.983-.822 1.964-1.242 2.941-.214.5-.428.999-.645 1.498-.433.989-.873 1.974-1.319 2.957-.218.481-.434.962-.655 1.442-.459.995-.927 1.986-1.399 2.976-.221.463-.44.925-.662 1.385-.486 1.001-.982 1.996-1.481 2.991-.224.444-.445.891-.671 1.333-.515 1.009-1.041 2.013-1.57 3.016-.222.42-.441.841-.665 1.259-.548 1.024-1.108 2.041-1.67 3.057-.218.392-.432.785-.652 1.176-.585 1.042-1.183 2.079-1.784 3.112-.208.358-.413.717-.622 1.073-.628 1.067-1.268 2.126-1.912 3.183-.195.319-.385.639-.581.958-.678 1.101-1.368 2.194-2.064 3.285-.171.268-.339.538-.511.805-.737 1.145-1.488 2.282-2.245 3.417-.14.209-.275.42-.416.628-.814 1.208-1.64 2.409-2.476 3.605-.089.128-.177.259-.267.387-.921 1.312-1.855 2.614-2.805 3.909-.007.01-.014.02-.021.029-9.661 13.181-20.723 25.445-33.079 36.552-.062.056-.125.11-.187.164-1.167 1.047-2.344 2.084-3.533 3.109-.109.093-.217.185-.325.276-1.147.986-2.304 1.963-3.471 2.928-.145.12-.291.236-.437.357-1.137.935-2.283 1.864-3.44 2.781-.168.133-.34.265-.508.398-1.139.898-2.287 1.787-3.445 2.667-.189.143-.378.283-.568.425-1.146.864-2.3 1.721-3.463 2.567-.201.147-.405.29-.608.436-1.158.836-2.323 1.664-3.499 2.48-.212.148-.427.293-.64.44-1.173.81-2.351 1.611-3.542 2.401-.22.146-.441.289-.66.435-1.192.785-2.389 1.563-3.598 2.329-.223.141-.447.281-.671.422-1.214.765-2.436 1.522-3.667 2.266-.221.134-.442.266-.664.399-.761.458-1.531.905-2.298 1.354-37.28-.321-73.944-9.271-106.916-26.029 2.161-1.405 4.294-2.847 6.408-4.312.171-.119.345-.236.516-.356 2.008-1.4 3.993-2.83 5.957-4.286.274-.204.55-.407.825-.612 1.91-1.426 3.798-2.878 5.666-4.354.292-.232.583-.465.874-.697 1.868-1.49 3.716-3.003 5.539-4.543.234-.198.467-.4.7-.599 1.884-1.604 3.749-3.227 5.585-4.883.073-.066.145-.134.218-.2 1.814-1.639 3.6-3.308 5.365-4.998.184-.175.369-.348.552-.524 1.715-1.651 3.402-3.331 5.069-5.03.279-.284.561-.567.838-.853 1.617-1.662 3.21-3.347 4.781-5.052.294-.32.587-.64.88-.961 1.565-1.715 3.108-3.451 4.628-5.209.253-.293.503-.59.756-.885 1.555-1.818 3.091-3.654 4.595-5.516.144-.178.283-.358.426-.536 1.513-1.882 3-3.784 4.459-5.709.099-.13.2-.258.299-.389 1.465-1.942 2.898-3.91 4.31-5.894.204-.287.411-.572.613-.86 1.357-1.923 2.684-3.869 3.99-5.832.229-.344.458-.689.685-1.035 1.289-1.96 2.553-3.937 3.789-5.934.205-.333.408-.667.613-.999 1.253-2.045 2.482-4.106 3.681-6.19.137-.237.27-.478.405-.716.264-.463.525-.925.785-1.389l.048.012 1.286-2.409c.524-.956 1.049-1.91 1.561-2.873l4.531-8.516-.202-.053c.09-.185.177-.371.266-.556.371-.772.741-1.545 1.105-2.321.619-1.32 1.226-2.645 1.823-3.974.49-1.094.973-2.19 1.448-3.29.404-.938.807-1.877 1.201-2.82.615-1.476 1.213-2.96 1.801-4.447.287-.726.576-1.453.856-2.181.652-1.694 1.28-3.397 1.895-5.106.231-.641.463-1.282.688-1.924.629-1.791 1.235-3.59 1.824-5.395.186-.569.37-1.137.552-1.708.598-1.876 1.172-3.76 1.726-5.648.148-.506.296-1.013.441-1.521.56-1.954 1.097-3.913 1.61-5.88.117-.449.232-.9.347-1.35.517-2.025 1.01-4.055 1.478-6.092.09-.395.178-.79.267-1.185.47-2.092.915-4.19 1.332-6.294.068-.343.133-.686.199-1.03.418-2.157.813-4.318 1.176-6.485.049-.287.093-.574.14-.862.365-2.227.706-4.458 1.012-6.696.029-.217.057-.435.086-.652.31-2.306.593-4.616.841-6.932.015-.138.026-.276.042-.415.252-2.396.475-4.796.659-7.199.002-.031.004-.062.006-.093.185-2.398.331-4.8.446-7.207.006-.123.015-.244.02-.367.11-2.34.184-4.683.228-7.027.003-.133.011-.267.013-.401.484-.268.963-.542 1.448-.806.906-.493 1.814-.978 2.726-1.459 1.184-.626 2.373-1.241 3.567-1.846.917-.465 1.836-.926 2.758-1.379 1.207-.592 2.421-1.171 3.638-1.744.921-.433 1.841-.867 2.767-1.288 1.243-.566 2.495-1.113 3.746-1.658.911-.396 1.819-.797 2.734-1.182 1.301-.547 2.611-1.07 3.921-1.594.878-.351 1.753-.712 2.634-1.053 1.435-.555 2.882-1.08 4.329-1.608.767-.279 1.528-.573 2.297-.844 2.171-.767 4.352-1.502 6.542-2.206.872-.28 1.753-.534 2.628-.804 1.347-.416 2.694-.838 4.049-1.23 1.137-.33 2.281-.633 3.424-.945 1.095-.3 2.187-.607 3.286-.891 1.25-.323 2.507-.624 3.762-.927.986-.238 1.97-.48 2.96-.706 1.344-.307 2.692-.594 4.042-.877.889-.188 1.776-.374 2.667-.552 1.447-.287 2.895-.557 4.346-.817.772-.139 1.544-.275 2.318-.406 1.569-.265 3.141-.516 4.714-.751.614-.091 1.229-.178 1.844-.265 1.736-.243 3.473-.476 5.213-.681.373-.045.748-.083 1.121-.126 4.187-.474 8.383-.845 12.588-1.095.015.057.027.114.042.17.388 1.553.76 3.107 1.115 4.662.013.055.023.109.037.163.357 1.57.699 3.141 1.025 4.712.006.028.011.058.017.087 2.585 12.526 4.135 25.095 4.712 37.605.02.446.049.894.066 1.34.041.995.065 1.99.092 2.986.018.651.044 1.304.057 1.954.017.885.02 1.768.027 2.652.006.759.019 1.519.019 2.276-.001.821-.015 1.64-.023 2.46-.017.822-.021 1.641-.037 2.459zm5.29-245.861c27.708 16.331 51.896 38.098 71.058 63.781-.021-.009-.044-.018-.065-.027-1.78-.776-3.571-1.525-5.368-2.26-.36-.147-.72-.296-1.08-.441-1.772-.715-3.552-1.412-5.339-2.088-.316-.119-.633-.234-.95-.353-1.709-.638-3.426-1.26-5.149-1.861-.189-.066-.377-.135-.567-.201-1.831-.634-3.671-1.243-5.517-1.836-.377-.121-.754-.241-1.131-.36-1.848-.584-3.701-1.151-5.562-1.693-.201-.059-.403-.114-.605-.172-1.763-.509-3.533-.997-5.308-1.468-.299-.079-.598-.161-.897-.239-1.867-.488-3.738-.953-5.615-1.399-.36-.085-.719-.168-1.079-.252-3.861-.9-7.743-1.709-11.645-2.431-.358-.066-.715-.133-1.072-.198-1.906-.343-3.815-.666-5.729-.967-.302-.048-.606-.091-.908-.138-1.846-.283-3.697-.549-5.55-.791-.176-.022-.351-.049-.527-.071-1.947-.252-3.898-.475-5.853-.682-.373-.04-.746-.078-1.119-.116-1.957-.198-3.914-.378-5.877-.532-.18-.014-.359-.024-.538-.039-1.874-.142-3.748-.262-5.627-.363-.295-.016-.591-.034-.888-.049-1.952-.098-3.906-.172-5.861-.227-.354-.01-.707-.017-1.061-.025-2.008-.047-4.014-.079-6.024-.079-.583 0-1.164.018-1.747.021-1.512.01-3.023.02-4.529.056-.919.021-1.837.065-2.755.096-1.178.04-2.358.074-3.532.13-.987.047-1.968.115-2.953.172-1.104.065-2.207.124-3.308.204-1.009.073-2.015.164-3.021.249-1.071.089-2.141.174-3.209.277-1.023.098-2.04.214-3.06.325-1.046.113-2.094.223-3.138.349-1.027.124-2.047.263-3.071.4-1.033.137-2.063.273-3.093.422-1.029.149-2.052.312-3.078.474-1.016.16-2.033.321-3.046.493-1.027.174-2.05.36-3.072.548-1.008.185-2.015.369-3.02.566-1.022.199-2.039.408-3.058.619-.998.208-1.997.419-2.994.638-1.014.224-2.027.455-3.038.692-.991.231-1.978.467-2.965.709-1.011.249-2.02.503-3.027.764-.981.255-1.96.514-2.937.78-1.002.273-2.004.55-3.002.834-.975.278-1.948.564-2.919.854-.992.295-1.985.594-2.974.903-.969.302-1.934.613-2.897.927-.983.32-1.965.639-2.943.97-.963.326-1.921.663-2.882 1.001-.97.341-1.941.682-2.905 1.035-.962.352-1.919.717-2.876 1.08-.954.362-1.908.721-2.857 1.096-.965.379-1.923.774-2.884 1.166-.931.379-1.865.755-2.79 1.145-.978.413-1.949.842-2.922 1.266-.9.394-1.802.78-2.697 1.184-1.002.452-1.997.922-2.994 1.388-.854.399-1.712.789-2.562 1.198-1.08.519-2.151 1.058-3.224 1.593-.756.376-1.518.743-2.27 1.127-1.45.74-2.888 1.503-4.325 2.272-.367.196-.74.383-1.106.582-1.799.974-3.584 1.971-5.359 2.989-.548.314-1.088.644-1.635.963-1.232.719-2.464 1.437-3.684 2.177-.636.385-1.265.787-1.898 1.179-1.121.693-2.243 1.384-3.354 2.095-.661.423-1.316.861-1.973 1.291-1.073.701-2.147 1.401-3.21 2.118-.661.447-1.316.906-1.974 1.359-1.05.723-2.1 1.448-3.142 2.187-.649.462-1.291.934-1.937 1.403-1.04.754-2.079 1.509-3.107 2.28-.631.472-1.257.954-1.884 1.432-1.035.788-2.066 1.582-3.09 2.386-.608.479-1.21.965-1.814 1.45-1.035.828-2.063 1.663-3.086 2.509-.58.48-1.156.966-1.733 1.452-1.037.873-2.068 1.753-3.094 2.645-.548.477-1.094.958-1.638 1.439-1.045.925-2.086 1.858-3.117 2.801-.51.466-1.018.935-1.526 1.406-.509.473-1.027.933-1.533 1.411-.325-.569-.647-1.14-.968-1.713-.244-.437-.492-.871-.734-1.31-.489-.884-.967-1.772-1.444-2.661-.154-.29-.315-.577-.469-.867-.623-1.176-1.238-2.357-1.84-3.54-.178-.347-.348-.698-.523-1.046-.425-.844-.849-1.689-1.264-2.537-.229-.471-.453-.943-.681-1.414-.351-.731-.701-1.462-1.046-2.196-.24-.514-.477-1.031-.713-1.546-.321-.697-.64-1.394-.953-2.094-.24-.535-.478-1.072-.713-1.609-.301-.686-.601-1.372-.895-2.059-.234-.548-.469-1.096-.698-1.645-.287-.685-.571-1.372-.852-2.059-.225-.55-.449-1.099-.671-1.649-.281-.704-.558-1.41-.833-2.116-.208-.535-.418-1.069-.622-1.605-.286-.75-.565-1.502-.843-2.255-.184-.497-.371-.993-.552-1.491-.349-.961-.688-1.925-1.024-2.891-.1-.288-.205-.574-.304-.863-.426-1.239-.84-2.479-1.247-3.724-.15-.464-.295-.93-.444-1.395-.256-.803-.512-1.606-.76-2.411-.161-.526-.318-1.055-.477-1.584-.225-.75-.448-1.5-.666-2.252-.158-.548-.312-1.097-.468-1.645-.208-.739-.414-1.477-.615-2.217-.15-.552-.297-1.105-.443-1.659-.197-.749-.392-1.497-.581-2.248-.137-.54-.273-1.08-.406-1.621-.193-.782-.38-1.566-.565-2.35-.12-.507-.24-1.014-.357-1.523-.196-.856-.384-1.712-.571-2.571-.095-.439-.193-.877-.286-1.317-.22-1.042-.432-2.086-.638-3.131-.052-.257-.106-.511-.154-.768-.522-2.683-.998-5.376-1.428-8.078-.026-.162-.05-.326-.075-.488-.186-1.177-.362-2.355-.531-3.535-.037-.261-.071-.521-.107-.782-.151-1.094-.298-2.188-.435-3.285-.035-.279-.067-.558-.101-.837-.134-1.098-.261-2.196-.378-3.296-.026-.252-.054-.503-.08-.756-.121-1.161-.233-2.322-.338-3.486-.016-.181-.032-.359-.049-.54-.114-1.303-.218-2.606-.311-3.912-.002-.032-.005-.066-.007-.098-.293-4.148-.48-8.309-.559-12.482 35.482-19.668 75.68-30.041 116.556-30.041 43.024 0 85.238 11.48 122.084 33.198zm-253.544 5.846c.135 2.539.315 5.071.524 7.6.018.211.032.423.051.634.087 1.012.183 2.023.281 3.033.041.419.079.839.122 1.258.093.908.193 1.813.295 2.719.059.522.118 1.045.181 1.567.1.839.205 1.677.313 2.515.075.589.153 1.177.233 1.765.108.791.218 1.582.333 2.371.093.637.19 1.274.287 1.91.114.748.23 1.495.351 2.241.112.688.229 1.374.347 2.06.119.699.236 1.398.362 2.096.137.76.28 1.517.423 2.274.119.627.233 1.256.356 1.882.186.945.381 1.889.577 2.832.091.437.177.875.27 1.313.295 1.383.603 2.764.92 4.142.077.334.16.666.238 1 .248 1.056.499 2.111.761 3.163.117.471.239.939.359 1.409.233.914.467 1.828.709 2.74.136.51.277 1.017.415 1.526.237.871.479 1.744.725 2.613.148.521.301 1.043.451 1.562.25.855.501 1.709.759 2.56.158.523.319 1.047.482 1.569.264.852.532 1.703.804 2.552.164.513.33 1.026.497 1.538.285.867.576 1.734.869 2.6.164.485.329.97.496 1.454.315.91.639 1.818.964 2.724.156.436.311.873.47 1.309.366 1.002.742 2.003 1.121 3.001.127.336.251.672.379 1.007 1.035 2.691 2.114 5.366 3.239 8.024.104.244.212.487.318.732.454 1.065.914 2.128 1.384 3.188.185.413.372.825.559 1.238.399.888.799 1.774 1.208 2.657.22.475.444.947.668 1.42.386.819.774 1.636 1.168 2.451.242.501.489 1 .734 1.5.386.786.777 1.57 1.172 2.352.257.51.516 1.018.778 1.527.395.769.793 1.537 1.197 2.303.269.511.538 1.023.811 1.532.41.767.826 1.531 1.245 2.294.272.497.543.993.819 1.488.439.79.886 1.576 1.334 2.362.263.462.523.924.789 1.385.436.753.88 1.5 1.323 2.249l-.033.035 1.226 1.969c.634 1.048 1.273 2.093 1.922 3.134.001.002.003.004.004.006l5.107 8.181.147-.148c4.011 5.914 8.266 11.661 12.764 17.215.19.233.387.462.575.694 1.408 1.726 2.832 3.437 4.285 5.125.411.478.834.946 1.249 1.421 1.25 1.43 2.506 2.855 3.787 4.258.567.621 1.147 1.23 1.72 1.845 1.154 1.239 2.31 2.474 3.489 3.689.682.703 1.377 1.393 2.065 2.088 1.099 1.108 2.199 2.215 3.318 3.302.766.745 1.544 1.477 2.32 2.212 1.071 1.015 2.141 2.028 3.23 3.025.833.763 1.678 1.514 2.521 2.266 1.058.943 2.118 1.885 3.191 2.811.887.765 1.783 1.519 2.681 2.271 1.058.888 2.119 1.772 3.191 2.643.929.756 1.868 1.5 2.808 2.242 1.068.843 2.138 1.68 3.22 2.506.963.736 1.934 1.462 2.907 2.185 1.084.804 2.175 1.602 3.273 2.39.989.71 1.983 1.411 2.983 2.108 1.108.772 2.223 1.535 3.343 2.289 1.01.68 2.024 1.352 3.043 2.018 1.134.741 2.275 1.47 3.422 2.192 1.029.648 2.058 1.29 3.096 1.923.49.298.97.613 1.462.908-.01.565-.012 1.13-.025 1.694-.025 1.004-.06 2.009-.097 3.012-.052 1.362-.114 2.723-.189 4.082-.056 1.008-.114 2.016-.182 3.023-.092 1.359-.199 2.718-.314 4.075-.084.998-.167 1.997-.264 2.995-.134 1.375-.286 2.747-.444 4.119-.111.972-.216 1.946-.339 2.917-.18 1.418-.383 2.832-.588 4.246-.133.918-.255 1.839-.398 2.756-.243 1.556-.517 3.106-.79 4.656-.136.767-.256 1.538-.399 2.303-.424 2.273-.878 4.541-1.367 6.8-.17.79-.365 1.575-.545 2.364-.337 1.485-.671 2.971-1.036 4.45-.265 1.07-.554 2.132-.832 3.199-.309 1.184-.613 2.369-.94 3.548-.323 1.165-.667 2.322-1.008 3.481-.312 1.063-.622 2.127-.95 3.185-.378 1.227-.775 2.448-1.173 3.668-.318.969-.634 1.938-.962 2.902-.438 1.285-.89 2.565-1.349 3.842-.312.87-.629 1.74-.952 2.606-.506 1.355-1.023 2.707-1.551 4.053-.293.745-.593 1.488-.894 2.23-.589 1.453-1.187 2.902-1.804 4.343-.242.568-.494 1.132-.741 1.697-.702 1.603-1.412 3.202-2.149 4.788-.128.276-.262.549-.391.825-.851 1.812-1.715 3.615-2.612 5.406-.258-.074-.513-.151-.77-.226-1.301-.376-2.598-.758-3.888-1.155-.304-.093-.606-.193-.909-.288-1.29-.403-2.578-.81-3.858-1.233-.298-.099-.593-.203-.891-.303-1.281-.429-2.559-.862-3.829-1.312-.279-.098-.556-.203-.833-.302-1.286-.461-2.571-.925-3.846-1.405-.223-.084-.442-.173-.665-.259-1.326-.504-2.647-1.013-3.959-1.54-.124-.05-.245-.102-.369-.152-5.478-2.205-10.843-4.608-16.097-7.184-.486-.238-.976-.469-1.46-.711-.763-.38-1.517-.775-2.274-1.164-.71-.364-1.424-.722-2.131-1.093-.673-.354-1.337-.719-2.008-1.078-.781-.42-1.564-.834-2.339-1.262-.619-.341-1.229-.693-1.844-1.039-.819-.461-1.638-.918-2.45-1.388-.578-.335-1.149-.679-1.724-1.017-.838-.494-1.677-.986-2.508-1.489-.554-.336-1.1-.681-1.649-1.02-.844-.521-1.688-1.04-2.524-1.57-.531-.337-1.054-.681-1.582-1.022-.847-.547-1.694-1.093-2.533-1.648-.511-.34-1.017-.687-1.526-1.03-.843-.569-1.687-1.138-2.523-1.717-.495-.344-.987-.695-1.48-1.043-.84-.592-1.68-1.185-2.513-1.787-.477-.345-.947-.696-1.421-1.044-.838-.617-1.675-1.234-2.505-1.86-.462-.349-.918-.702-1.377-1.054-.832-.638-1.664-1.278-2.486-1.926-.447-.352-.89-.709-1.334-1.064-.825-.659-1.648-1.322-2.465-1.991-.433-.355-.861-.715-1.29-1.073-.818-.681-1.633-1.364-2.442-2.056-.419-.358-.835-.721-1.252-1.082-.807-.701-1.612-1.404-2.409-2.115-.409-.364-.816-.733-1.222-1.101-.795-.72-1.589-1.443-2.376-2.172-.396-.367-.788-.737-1.181-1.108-.786-.74-1.57-1.483-2.346-2.234-.383-.371-.766-.745-1.147-1.119-.775-.759-1.545-1.522-2.31-2.291-.371-.374-.741-.751-1.111-1.127-.766-.781-1.527-1.565-2.281-2.356-.357-.374-.712-.75-1.067-1.125-.755-.801-1.504-1.608-2.249-2.419-.346-.376-.69-.754-1.033-1.133-.743-.822-1.481-1.647-2.214-2.478-.332-.378-.663-.757-.993-1.136-.731-.841-1.457-1.687-2.176-2.538-.321-.379-.642-.76-.96-1.141-.719-.861-1.43-1.728-2.136-2.597-.309-.38-.617-.761-.923-1.142-.706-.882-1.405-1.768-2.099-2.66-.295-.379-.59-.76-.884-1.14-.696-.903-1.381-1.812-2.062-2.724-.282-.378-.566-.756-.845-1.135-.684-.925-1.358-1.857-2.028-2.793-.268-.374-.536-.748-.801-1.123-.67-.946-1.331-1.9-1.986-2.857-.257-.373-.514-.745-.768-1.12-.658-.971-1.306-1.948-1.949-2.928-.24-.366-.484-.731-.721-1.099-.648-.997-1.284-2.001-1.917-3.009-.225-.358-.451-.714-.675-1.074-.637-1.027-1.263-2.059-1.884-3.095-.208-.348-.419-.693-.626-1.041-.627-1.058-1.244-2.123-1.854-3.191-.191-.333-.383-.662-.572-.996-.618-1.093-1.224-2.193-1.827-3.296-.172-.315-.348-.628-.518-.944-.613-1.136-1.213-2.279-1.809-3.426-.149-.287-.302-.571-.449-.859-.61-1.186-1.205-2.379-1.797-3.575-.126-.255-.255-.506-.379-.762-.61-1.246-1.204-2.499-1.793-3.755-.098-.21-.199-.418-.297-.628-.618-1.333-1.223-2.674-1.818-4.02-.061-.135-.123-.27-.183-.404-.634-1.443-1.254-2.893-1.861-4.35-.017-.042-.036-.084-.054-.127-3.771-9.068-6.998-18.399-9.647-27.949-.001-.003-.002-.007-.003-.011-.435-1.566-.853-3.14-1.256-4.718-.063-.241-.119-.486-.18-.728-.339-1.342-.671-2.686-.986-4.036-.088-.378-.169-.759-.257-1.138-.278-1.218-.554-2.437-.814-3.662-.099-.467-.191-.937-.286-1.405-.235-1.139-.468-2.278-.686-3.422-.104-.541-.198-1.083-.297-1.626-.197-1.076-.395-2.152-.577-3.232-.101-.595-.193-1.194-.289-1.792-.167-1.032-.334-2.062-.488-3.097-.095-.638-.181-1.28-.271-1.92-.14-.996-.279-1.993-.406-2.995-.086-.676-.163-1.352-.243-2.03-.115-.97-.229-1.941-.334-2.913-.075-.708-.142-1.418-.21-2.127-.092-.944-.185-1.889-.266-2.836-.063-.738-.117-1.476-.173-2.215-.07-.925-.141-1.851-.2-2.78-.05-.759-.089-1.52-.132-2.28-.05-.911-.099-1.822-.14-2.735-.033-.781-.06-1.562-.086-2.344-.03-.896-.06-1.792-.08-2.689-.018-.801-.028-1.606-.04-2.409-.007-.564-.011-1.129-.014-1.694 18.898-31.999 44.98-59.239 76.003-79.476zm301.727 371.989c-38.809 38.806-88.529 62.733-142.242 68.914.292-.215.579-.437.87-.653.911-.678 1.822-1.355 2.723-2.043.376-.287.749-.58 1.123-.869.947-.731 1.893-1.462 2.827-2.205.076-.061.15-.123.227-.184 2.336-1.861 4.633-3.759 6.892-5.692.07-.06.143-.119.212-.179.842-.722 1.672-1.456 2.503-2.187.423-.372.849-.742 1.269-1.116.76-.678 1.509-1.363 2.26-2.05.482-.439.963-.879 1.441-1.321.719-.668 1.43-1.341 2.141-2.016.492-.469.985-.938 1.474-1.41.694-.671 1.385-1.345 2.07-2.023.491-.486.981-.974 1.468-1.464.676-.679 1.349-1.359 2.017-2.045.482-.494.957-.992 1.434-1.49.664-.694 1.33-1.387 1.985-2.087.454-.486.903-.977 1.353-1.466.667-.724 1.339-1.448 1.998-2.179.335-.371.661-.749.994-1.123 1.457-1.635 2.89-3.288 4.3-4.958.31-.367.626-.73.934-1.1.626-.75 1.242-1.508 1.858-2.265.422-.517.848-1.033 1.266-1.554.591-.735 1.173-1.478 1.754-2.219.432-.551.864-1.1 1.29-1.653.569-.739 1.133-1.481 1.694-2.225.424-.562.847-1.125 1.266-1.691.556-.749 1.107-1.5 1.653-2.254.411-.567.818-1.135 1.223-1.705.544-.764 1.085-1.529 1.622-2.298.39-.56.773-1.123 1.158-1.686.54-.789 1.079-1.577 1.61-2.373.35-.523.692-1.051 1.037-1.576.554-.843 1.11-1.684 1.652-2.533.196-.306.385-.616.58-.923 1.307-2.06 2.584-4.138 3.829-6.234.164-.276.333-.549.496-.826.53-.9 1.047-1.806 1.566-2.711.29-.507.584-1.011.871-1.521.49-.869.971-1.745 1.452-2.62.301-.549.605-1.098.902-1.648.468-.866.927-1.737 1.385-2.608.295-.563.588-1.125.88-1.69.452-.877.9-1.757 1.341-2.64.278-.556.554-1.114.828-1.672.442-.9.882-1.8 1.314-2.704.255-.534.503-1.069.754-1.604.441-.938.88-1.878 1.309-2.821.206-.454.406-.913.611-1.37.46-1.03.921-2.059 1.367-3.095.008-.017.015-.034.021-.051 1.194-2.768 2.337-5.558 3.432-8.367.016-.04.032-.079.048-.119.418-1.073.823-2.153 1.225-3.232.164-.441.334-.881.496-1.323.368-1.003.726-2.012 1.081-3.02.185-.52.37-1.04.551-1.562.34-.983.672-1.968.999-2.955.183-.547.363-1.096.542-1.643.32-.985.635-1.971.943-2.96.169-.544.336-1.089.502-1.633.305-1.004.609-2.01.902-3.018.149-.516.295-1.034.441-1.549.297-1.045.593-2.09.876-3.14.115-.426.224-.853.337-1.279 1.074-4.049 2.054-8.126 2.93-12.229.015-.071.031-.142.047-.213.236-1.116.459-2.235.681-3.353.096-.484.196-.966.289-1.451.199-1.035.387-2.072.572-3.11.103-.569.206-1.138.305-1.709.173-1.003.338-2.008.498-3.014.098-.61.194-1.218.288-1.828.15-.987.296-1.975.436-2.964.088-.629.173-1.258.258-1.888.131-.984.26-1.969.379-2.956.077-.629.147-1.26.219-1.89.113-.992.226-1.984.328-2.98.062-.606.115-1.212.172-1.819.098-1.026.198-2.05.282-3.077.032-.398.059-.796.089-1.195.166-2.131.304-4.266.417-6.404.033-.638.073-1.275.103-1.913.04-.892.067-1.785.098-2.678.026-.771.057-1.543.076-2.315.022-.853.033-1.708.048-2.562.012-.818.024-1.635.029-2.453.005-.828.004-1.657 0-2.485-.003-.853-.009-1.705-.021-2.558-.011-.802-.025-1.605-.045-2.408-.02-.896-.048-1.791-.077-2.688-.025-.761-.052-1.522-.084-2.284-.042-.975-.093-1.951-.145-2.927-.038-.686-.071-1.372-.113-2.056-.073-1.162-.158-2.323-.247-3.486-.039-.502-.07-1.003-.111-1.505-.278-3.4-.627-6.803-1.043-10.206-.041-.332-.087-.664-.13-.996-.173-1.374-.356-2.745-.552-4.119-.061-.426-.127-.851-.191-1.277-.191-1.293-.391-2.587-.603-3.88-.071-.434-.145-.868-.218-1.303-.222-1.31-.452-2.618-.695-3.927-.072-.392-.145-.782-.22-1.174-.265-1.397-.543-2.793-.831-4.19-.061-.291-.12-.582-.182-.873-.337-1.6-.69-3.197-1.058-4.796-.018-.082-.035-.164-.056-.247-.08-.348-.153-.697-.235-1.046.473.003.946.006 1.418.012.605.007 1.208.012 1.813.023.691.013 1.381.032 2.071.052.602.016 1.203.03 1.803.052.696.024 1.39.056 2.086.086.595.025 1.192.05 1.787.08.696.036 1.391.079 2.086.121.595.036 1.191.067 1.785.108.693.046 1.384.101 2.077.153.595.045 1.191.086 1.786.136.693.058 1.383.124 2.075.188.593.055 1.188.104 1.78.163.682.068 1.362.145 2.043.218 1.399.151 2.796.313 4.191.489.448.057.899.108 1.346.166.759.099 1.515.209 2.271.316.512.072 1.026.14 1.537.215.757.112 1.512.233 2.266.352.509.08 1.018.156 1.527.239.766.126 1.531.26 2.296.393.493.085.987.168 1.48.257.781.141 1.56.29 2.34.438.473.09.945.178 1.416.27.796.156 1.592.321 2.388.485.45.093.903.186 1.353.281.811.172 1.619.352 2.428.533.432.096.865.192 1.296.291.827.19 1.65.385 2.475.584.407.098.816.195 1.222.295.847.209 1.692.423 2.537.64.378.097.758.194 1.136.294.869.228 1.737.462 2.603.7.348.095.697.192 1.044.288.897.251 1.794.507 2.688.768.306.089.613.18.919.27.931.276 1.863.558 2.792.845.261.08.522.162.782.243.973.304 1.944.614 2.912.931.204.066.408.134.613.201 1.022.337 2.041.68 3.059 1.031.14.049.279.097.42.146 1.081.375 2.163.757 3.239 1.148.051.018.102.038.152.056 11.763 4.277 23.208 9.47 34.215 15.549-1.111 62.667-26.042 121.41-70.477 165.842z" fill="#153651"/></svg>